<?xml version="1.0" encoding="UTF-8" standalone="no"?><svg xmlns="http://www.w3.org/2000/svg" xmlns:xlink="http://www.w3.org/1999/xlink" contentStyleType="text/css" height="633.3333px" preserveAspectRatio="none" style="width:694px;height:633px;" version="1.1" viewBox="0 0 694 633" width="694.7917px" zoomAndPan="magnify"><defs/><g><polygon fill="none" points="63.5417,20.8333,63.5417,21.0523,73.9404,20.4017,84.3391,21.0347,94.7378,21.2497,105.1365,20.0902,115.5352,20.7524,125.9339,20.3891,136.3326,20.4339,146.7313,20.7623,157.13,20.1132,167.5287,21.41,177.9274,20.1768,188.3261,20.6273,198.7249,21.2833,209.1236,20.744,219.5223,20.9044,229.921,20.8001,240.3197,21.0193,250.7184,21.0824,261.1171,21.4434,271.5158,21.5323,281.9145,21.5409,292.3132,21.0986,302.7119,21.3162,313.1106,21.5648,323.5093,20.0821,333.908,21.5401,344.3068,20.5245,354.7055,21.3894,365.1042,20.3177,375.5029,20.762,385.9016,21.6058,396.3003,20.7826,406.699,20.943,417.0977,21.1861,427.4964,21.2669,437.8951,20.8293,448.2938,21.1325,458.6925,20.2371,469.0912,21.1296,479.4899,21.4044,489.8886,21.2964,500.2874,21.4719,510.6861,20.3301,521.0848,20.154,531.4835,20.186,541.8822,20.772,552.2809,20.6286,562.6796,21.5431,573.0783,20.6514,583.477,20.476,593.8757,21.0711,604.2744,20.1387,614.6731,20.2926,625.0718,21.5093,635.4705,21.2872,645.8693,21.5984,656.268,20.4981,666.6667,20.8333,666.7091,20.9357,667.3344,21.2668,667.7824,21.1699,668.4217,21.5348,669.0404,21.8501,669.6129,22.0537,669.822,22.1403,669.8557,22.6424,670.2495,23.2937,670.1675,23.7479,670.372,24.3208,670.8333,25,671.0082,25,670.5844,32.7669,671.0101,40.5339,670.9051,48.3008,670.7403,56.0677,670.8333,63.8346,670.7198,63.7876,670.7364,64.4848,670.2492,64.9734,670.291,65.681,669.6797,66.1182,669.6129,66.7809,669.695,66.979,669.088,67.1804,668.467,67.3477,667.8515,67.5283,667.3525,67.9903,666.6667,68.0013,666.6667,68.6404,656.268,68.1776,645.8693,68.2807,635.4705,67.8656,625.0718,68.7476,614.6731,68.1626,604.2744,68.1811,593.8757,67.3676,583.477,67.5792,573.0783,68.5542,562.6796,68.449,552.2809,67.9566,541.8822,67.6657,531.4835,67.7733,521.0848,67.2865,510.6861,68.4333,500.2874,68.7717,489.8886,68.5496,479.4899,68.7252,469.0912,67.8589,458.6925,68.0922,448.2938,67.5976,437.8951,68.2972,427.4964,68.2583,417.0977,68.5767,406.699,67.7621,396.3003,67.8613,385.9016,68.4632,375.5029,68.5923,365.1042,67.4674,354.7055,67.7993,344.3068,68.1568,333.908,67.365,323.5093,68.3694,313.1106,68.27,302.7119,67.8963,292.3132,68.1495,281.9145,68.7603,271.5158,67.6754,261.1171,68.3294,250.7184,68.2989,240.3197,68.1219,229.921,68.1481,219.5223,68.1195,209.1236,67.3511,198.7249,67.5838,188.3261,67.5205,177.9274,68.0678,167.5287,68.0931,157.13,68.1698,146.7313,67.6982,136.3326,67.931,125.9339,67.8761,115.5352,68.6022,105.1365,68.4456,94.7378,67.4955,84.3391,67.9253,73.9404,67.4,63.5417,68.0013,63.58,68.0938,63.0333,67.9524,62.4355,67.6878,61.716,67.1293,61.2463,67.1738,60.5954,66.7809,60.3571,66.6822,60.4155,66.2183,60.0112,65.5626,59.8942,65.026,59.6962,64.4558,59.375,63.8346,59.5389,63.8346,59.125,56.0677,59.5401,48.3008,59.4369,40.5339,59.4984,32.7669,59.375,25,59.6149,25.0994,59.6208,24.4115,59.9194,23.8448,60.1757,23.2606,60.4146,22.6692,60.5954,22.0537,60.5953,22.0535,61.2791,22.0376,61.6929,21.37,62.4383,21.5028,62.8695,20.8772,63.5417,20.8333" style="stroke:#4D4D4D;stroke-width:1.0416666666666667;"/><text fill="#2E2E2E" font-family="&quot;Segoe Print&quot;" font-size="20.8333" font-weight="bold" lengthAdjust="spacing" textLength="588.5417" x="70.8333" y="51.6296">TLS 1.2 Handshake (sem autenticação do cliente)</text><path d="M91.6667,120.0521 L91.9586,120.0521 L91.0912,130.3653 L91.9351,140.6785 L92.2218,150.9918 L90.6758,161.305 L91.5587,171.6182 L91.0743,181.9314 L91.134,192.2446 L91.572,202.5579 L90.7064,212.8711 L92.4356,223.1843 L90.7913,233.4975 L91.392,243.8108 L92.2666,254.124 L91.5475,264.4372 L91.7614,274.7504 L91.6223,285.0637 L91.9146,295.3769 L91.9988,305.6901 L92.4801,316.0033 L92.5987,326.3166 L92.6101,336.6298 L92.0203,346.943 L92.3105,357.2562 L92.642,367.5694 L90.665,377.8827 L92.609,388.1959 L91.2549,398.5091 L92.4081,408.8223 L90.9791,419.1356 L91.5715,429.4488 L92.6967,439.762 L91.599,450.0752 L91.8129,460.3885 L92.137,470.7017 L92.2448,481.0149 L91.6612,491.3281 L92.0656,501.6413 L90.8716,511.9546 L92.0616,522.2678 L92.428,532.581 L92.2841,542.8942 L92.5181,553.2075 L90.9957,563.5207 L90.7609,573.8339 L91.6667,584.1471 " fill="none" style="stroke:#555555;stroke-width:1.0416666666666667;stroke-dasharray:5.0,5.0;"/><path d="M634.375,120.0521 L634.6669,120.0521 L633.7996,130.3653 L634.6435,140.6785 L634.9301,150.9918 L633.3842,161.305 L634.2671,171.6182 L633.7826,181.9314 L633.8424,192.2446 L634.2803,202.5579 L633.4148,212.8711 L635.1439,223.1843 L633.4996,233.4975 L634.1003,243.8108 L634.9749,254.124 L634.2559,264.4372 L634.4698,274.7504 L634.3306,285.0637 L634.623,295.3769 L634.7071,305.6901 L635.1885,316.0033 L635.307,326.3166 L635.3184,336.6298 L634.7286,346.943 L635.0189,357.2562 L635.3503,367.5694 L633.3734,377.8827 L635.3174,388.1959 L633.9632,398.5091 L635.1164,408.8223 L633.6875,419.1356 L634.2799,429.4488 L635.405,439.762 L634.3073,450.0752 L634.5213,460.3885 L634.8453,470.7017 L634.9531,481.0149 L634.3696,491.3281 L634.7739,501.6413 L633.58,511.9546 L634.77,522.2678 L635.1364,532.581 L634.9924,542.8942 L635.2264,553.2075 L633.7041,563.5207 L633.4692,573.8339 L634.375,584.1471 " fill="none" style="stroke:#555555;stroke-width:1.0416666666666667;stroke-dasharray:5.0,5.0;"/><polygon fill="none" points="61.4583,79.4596,61.4583,79.6786,71.7014,79.0281,81.9444,79.661,92.1875,79.876,102.4306,78.7165,112.6736,79.3787,122.9167,79.4596,122.86,79.3228,123.455,79.5807,124.0861,79.9259,124.5926,79.9701,125.3473,80.6135,125.8629,80.68,125.6608,80.5963,126.0436,81.243,126.4897,81.9159,126.5677,82.4364,126.8611,83.0461,127.0833,83.6263,127.0722,83.6263,127.1453,89.8698,127.1664,96.1133,127.2867,102.3568,127.3163,108.6003,127.0833,114.8438,127.3012,114.934,126.9209,115.4668,126.7439,116.0839,126.5764,116.7048,125.8757,117.1049,125.8629,117.79,125.9531,118.0077,125.2343,117.939,124.7554,118.4494,124.0294,118.3635,123.4968,118.7444,122.9167,119.0104,122.9167,119.7829,112.6736,118.9597,102.4306,119.1201,92.1875,119.3632,81.9444,119.444,71.7014,119.0063,61.4583,119.0104,61.4965,119.1026,60.793,118.5827,60.3176,118.6135,59.7634,118.454,59.1604,118.1767,58.5121,117.79,58.7087,117.8715,58.113,117.1366,57.8147,116.5249,57.5805,115.9397,57.5169,115.4252,57.2917,114.8438,57.2234,114.8438,57.5283,108.6003,57.231,102.3568,57.1726,96.1133,57.3709,89.8698,57.2917,83.6263,57.0778,83.5377,57.3692,82.9681,57.988,82.534,58.1637,81.9164,58.5036,81.3669,58.5121,80.68,58.4693,80.5768,59.1437,80.5383,59.769,80.3813,60.2171,79.7962,60.8563,79.673,61.4583,79.4596" style="stroke:#333333;stroke-width:1.0416666666666667;"/><text fill="#2E2E2E" font-family="&quot;Segoe Print&quot;" font-size="12.5" lengthAdjust="spacing" textLength="44.7917" x="69.7917" y="103.5624">Cliente</text><polygon fill="none" points="61.4583,583.1055,61.4583,583.3244,71.7014,582.6739,81.9444,583.3068,92.1875,583.5218,102.4306,582.3623,112.6736,583.0245,122.9167,583.1055,122.86,582.9687,123.455,583.2265,124.0861,583.5718,124.5926,583.6159,125.3473,584.2594,125.8629,584.3259,125.6608,584.2421,126.0436,584.8888,126.4897,585.5618,126.5677,586.0822,126.8611,586.6919,127.0833,587.2721,127.0722,587.2721,127.1453,593.5156,127.1664,599.7591,127.2867,606.0026,127.3163,612.2461,127.0833,618.4896,127.3012,618.5798,126.9209,619.1127,126.7439,619.7297,126.5764,620.3507,125.8757,620.7508,125.8629,621.4359,125.9531,621.6535,125.2343,621.5848,124.7554,622.0953,124.0294,622.0093,123.4968,622.3902,122.9167,622.6563,122.9167,623.4288,112.6736,622.6055,102.4306,622.7659,92.1875,623.009,81.9444,623.0898,71.7014,622.6522,61.4583,622.6563,61.4965,622.7484,60.793,622.2285,60.3176,622.2593,59.7634,622.0999,59.1604,621.8225,58.5121,621.4359,58.7087,621.5173,58.113,620.7824,57.8147,620.1707,57.5805,619.5855,57.5169,619.071,57.2917,618.4896,57.2234,618.4896,57.5283,612.2461,57.231,606.0026,57.1726,599.7591,57.3709,593.5156,57.2917,587.2721,57.0778,587.1835,57.3692,586.6139,57.988,586.1799,58.1637,585.5623,58.5036,585.0127,58.5121,584.3259,58.4693,584.2226,59.1437,584.1842,59.769,584.0271,60.2171,583.4421,60.8563,583.3188,61.4583,583.1055" style="stroke:#333333;stroke-width:1.0416666666666667;"/><text fill="#2E2E2E" font-family="&quot;Segoe Print&quot;" font-size="12.5" lengthAdjust="spacing" textLength="44.7917" x="69.7917" y="607.2083">Cliente</text><polygon fill="none" points="600,79.4596,600,79.6786,609.9702,79.0281,619.9405,79.661,629.9107,79.876,639.881,78.7165,649.8512,79.3787,659.8214,79.0154,669.7917,79.4596,669.7407,79.3366,670.3719,79.6818,670.8783,79.726,671.633,80.3695,672.0649,80.2338,672.7379,80.68,672.6745,80.6537,673.1206,81.3267,673.1986,81.8471,673.4921,82.4569,673.704,83.0328,673.9583,83.6263,674.0203,83.6263,674.0414,89.8698,674.1617,96.1133,674.1913,102.3568,674.1942,108.6003,673.9583,114.8438,674.04,114.8776,673.863,115.4946,673.6954,116.1156,672.9948,116.5157,673.1997,117.2909,672.7379,117.79,672.6985,117.6949,672.2196,118.2053,671.4937,118.1194,670.9611,118.5003,670.4795,119.0042,669.7917,119.0104,669.7917,118.9597,659.8214,119.1201,649.8512,119.3632,639.881,119.444,629.9107,119.0063,619.9405,119.3096,609.9702,118.4141,600,119.0104,600.0378,119.1016,599.4836,118.9422,598.8806,118.6649,598.3137,118.4748,597.5788,117.8791,597.0537,117.79,596.8445,117.7034,596.6103,117.1182,596.5467,116.6037,596.2584,115.9961,596.296,115.5235,595.8333,114.8438,595.7727,114.8438,595.7142,108.6003,595.9126,102.3568,595.6018,96.1133,595.6531,89.8698,595.8333,83.6263,596.0415,83.7125,596.2172,83.0949,596.5571,82.5454,596.4623,81.8158,596.912,81.3117,597.0537,80.68,597.1322,80.8694,597.5802,80.2844,598.2195,80.1611,598.8382,79.9882,599.4973,79.9128,600,79.4596" style="stroke:#333333;stroke-width:1.0416666666666667;"/><text fill="#2E2E2E" font-family="&quot;Segoe Print&quot;" font-size="12.5" lengthAdjust="spacing" textLength="53.125" x="608.3333" y="103.5624">Servidor</text><polygon fill="none" points="600,583.1055,600,583.3244,609.9702,582.6739,619.9405,583.3068,629.9107,583.5218,639.881,582.3623,649.8512,583.0245,659.8214,582.6612,669.7917,583.1055,669.7407,582.9824,670.3719,583.3277,670.8783,583.3718,671.633,584.0153,672.0649,583.8796,672.7379,584.3259,672.6745,584.2996,673.1206,584.9725,673.1986,585.493,673.4921,586.1027,673.704,586.6786,673.9583,587.2721,674.0203,587.2721,674.0414,593.5156,674.1617,599.7591,674.1913,606.0026,674.1942,612.2461,673.9583,618.4896,674.04,618.5234,673.863,619.1404,673.6954,619.7614,672.9948,620.1615,673.1997,620.9368,672.7379,621.4359,672.6985,621.3407,672.2196,621.8512,671.4937,621.7652,670.9611,622.1461,670.4795,622.6501,669.7917,622.6563,669.7917,622.6055,659.8214,622.7659,649.8512,623.009,639.881,623.0898,629.9107,622.6522,619.9405,622.9554,609.9702,622.06,600,622.6563,600.0378,622.7475,599.4836,622.588,598.8806,622.3107,598.3137,622.1207,597.5788,621.525,597.0537,621.4359,596.8445,621.3492,596.6103,620.764,596.5467,620.2495,596.2584,619.642,596.296,619.1694,595.8333,618.4896,595.7727,618.4896,595.7142,612.2461,595.9126,606.0026,595.6018,599.7591,595.6531,593.5156,595.8333,587.2721,596.0415,587.3584,596.2172,586.7408,596.5571,586.1912,596.4623,585.4616,596.912,584.9575,597.0537,584.3259,597.1322,584.5153,597.5802,583.9302,598.2195,583.807,598.8382,583.634,599.4973,583.5586,600,583.1055" style="stroke:#333333;stroke-width:1.0416666666666667;"/><text fill="#2E2E2E" font-family="&quot;Segoe Print&quot;" font-size="12.5" lengthAdjust="spacing" textLength="53.125" x="608.3333" y="607.2083">Servidor</text><polygon fill="#333333" points="622.3958,172.0703,622.4229,172.1381,624.4257,172.7701,626.5874,173.7993,628.6974,174.6992,630.6372,175.1737,632.8125,176.237,632.8025,176.2119,630.6742,176.9328,628.5964,177.78,626.5537,178.715,624.39,179.3474,622.3958,180.4036,622.5318,180.5396,623.0744,179.4156,624.0139,178.6884,625.0019,178.0097,625.7081,177.0493,626.5625,176.237,626.5793,176.2537,625.7213,175.3958,624.9397,174.6141,624.1212,173.7957,623.373,173.0474,622.3958,172.0703" style="stroke:#333333;stroke-width:1.0416666666666667;"/><path d="M92.1875,176.237 L92.1875,176.5289 L102.504,175.6615 L112.8205,176.5054 L123.137,176.7921 L133.4535,175.2462 L143.77,176.129 L154.0865,175.6446 L164.403,175.7043 L174.7196,176.1423 L185.0361,175.2767 L195.3526,177.0059 L205.6691,175.3616 L215.9856,175.9623 L226.3021,176.8369 L236.6186,176.1178 L246.9351,176.3318 L257.2516,176.1926 L267.5681,176.4849 L277.8846,176.5691 L288.2011,177.0504 L298.5176,177.169 L308.8341,177.1804 L319.1506,176.5906 L329.4671,176.8808 L339.7837,177.2123 L350.1002,175.2353 L360.4167,177.1794 L370.7332,175.8252 L381.0497,176.9784 L391.3662,175.5494 L401.6827,176.1418 L411.9992,177.267 L422.3157,176.1693 L432.6322,176.3832 L442.9487,176.7073 L453.2652,176.8151 L463.5817,176.2316 L473.8982,176.6359 L484.2147,175.442 L494.5313,176.632 L504.8478,176.9984 L515.1643,176.8544 L525.4808,177.0884 L535.7973,175.566 L546.1138,175.3312 L556.4303,175.3739 L566.7468,176.1552 L577.0633,175.964 L587.3798,177.1834 L597.6963,175.9944 L608.0128,175.7605 L618.3293,176.554 L628.6458,176.237 " fill="none" style="stroke:#333333;stroke-width:3.125;"/><text fill="#2E2E2E" font-family="&quot;Segoe Print&quot;" font-size="12.5" lengthAdjust="spacing" textLength="68.75" x="104.6875" y="151.4465">ClientHello</text><text fill="#2E2E2E" font-family="&quot;Segoe Print&quot;" font-size="12.5" lengthAdjust="spacing" textLength="365.625" x="138.0208" y="165.9973">(version, random, session_id, cipher_suites, extensions)</text><polygon fill="#333333" points="103.6458,226.1719,103.6729,226.2396,101.5091,226.8716,99.5041,227.9009,97.4474,228.8007,95.2205,229.2752,93.2292,230.3385,93.2191,230.3135,95.2575,231.0344,97.3464,231.8816,99.4704,232.8166,101.4733,233.449,103.6458,234.5052,103.7818,234.6411,102.6578,233.5171,101.9306,232.79,101.2519,232.1113,100.2914,231.1508,99.4792,230.3385,99.4959,230.3553,100.3047,229.4974,101.1897,228.7157,102.0379,227.8973,102.9563,227.149,103.6458,226.1719" style="stroke:#333333;stroke-width:1.0416666666666667;"/><path d="M97.3958,230.3385 L97.3958,230.6305 L107.7123,229.7631 L118.0288,230.607 L128.3454,230.8937 L138.6619,229.3477 L148.9784,230.2306 L159.2949,229.7462 L169.6114,229.8059 L179.9279,230.2439 L190.2444,229.3783 L200.5609,231.1075 L210.8774,229.4632 L221.1939,230.0639 L231.5104,230.9385 L241.8269,230.2194 L252.1434,230.4333 L262.4599,230.2942 L272.7764,230.5865 L283.0929,230.6707 L293.4095,231.152 L303.726,231.2706 L314.0425,231.282 L324.359,230.6922 L334.6755,230.9824 L344.992,231.3139 L355.3085,229.3369 L365.625,231.2809 L375.9415,229.9267 L386.258,231.0799 L396.5745,229.651 L406.891,230.2434 L417.2075,231.3685 L427.524,230.2709 L437.8405,230.4848 L448.1571,230.8089 L458.4736,230.9166 L468.7901,230.3331 L479.1066,230.7374 L489.4231,229.5435 L499.7396,230.7335 L510.0561,231.0999 L520.3726,230.9559 L530.6891,231.19 L541.0056,229.6676 L551.3221,229.4327 L561.6386,229.4755 L571.9551,230.2568 L582.2716,230.0656 L592.5881,231.2849 L602.9046,230.0959 L613.2212,229.8621 L623.5377,230.6556 L633.8542,230.3385 " fill="none" style="stroke:#333333;stroke-width:3.125;"/><text fill="#2E2E2E" font-family="&quot;Segoe Print&quot;" font-size="12.5" lengthAdjust="spacing" textLength="73.9583" x="115.1042" y="205.5481">ServerHello</text><text fill="#2E2E2E" font-family="&quot;Segoe Print&quot;" font-size="12.5" lengthAdjust="spacing" textLength="358.3333" x="148.4375" y="220.0989">(version, random, session_id, cipher_suite, extensions)</text><polygon fill="#333333" points="103.6458,280.2734,103.6729,280.3412,101.5091,280.9732,99.5041,282.0024,97.4474,282.9023,95.2205,283.3768,93.2292,284.4401,93.2191,284.4151,95.2575,285.1359,97.3464,285.9831,99.4704,286.9181,101.4733,287.5505,103.6458,288.6068,103.7818,288.7427,102.6578,287.6187,101.9306,286.8915,101.2519,286.2128,100.2914,285.2524,99.4792,284.4401,99.4959,284.4569,100.3047,283.5989,101.1897,282.8173,102.0379,281.9988,102.9563,281.2506,103.6458,280.2734" style="stroke:#333333;stroke-width:1.0416666666666667;"/><path d="M97.3958,284.4401 L97.3958,284.732 L107.7123,283.8647 L118.0288,284.7086 L128.3454,284.9952 L138.6619,283.4493 L148.9784,284.3322 L159.2949,283.8478 L169.6114,283.9075 L179.9279,284.3454 L190.2444,283.4799 L200.5609,285.2091 L210.8774,283.5647 L221.1939,284.1654 L231.5104,285.04 L241.8269,284.321 L252.1434,284.5349 L262.4599,284.3957 L272.7764,284.6881 L283.0929,284.7722 L293.4095,285.2536 L303.726,285.3721 L314.0425,285.3835 L324.359,284.7938 L334.6755,285.084 L344.992,285.4154 L355.3085,283.4385 L365.625,285.3825 L375.9415,284.0283 L386.258,285.1815 L396.5745,283.7526 L406.891,284.345 L417.2075,285.4701 L427.524,284.3724 L437.8405,284.5864 L448.1571,284.9104 L458.4736,285.0182 L468.7901,284.4347 L479.1066,284.839 L489.4231,283.6451 L499.7396,284.8351 L510.0561,285.2015 L520.3726,285.0575 L530.6891,285.2915 L541.0056,283.7692 L551.3221,283.5343 L561.6386,283.577 L571.9551,284.3583 L582.2716,284.1671 L592.5881,285.3865 L602.9046,284.1975 L613.2212,283.9636 L623.5377,284.7571 L633.8542,284.4401 " fill="none" style="stroke:#333333;stroke-width:3.125;"/><text fill="#2E2E2E" font-family="&quot;Segoe Print&quot;" font-size="12.5" lengthAdjust="spacing" textLength="66.6667" x="115.1042" y="259.6497">Certificate</text><text fill="#2E2E2E" font-family="&quot;Segoe Print&quot;" font-size="12.5" lengthAdjust="spacing" textLength="196.875" x="148.4375" y="274.2004">(certificado X.509 do servidor)</text><polygon fill="#333333" points="103.6458,319.8242,103.6729,319.892,101.5091,320.524,99.5041,321.5532,97.4474,322.4531,95.2205,322.9276,93.2292,323.9909,93.2191,323.9658,95.2575,324.6867,97.3464,325.5339,99.4704,326.4689,101.4733,327.1013,103.6458,328.1576,103.7818,328.2935,102.6578,327.1695,101.9306,326.4423,101.2519,325.7636,100.2914,324.8032,99.4792,323.9909,99.4959,324.0076,100.3047,323.1497,101.1897,322.3681,102.0379,321.5496,102.9563,320.8014,103.6458,319.8242" style="stroke:#333333;stroke-width:1.0416666666666667;"/><path d="M97.3958,323.9909 L97.3958,324.2828 L107.7123,323.4154 L118.0288,324.2593 L128.3454,324.546 L138.6619,323.0001 L148.9784,323.883 L159.2949,323.3985 L169.6114,323.4582 L179.9279,323.8962 L190.2444,323.0307 L200.5609,324.7598 L210.8774,323.1155 L221.1939,323.7162 L231.5104,324.5908 L241.8269,323.8718 L252.1434,324.0857 L262.4599,323.9465 L272.7764,324.2388 L283.0929,324.323 L293.4095,324.8043 L303.726,324.9229 L314.0425,324.9343 L324.359,324.3445 L334.6755,324.6348 L344.992,324.9662 L355.3085,322.9892 L365.625,324.9333 L375.9415,323.5791 L386.258,324.7323 L396.5745,323.3034 L406.891,323.8957 L417.2075,325.0209 L427.524,323.9232 L437.8405,324.1371 L448.1571,324.4612 L458.4736,324.569 L468.7901,323.9855 L479.1066,324.3898 L489.4231,323.1959 L499.7396,324.3859 L510.0561,324.7523 L520.3726,324.6083 L530.6891,324.8423 L541.0056,323.3199 L551.3221,323.0851 L561.6386,323.1278 L571.9551,323.9091 L582.2716,323.7179 L592.5881,324.9373 L602.9046,323.7483 L613.2212,323.5144 L623.5377,324.3079 L633.8542,323.9909 " fill="none" style="stroke:#333333;stroke-width:3.125;"/><text fill="#2E2E2E" font-family="&quot;Segoe Print&quot;" font-size="12.5" lengthAdjust="spacing" textLength="108.3333" x="115.1042" y="313.7512">ServerHelloDone</text><polygon fill="#333333" points="622.3958,373.9258,622.4229,373.9935,624.4257,374.6255,626.5874,375.6548,628.6974,376.5546,630.6372,377.0291,632.8125,378.0924,632.8025,378.0674,630.6742,378.7883,628.5964,379.6355,626.5537,380.5705,624.39,381.2029,622.3958,382.2591,622.5318,382.395,623.0744,381.271,624.0139,380.5439,625.0019,379.8652,625.7081,378.9047,626.5625,378.0924,626.5793,378.1092,625.7213,377.2513,624.9397,376.4696,624.1212,375.6512,623.373,374.9029,622.3958,373.9258" style="stroke:#333333;stroke-width:1.0416666666666667;"/><path d="M92.1875,378.0924 L92.1875,378.3844 L102.504,377.517 L112.8205,378.3609 L123.137,378.6476 L133.4535,377.1016 L143.77,377.9845 L154.0865,377.5001 L164.403,377.5598 L174.7196,377.9978 L185.0361,377.1322 L195.3526,378.8614 L205.6691,377.2171 L215.9856,377.8178 L226.3021,378.6924 L236.6186,377.9733 L246.9351,378.1872 L257.2516,378.0481 L267.5681,378.3404 L277.8846,378.4246 L288.2011,378.9059 L298.5176,379.0245 L308.8341,379.0359 L319.1506,378.4461 L329.4671,378.7363 L339.7837,379.0678 L350.1002,377.0908 L360.4167,379.0348 L370.7332,377.6806 L381.0497,378.8339 L391.3662,377.4049 L401.6827,377.9973 L411.9992,379.1225 L422.3157,378.0248 L432.6322,378.2387 L442.9487,378.5628 L453.2652,378.6705 L463.5817,378.087 L473.8982,378.4914 L484.2147,377.2974 L494.5313,378.4874 L504.8478,378.8538 L515.1643,378.7099 L525.4808,378.9439 L535.7973,377.4215 L546.1138,377.1866 L556.4303,377.2294 L566.7468,378.0107 L577.0633,377.8195 L587.3798,379.0389 L597.6963,377.8498 L608.0128,377.616 L618.3293,378.4095 L628.6458,378.0924 " fill="none" style="stroke:#333333;stroke-width:3.125;"/><text fill="#2E2E2E" font-family="&quot;Segoe Print&quot;" font-size="12.5" lengthAdjust="spacing" textLength="121.875" x="104.6875" y="353.302">ClientKeyExchange</text><text fill="#2E2E2E" font-family="&quot;Segoe Print&quot;" font-size="12.5" lengthAdjust="spacing" textLength="473.9583" x="138.0208" y="367.8528">( Parâmetros públicos DH/ECDHE, ou premaster_secret cifrado com RSA)</text><polygon fill="#333333" points="622.3958,413.4766,622.4229,413.5443,624.4257,414.1763,626.5874,415.2055,628.6974,416.1054,630.6372,416.5799,632.8125,417.6432,632.8025,417.6182,630.6742,418.3391,628.5964,419.1863,626.5537,420.1213,624.39,420.7537,622.3958,421.8099,622.5318,421.9458,623.0744,420.8218,624.0139,420.0947,625.0019,419.4159,625.7081,418.4555,626.5625,417.6432,626.5793,417.66,625.7213,416.8021,624.9397,416.0204,624.1212,415.2019,623.373,414.4537,622.3958,413.4766" style="stroke:#333333;stroke-width:1.0416666666666667;"/><path d="M92.1875,417.6432 L92.1875,417.9351 L102.504,417.0678 L112.8205,417.9117 L123.137,418.1983 L133.4535,416.6524 L143.77,417.5353 L154.0865,417.0509 L164.403,417.1106 L174.7196,417.5486 L185.0361,416.683 L195.3526,418.4122 L205.6691,416.7678 L215.9856,417.3686 L226.3021,418.2432 L236.6186,417.5241 L246.9351,417.738 L257.2516,417.5989 L267.5681,417.8912 L277.8846,417.9754 L288.2011,418.4567 L298.5176,418.5752 L308.8341,418.5866 L319.1506,417.9969 L329.4671,418.2871 L339.7837,418.6186 L350.1002,416.6416 L360.4167,418.5856 L370.7332,417.2314 L381.0497,418.3846 L391.3662,416.9557 L401.6827,417.5481 L411.9992,418.6732 L422.3157,417.5755 L432.6322,417.7895 L442.9487,418.1135 L453.2652,418.2213 L463.5817,417.6378 L473.8982,418.0421 L484.2147,416.8482 L494.5313,418.0382 L504.8478,418.4046 L515.1643,418.2606 L525.4808,418.4947 L535.7973,416.9723 L546.1138,416.7374 L556.4303,416.7802 L566.7468,417.5615 L577.0633,417.3703 L587.3798,418.5896 L597.6963,417.4006 L608.0128,417.1668 L618.3293,417.9603 L628.6458,417.6432 " fill="none" style="stroke:#333333;stroke-width:3.125;"/><text fill="#2E2E2E" font-family="&quot;Segoe Print&quot;" font-size="12.5" lengthAdjust="spacing" textLength="123.9583" x="104.6875" y="407.4036">ChangeCipherSpec</text><polygon fill="#333333" points="622.3958,467.5781,622.4229,467.6459,624.4257,468.2779,626.5874,469.3071,628.6974,470.207,630.6372,470.6815,632.8125,471.7448,632.8025,471.7197,630.6742,472.4406,628.5964,473.2878,626.5537,474.2228,624.39,474.8552,622.3958,475.9115,622.5318,476.0474,623.0744,474.9234,624.0139,474.1962,625.0019,473.5175,625.7081,472.5571,626.5625,471.7448,626.5793,471.7615,625.7213,470.9036,624.9397,470.122,624.1212,469.3035,623.373,468.5553,622.3958,467.5781" style="stroke:#333333;stroke-width:1.0416666666666667;"/><path d="M92.1875,471.7448 L92.1875,472.0367 L102.504,471.1693 L112.8205,472.0132 L123.137,472.2999 L133.4535,470.754 L143.77,471.6369 L154.0865,471.1524 L164.403,471.2122 L174.7196,471.6501 L185.0361,470.7846 L195.3526,472.5137 L205.6691,470.8694 L215.9856,471.4701 L226.3021,472.3447 L236.6186,471.6257 L246.9351,471.8396 L257.2516,471.7004 L267.5681,471.9927 L277.8846,472.0769 L288.2011,472.5582 L298.5176,472.6768 L308.8341,472.6882 L319.1506,472.0984 L329.4671,472.3887 L339.7837,472.7201 L350.1002,470.7431 L360.4167,472.6872 L370.7332,471.333 L381.0497,472.4862 L391.3662,471.0573 L401.6827,471.6497 L411.9992,472.7748 L422.3157,471.6771 L432.6322,471.891 L442.9487,472.2151 L453.2652,472.3229 L463.5817,471.7394 L473.8982,472.1437 L484.2147,470.9498 L494.5313,472.1398 L504.8478,472.5062 L515.1643,472.3622 L525.4808,472.5962 L535.7973,471.0738 L546.1138,470.839 L556.4303,470.8817 L566.7468,471.663 L577.0633,471.4718 L587.3798,472.6912 L597.6963,471.5022 L608.0128,471.2683 L618.3293,472.0618 L628.6458,471.7448 " fill="none" style="stroke:#333333;stroke-width:3.125;"/><text fill="#2E2E2E" font-family="&quot;Segoe Print&quot;" font-size="12.5" lengthAdjust="spacing" textLength="54.1667" x="104.6875" y="446.9543">Finished</text><text fill="#2E2E2E" font-family="&quot;Segoe Print&quot;" font-size="12.5" lengthAdjust="spacing" textLength="203.125" x="138.0208" y="461.5051">(MAC/transcript do handshake)</text><polygon fill="#333333" points="103.6458,507.1289,103.6729,507.1967,101.5091,507.8287,99.5041,508.8579,97.4474,509.7578,95.2205,510.2322,93.2292,511.2956,93.2191,511.2705,95.2575,511.9914,97.3464,512.8386,99.4704,513.7736,101.4733,514.406,103.6458,515.4622,103.7818,515.5982,102.6578,514.4742,101.9306,513.747,101.2519,513.0683,100.2914,512.1078,99.4792,511.2956,99.4959,511.3123,100.3047,510.4544,101.1897,509.6727,102.0379,508.8543,102.9563,508.106,103.6458,507.1289" style="stroke:#333333;stroke-width:1.0416666666666667;"/><path d="M97.3958,511.2956 L97.3958,511.5875 L107.7123,510.7201 L118.0288,511.564 L128.3454,511.8507 L138.6619,510.3047 L148.9784,511.1876 L159.2949,510.7032 L169.6114,510.7629 L179.9279,511.2009 L190.2444,510.3353 L200.5609,512.0645 L210.8774,510.4202 L221.1939,511.0209 L231.5104,511.8955 L241.8269,511.1764 L252.1434,511.3903 L262.4599,511.2512 L272.7764,511.5435 L283.0929,511.6277 L293.4095,512.109 L303.726,512.2276 L314.0425,512.239 L324.359,511.6492 L334.6755,511.9394 L344.992,512.2709 L355.3085,510.2939 L365.625,512.2379 L375.9415,510.8838 L386.258,512.037 L396.5745,510.608 L406.891,511.2004 L417.2075,512.3256 L427.524,511.2279 L437.8405,511.4418 L448.1571,511.7659 L458.4736,511.8737 L468.7901,511.2901 L479.1066,511.6945 L489.4231,510.5005 L499.7396,511.6906 L510.0561,512.057 L520.3726,511.913 L530.6891,512.147 L541.0056,510.6246 L551.3221,510.3898 L561.6386,510.4325 L571.9551,511.2138 L582.2716,511.0226 L592.5881,512.242 L602.9046,511.053 L613.2212,510.8191 L623.5377,511.6126 L633.8542,511.2956 " fill="none" style="stroke:#333333;stroke-width:3.125;"/><text fill="#2E2E2E" font-family="&quot;Segoe Print&quot;" font-size="12.5" lengthAdjust="spacing" textLength="123.9583" x="115.1042" y="501.0559">ChangeCipherSpec</text><polygon fill="#333333" points="103.6458,561.2305,103.6729,561.2982,101.5091,561.9302,99.5041,562.9594,97.4474,563.8593,95.2205,564.3338,93.2292,565.3971,93.2191,565.3721,95.2575,566.093,97.3464,566.9402,99.4704,567.8752,101.4733,568.5076,103.6458,569.5638,103.7818,569.6997,102.6578,568.5757,101.9306,567.8486,101.2519,567.1699,100.2914,566.2094,99.4792,565.3971,99.4959,565.4139,100.3047,564.556,101.1897,563.7743,102.0379,562.9558,102.9563,562.2076,103.6458,561.2305" style="stroke:#333333;stroke-width:1.0416666666666667;"/><path d="M97.3958,565.3971 L97.3958,565.6891 L107.7123,564.8217 L118.0288,565.6656 L128.3454,565.9522 L138.6619,564.4063 L148.9784,565.2892 L159.2949,564.8048 L169.6114,564.8645 L179.9279,565.3025 L190.2444,564.4369 L200.5609,566.1661 L210.8774,564.5217 L221.1939,565.1225 L231.5104,565.9971 L241.8269,565.278 L252.1434,565.4919 L262.4599,565.3528 L272.7764,565.6451 L283.0929,565.7293 L293.4095,566.2106 L303.726,566.3292 L314.0425,566.3405 L324.359,565.7508 L334.6755,566.041 L344.992,566.3725 L355.3085,564.3955 L365.625,566.3395 L375.9415,564.9853 L386.258,566.1385 L396.5745,564.7096 L406.891,565.302 L417.2075,566.4271 L427.524,565.3294 L437.8405,565.5434 L448.1571,565.8675 L458.4736,565.9752 L468.7901,565.3917 L479.1066,565.796 L489.4231,564.6021 L499.7396,565.7921 L510.0561,566.1585 L520.3726,566.0145 L530.6891,566.2486 L541.0056,564.7262 L551.3221,564.4913 L561.6386,564.5341 L571.9551,565.3154 L582.2716,565.1242 L592.5881,566.3435 L602.9046,565.1545 L613.2212,564.9207 L623.5377,565.7142 L633.8542,565.3971 " fill="none" style="stroke:#333333;stroke-width:3.125;"/><text fill="#2E2E2E" font-family="&quot;Segoe Print&quot;" font-size="12.5" lengthAdjust="spacing" textLength="54.1667" x="115.1042" y="540.6067">Finished</text><text fill="#2E2E2E" font-family="&quot;Segoe Print&quot;" font-size="12.5" lengthAdjust="spacing" textLength="203.125" x="148.4375" y="555.1575">(MAC/transcript do handshake)</text><!--SRC=[dPB1Ji9048RlVOhn1aa1DV4W1nDIC4tKn5WF7ap8kXtiXBRRp4mHNaSFleDNNinjWOi19TvsPsV_R_v_zqGpB11aZcgpLS_LcbE9WSofh0oR0Z9JfczCgbY2Ses1akO8ZxS9dFNF8VR7afavGaUm05FxFYLhrf_h3mUf0vkJhs0t289eiuJU5IJ82qeT3s5JZ37FtNFvh9q5if0hGs2lx8eG1AKfJ2aDmLAL8K-b9aK90PUUrXnADzWfDkfRqB358Fz3_0Zj25bfvgqgjjfsj_Ucd_eNfvUDUzdU_7k-iVEn_vBG3QucI-jVutM3Wtl3w_S2bPr0jVvwoSdwrJWUJA9nF0d1rL0n5aQqCOMMKRt56JVpMLV0GpBg7W2sbAYD8wdGxk-wff8amxITvcuK3TI7AfQfqiPvjliOX-Bx2TdRTJJa6m00]--></g></svg>