<?xml version="1.0" encoding="UTF-8" standalone="no"?><svg xmlns="http://www.w3.org/2000/svg" xmlns:xlink="http://www.w3.org/1999/xlink" contentStyleType="text/css" height="545.8333px" preserveAspectRatio="none" style="width:446px;height:545px;" version="1.1" viewBox="0 0 446 545" width="446.875px" zoomAndPan="magnify"><defs/><g><polygon fill="none" points="25,20.8333,25,21.0523,35.3618,20.4017,45.7237,21.0347,56.0855,21.2497,66.4474,20.0902,76.8092,20.7524,87.1711,20.3891,97.5329,20.4339,107.8947,20.7623,118.2566,20.1132,128.6184,21.41,138.9803,20.1768,149.3421,20.6273,159.7039,21.2833,170.0658,20.744,180.4276,20.9044,190.7895,20.8001,201.1513,21.0193,211.5132,21.0824,221.875,21.4434,232.2368,21.5323,242.5987,21.5409,252.9605,21.0986,263.3224,21.3162,273.6842,21.5648,284.0461,20.0821,294.4079,21.5401,304.7697,20.5245,315.1316,21.3894,325.4934,20.3177,335.8553,20.762,346.2171,21.6058,356.5789,20.7826,366.9408,20.943,377.3026,21.1861,387.6645,21.2669,398.0263,20.8293,408.3882,21.1325,418.75,20.8333,418.6739,20.6497,419.377,21.1686,420.0014,21.4973,420.5768,21.7082,421.1885,22.0063,421.6963,22.0537,421.5413,21.9895,421.7311,22.5563,421.9851,23.1497,422.4096,23.8137,422.6095,24.3846,422.9167,25,423.1533,25,422.856,32.7669,422.7976,40.5339,422.9959,48.3008,422.6851,56.0677,422.9167,63.8346,422.7501,63.7657,422.8808,64.5101,422.5683,65.071,422.4201,65.7,421.8371,66.1489,421.6963,66.7809,421.7387,66.8833,421.1855,67.2144,420.455,67.1175,419.9158,67.4824,419.356,67.7976,418.75,68.0013,418.75,68.6802,408.3882,67.9969,398.0263,68.4831,387.6645,67.4244,377.3026,67.2958,366.9408,68.5259,356.5789,67.2545,346.2171,68.5315,335.8553,68.2165,325.4934,67.7222,315.1316,67.6328,304.7697,68.4792,294.4079,67.6895,284.0461,68.6178,273.6842,67.4255,263.3224,68.6445,252.9605,68.5058,242.5987,68.2565,232.2368,68.0505,221.875,68.7582,211.5132,68.6404,201.1513,68.1776,190.7895,68.2807,180.4276,67.8656,170.0658,68.7476,159.7039,68.1626,149.3421,68.1811,138.9803,67.3676,128.6184,67.5792,118.2566,68.5542,107.8947,68.449,97.5329,67.9566,87.1711,67.6657,76.8092,67.7733,66.4474,67.2865,56.0855,68.4333,45.7237,68.7717,35.3618,68.5496,25,68.0013,25.0923,68.2242,24.3926,67.7134,23.8331,67.5411,23.1807,67.1447,22.6807,67.1161,22.0537,66.7809,22.1329,66.8137,21.9868,66.2651,21.4919,65.5719,21.2784,64.9953,21.2197,64.4828,20.8333,63.8346,21.0303,63.8346,20.6554,56.0677,20.766,48.3008,20.8852,40.5339,20.6212,32.7669,20.8333,25,20.9467,25.047,21.1602,24.445,21.2892,23.8081,21.6112,23.2511,22.0434,22.7398,22.0537,22.0537,22.0121,21.9534,22.6848,21.9107,23.2702,21.6572,23.8369,21.3586,24.4295,21.1226,25,20.8333" style="stroke:#4D4D4D;stroke-width:1.0416666666666667;"/><text fill="#2E2E2E" font-family="&quot;Segoe Print&quot;" font-size="20.8333" font-weight="bold" lengthAdjust="spacing" textLength="379.1667" x="32.2917" y="51.6296">TLS 1.2 Handshake Simplificado</text><path d="M135.9375,120.0521 L136.2294,120.0521 L135.3621,130.5185 L136.206,140.9849 L136.4926,151.4513 L134.9467,161.9177 L135.8296,172.3841 L135.3451,182.8505 L135.4049,193.3169 L135.8428,203.7833 L134.9773,214.2497 L136.7064,224.7161 L135.0621,235.1825 L135.6628,245.6489 L136.5374,256.1153 L135.8184,266.5817 L136.0323,277.0481 L135.8931,287.5145 L136.1855,297.9809 L136.2696,308.4473 L136.751,318.9137 L136.8695,329.3801 L136.8809,339.8465 L136.2911,350.3129 L136.5814,360.7793 L136.9128,371.2457 L134.9359,381.7121 L136.8799,392.1785 L135.5257,402.6449 L136.6789,413.1113 L135.25,423.5777 L135.8424,434.0441 L136.9675,444.5105 L135.8698,454.9769 L136.0838,465.4433 L136.4078,475.9096 L136.5156,486.376 L135.9375,496.8424 " fill="none" style="stroke:#555555;stroke-width:1.0416666666666667;stroke-dasharray:5.0,5.0;"/><path d="M303.6458,120.0521 L303.9378,120.0521 L303.0704,130.5185 L303.9143,140.9849 L304.2009,151.4513 L302.655,161.9177 L303.5379,172.3841 L303.0535,182.8505 L303.1132,193.3169 L303.5512,203.7833 L302.6856,214.2497 L304.4148,224.7161 L302.7704,235.1825 L303.3712,245.6489 L304.2458,256.1153 L303.5267,266.5817 L303.7406,277.0481 L303.6015,287.5145 L303.8938,297.9809 L303.978,308.4473 L304.4593,318.9137 L304.5779,329.3801 L304.5892,339.8465 L303.9995,350.3129 L304.2897,360.7793 L304.6212,371.2457 L302.6442,381.7121 L304.5882,392.1785 L303.234,402.6449 L304.3872,413.1113 L302.9583,423.5777 L303.5507,434.0441 L304.6758,444.5105 L303.5781,454.9769 L303.7921,465.4433 L304.1161,475.9096 L304.2239,486.376 L303.6458,496.8424 " fill="none" style="stroke:#555555;stroke-width:1.0416666666666667;stroke-dasharray:5.0,5.0;"/><polygon fill="none" points="105.7292,79.4596,105.7292,79.6786,115.9722,79.0281,126.2153,79.661,136.4583,79.876,146.7014,78.7165,156.9444,79.3787,167.1875,79.4596,167.1308,79.3228,167.7258,79.5807,168.357,79.9259,168.8634,79.9701,169.6181,80.6135,170.1338,80.68,169.9316,80.5963,170.3144,81.243,170.7605,81.9159,170.8385,82.4364,171.132,83.0461,171.3542,83.6263,171.3431,83.6263,171.4162,89.8698,171.4372,96.1133,171.5575,102.3568,171.5872,108.6003,171.3542,114.8438,171.5721,114.934,171.1918,115.4668,171.0147,116.0839,170.8472,116.7048,170.1465,117.1049,170.1338,117.79,170.2239,118.0077,169.5051,117.939,169.0262,118.4494,168.3002,118.3635,167.7677,118.7444,167.1875,119.0104,167.1875,119.7829,156.9444,118.9597,146.7014,119.1201,136.4583,119.3632,126.2153,119.444,115.9722,119.0063,105.7292,119.0104,105.7673,119.1026,105.0639,118.5827,104.5884,118.6135,104.0342,118.454,103.4312,118.1767,102.7829,117.79,102.9795,117.8715,102.3838,117.1366,102.0855,116.5249,101.8513,115.9397,101.7877,115.4252,101.5625,114.8438,101.4943,114.8438,101.7991,108.6003,101.5018,102.3568,101.4434,96.1133,101.6418,89.8698,101.5625,83.6263,101.3486,83.5377,101.64,82.9681,102.2588,82.534,102.4345,81.9164,102.7744,81.3669,102.7829,80.68,102.7401,80.5768,103.4146,80.5383,104.0399,80.3813,104.4879,79.7962,105.1272,79.673,105.7292,79.4596" style="stroke:#333333;stroke-width:1.0416666666666667;"/><text fill="#2E2E2E" font-family="&quot;Segoe Print&quot;" font-size="12.5" lengthAdjust="spacing" textLength="44.7917" x="114.0625" y="103.5624">Cliente</text><polygon fill="none" points="105.7292,495.8008,105.7292,496.0197,115.9722,495.3692,126.2153,496.0021,136.4583,496.2171,146.7014,495.0577,156.9444,495.7198,167.1875,495.8008,167.1308,495.664,167.7258,495.9218,168.357,496.2671,168.8634,496.3112,169.6181,496.9547,170.1338,497.0212,169.9316,496.9374,170.3144,497.5841,170.7605,498.2571,170.8385,498.7775,171.132,499.3873,171.3542,499.9674,171.3431,499.9674,171.4162,506.2109,171.4372,512.4544,171.5575,518.6979,171.5872,524.9414,171.3542,531.1849,171.5721,531.2752,171.1918,531.808,171.0147,532.425,170.8472,533.046,170.1465,533.4461,170.1338,534.1312,170.2239,534.3488,169.5051,534.2801,169.0262,534.7906,168.3002,534.7046,167.7677,535.0855,167.1875,535.3516,167.1875,536.1241,156.9444,535.3008,146.7014,535.4613,136.4583,535.7043,126.2153,535.7851,115.9722,535.3475,105.7292,535.3516,105.7673,535.4437,105.0639,534.9239,104.5884,534.9546,104.0342,534.7952,103.4312,534.5179,102.7829,534.1312,102.9795,534.2126,102.3838,533.4777,102.0855,532.866,101.8513,532.2808,101.7877,531.7663,101.5625,531.1849,101.4943,531.1849,101.7991,524.9414,101.5018,518.6979,101.4434,512.4544,101.6418,506.2109,101.5625,499.9674,101.3486,499.8788,101.64,499.3092,102.2588,498.8752,102.4345,498.2576,102.7744,497.708,102.7829,497.0212,102.7401,496.9179,103.4146,496.8795,104.0399,496.7224,104.4879,496.1374,105.1272,496.0141,105.7292,495.8008" style="stroke:#333333;stroke-width:1.0416666666666667;"/><text fill="#2E2E2E" font-family="&quot;Segoe Print&quot;" font-size="12.5" lengthAdjust="spacing" textLength="44.7917" x="114.0625" y="519.9036">Cliente</text><polygon fill="none" points="269.2708,79.4596,269.2708,79.6786,279.2411,79.0281,289.2113,79.661,299.1815,79.876,309.1518,78.7165,319.122,79.3787,329.0923,79.0154,339.0625,79.4596,339.0115,79.3366,339.6427,79.6818,340.1491,79.726,340.9038,80.3695,341.3358,80.2338,342.0088,80.68,341.9453,80.6537,342.3914,81.3267,342.4694,81.8471,342.7629,82.4569,342.9748,83.0328,343.2292,83.6263,343.2912,83.6263,343.3122,89.8698,343.4325,96.1133,343.4622,102.3568,343.465,108.6003,343.2292,114.8438,343.3108,114.8776,343.1338,115.4946,342.9663,116.1156,342.2656,116.5157,342.4705,117.2909,342.0088,117.79,341.9694,117.6949,341.4905,118.2053,340.7645,118.1194,340.2319,118.5003,339.7503,119.0042,339.0625,119.0104,339.0625,118.9597,329.0923,119.1201,319.122,119.3632,309.1518,119.444,299.1815,119.0063,289.2113,119.3096,279.2411,118.4141,269.2708,119.0104,269.3086,119.1016,268.7544,118.9422,268.1514,118.6649,267.5845,118.4748,266.8496,117.8791,266.3246,117.79,266.1153,117.7034,265.8811,117.1182,265.8175,116.6037,265.5293,115.9961,265.5668,115.5235,265.1042,114.8438,265.0435,114.8438,264.9851,108.6003,265.1834,102.3568,264.8726,96.1133,264.9239,89.8698,265.1042,83.6263,265.3123,83.7125,265.488,83.0949,265.8279,82.5454,265.7332,81.8158,266.1829,81.3117,266.3246,80.68,266.403,80.8694,266.851,80.2844,267.4903,80.1611,268.1091,79.9882,268.7682,79.9128,269.2708,79.4596" style="stroke:#333333;stroke-width:1.0416666666666667;"/><text fill="#2E2E2E" font-family="&quot;Segoe Print&quot;" font-size="12.5" lengthAdjust="spacing" textLength="53.125" x="277.6042" y="103.5624">Servidor</text><polygon fill="none" points="269.2708,495.8008,269.2708,496.0197,279.2411,495.3692,289.2113,496.0021,299.1815,496.2171,309.1518,495.0577,319.122,495.7198,329.0923,495.3565,339.0625,495.8008,339.0115,495.6778,339.6427,496.023,340.1491,496.0672,340.9038,496.7106,341.3358,496.5749,342.0088,497.0212,341.9453,496.9949,342.3914,497.6678,342.4694,498.1883,342.7629,498.798,342.9748,499.3739,343.2292,499.9674,343.2912,499.9674,343.3122,506.2109,343.4325,512.4544,343.4622,518.6979,343.465,524.9414,343.2292,531.1849,343.3108,531.2187,343.1338,531.8358,342.9663,532.4567,342.2656,532.8568,342.4705,533.6321,342.0088,534.1312,341.9694,534.0361,341.4905,534.5465,340.7645,534.4605,340.2319,534.8414,339.7503,535.3454,339.0625,535.3516,339.0625,535.3008,329.0923,535.4613,319.122,535.7043,309.1518,535.7851,299.1815,535.3475,289.2113,535.6507,279.2411,534.7553,269.2708,535.3516,269.3086,535.4428,268.7544,535.2833,268.1514,535.006,267.5845,534.816,266.8496,534.2203,266.3246,534.1312,266.1153,534.0445,265.8811,533.4593,265.8175,532.9448,265.5293,532.3373,265.5668,531.8647,265.1042,531.1849,265.0435,531.1849,264.9851,524.9414,265.1834,518.6979,264.8726,512.4544,264.9239,506.2109,265.1042,499.9674,265.3123,500.0537,265.488,499.4361,265.8279,498.8865,265.7332,498.1569,266.1829,497.6528,266.3246,497.0212,266.403,497.2106,266.851,496.6255,267.4903,496.5023,268.1091,496.3294,268.7682,496.2539,269.2708,495.8008" style="stroke:#333333;stroke-width:1.0416666666666667;"/><text fill="#2E2E2E" font-family="&quot;Segoe Print&quot;" font-size="12.5" lengthAdjust="spacing" textLength="53.125" x="277.6042" y="519.9036">Servidor</text><polygon fill="#333333" points="291.6667,157.5195,291.6938,157.5873,293.6966,158.2193,295.8583,159.2485,297.9682,160.1484,299.908,160.6229,302.0833,161.6862,302.0733,161.6611,299.945,162.382,297.8672,163.2292,295.8245,164.1642,293.6608,164.7966,291.6667,165.8529,291.8026,165.9888,292.3453,164.8648,293.2848,164.1376,294.2727,163.4589,294.9789,162.4985,295.8333,161.6862,295.8501,161.703,294.9922,160.845,294.2105,160.0634,293.392,159.2449,292.6438,158.4967,291.6667,157.5195" style="stroke:#333333;stroke-width:1.0416666666666667;"/><path d="M136.4583,161.6862 L136.4583,161.9781 L146.5495,161.1108 L156.6406,161.9547 L166.7318,162.2413 L176.8229,160.6954 L186.9141,161.5783 L197.0052,161.0938 L207.0964,161.1536 L217.1875,161.5915 L227.2786,160.726 L237.3698,162.4551 L247.4609,160.8108 L257.5521,161.4115 L267.6432,162.2861 L277.7344,161.5671 L287.8255,161.781 L297.9167,161.6862 " fill="none" style="stroke:#333333;stroke-width:3.125;"/><text fill="#2E2E2E" font-family="&quot;Segoe Print&quot;" font-size="12.5" lengthAdjust="spacing" textLength="68.75" x="148.9583" y="151.4465">ClientHello</text><polygon fill="#333333" points="147.9167,197.0703,147.9438,197.1381,145.7799,197.7701,143.7749,198.7993,141.7182,199.6992,139.4913,200.1737,137.5,201.237,137.49,201.2119,139.5283,201.9328,141.6172,202.78,143.7412,203.715,145.7442,204.3474,147.9167,205.4036,148.0526,205.5396,146.9286,204.4156,146.2014,203.6884,145.5227,203.0097,144.5623,202.0493,143.75,201.237,143.7668,201.2537,144.5755,200.3958,145.4605,199.6141,146.3087,198.7957,147.2271,198.0474,147.9167,197.0703" style="stroke:#333333;stroke-width:1.0416666666666667;"/><path d="M141.6667,201.237 L141.6667,201.5289 L151.7578,200.6615 L161.849,201.5054 L171.9401,201.7921 L182.0313,200.2462 L192.1224,201.129 L202.2135,200.6446 L212.3047,200.7043 L222.3958,201.1423 L232.487,200.2767 L242.5781,202.0059 L252.6693,200.3616 L262.7604,200.9623 L272.8516,201.8369 L282.9427,201.1178 L293.0339,201.3318 L303.125,201.237 " fill="none" style="stroke:#333333;stroke-width:3.125;"/><text fill="#2E2E2E" font-family="&quot;Segoe Print&quot;" font-size="12.5" lengthAdjust="spacing" textLength="73.9583" x="159.375" y="190.9973">ServerHello</text><polygon fill="#333333" points="147.9167,236.6211,147.9438,236.6889,145.7799,237.3209,143.7749,238.3501,141.7182,239.2499,139.4913,239.7244,137.5,240.7878,137.49,240.7627,139.5283,241.4836,141.6172,242.3308,143.7412,243.2658,145.7442,243.8982,147.9167,244.9544,148.0526,245.0904,146.9286,243.9663,146.2014,243.2392,145.5227,242.5605,144.5623,241.6,143.75,240.7878,143.7668,240.8045,144.5755,239.9466,145.4605,239.1649,146.3087,238.3465,147.2271,237.5982,147.9167,236.6211" style="stroke:#333333;stroke-width:1.0416666666666667;"/><path d="M141.6667,240.7878 L141.6667,241.0797 L151.7578,240.2123 L161.849,241.0562 L171.9401,241.3429 L182.0313,239.7969 L192.1224,240.6798 L202.2135,240.1954 L212.3047,240.2551 L222.3958,240.6931 L232.487,239.8275 L242.5781,241.5567 L252.6693,239.9124 L262.7604,240.5131 L272.8516,241.3877 L282.9427,240.6686 L293.0339,240.8825 L303.125,240.7878 " fill="none" style="stroke:#333333;stroke-width:3.125;"/><text fill="#2E2E2E" font-family="&quot;Segoe Print&quot;" font-size="12.5" lengthAdjust="spacing" textLength="66.6667" x="159.375" y="230.5481">Certificate</text><polygon fill="#333333" points="147.9167,276.1719,147.9438,276.2396,145.7799,276.8716,143.7749,277.9009,141.7182,278.8007,139.4913,279.2752,137.5,280.3385,137.49,280.3135,139.5283,281.0344,141.6172,281.8816,143.7412,282.8166,145.7442,283.449,147.9167,284.5052,148.0526,284.6411,146.9286,283.5171,146.2014,282.79,145.5227,282.1113,144.5623,281.1508,143.75,280.3385,143.7668,280.3553,144.5755,279.4974,145.4605,278.7157,146.3087,277.8973,147.2271,277.149,147.9167,276.1719" style="stroke:#333333;stroke-width:1.0416666666666667;"/><path d="M141.6667,280.3385 L141.6667,280.6305 L151.7578,279.7631 L161.849,280.607 L171.9401,280.8937 L182.0313,279.3477 L192.1224,280.2306 L202.2135,279.7462 L212.3047,279.8059 L222.3958,280.2439 L232.487,279.3783 L242.5781,281.1075 L252.6693,279.4632 L262.7604,280.0639 L272.8516,280.9385 L282.9427,280.2194 L293.0339,280.4333 L303.125,280.3385 " fill="none" style="stroke:#333333;stroke-width:3.125;"/><text fill="#2E2E2E" font-family="&quot;Segoe Print&quot;" font-size="12.5" lengthAdjust="spacing" textLength="108.3333" x="159.375" y="270.0989">ServerHelloDone</text><polygon fill="#333333" points="291.6667,315.7227,291.6938,315.7904,293.6966,316.4224,295.8583,317.4516,297.9682,318.3515,299.908,318.826,302.0833,319.8893,302.0733,319.8643,299.945,320.5852,297.8672,321.4324,295.8245,322.3674,293.6608,322.9998,291.6667,324.056,291.8026,324.1919,292.3453,323.0679,293.2848,322.3408,294.2727,321.662,294.9789,320.7016,295.8333,319.8893,295.8501,319.9061,294.9922,319.0481,294.2105,318.2665,293.392,317.448,292.6438,316.6998,291.6667,315.7227" style="stroke:#333333;stroke-width:1.0416666666666667;"/><path d="M136.4583,319.8893 L136.4583,320.1812 L146.5495,319.3139 L156.6406,320.1578 L166.7318,320.4444 L176.8229,318.8985 L186.9141,319.7814 L197.0052,319.297 L207.0964,319.3567 L217.1875,319.7947 L227.2786,318.9291 L237.3698,320.6583 L247.4609,319.0139 L257.5521,319.6146 L267.6432,320.4892 L277.7344,319.7702 L287.8255,319.9841 L297.9167,319.8893 " fill="none" style="stroke:#333333;stroke-width:3.125;"/><text fill="#2E2E2E" font-family="&quot;Segoe Print&quot;" font-size="12.5" lengthAdjust="spacing" textLength="121.875" x="148.9583" y="309.6497">ClientKeyExchange</text><polygon fill="#333333" points="291.6667,355.2734,291.6938,355.3412,293.6966,355.9732,295.8583,357.0024,297.9682,357.9023,299.908,358.3768,302.0833,359.4401,302.0733,359.4151,299.945,360.1359,297.8672,360.9831,295.8245,361.9181,293.6608,362.5505,291.6667,363.6068,291.8026,363.7427,292.3453,362.6187,293.2848,361.8915,294.2727,361.2128,294.9789,360.2524,295.8333,359.4401,295.8501,359.4569,294.9922,358.5989,294.2105,357.8173,293.392,356.9988,292.6438,356.2506,291.6667,355.2734" style="stroke:#333333;stroke-width:1.0416666666666667;"/><path d="M136.4583,359.4401 L136.4583,359.732 L146.5495,358.8647 L156.6406,359.7086 L166.7318,359.9952 L176.8229,358.4493 L186.9141,359.3322 L197.0052,358.8478 L207.0964,358.9075 L217.1875,359.3454 L227.2786,358.4799 L237.3698,360.2091 L247.4609,358.5647 L257.5521,359.1654 L267.6432,360.04 L277.7344,359.321 L287.8255,359.5349 L297.9167,359.4401 " fill="none" style="stroke:#333333;stroke-width:3.125;"/><text fill="#2E2E2E" font-family="&quot;Segoe Print&quot;" font-size="12.5" lengthAdjust="spacing" textLength="123.9583" x="148.9583" y="349.2004">ChangeCipherSpec</text><polygon fill="#333333" points="291.6667,394.8242,291.6938,394.892,293.6966,395.524,295.8583,396.5532,297.9682,397.4531,299.908,397.9276,302.0833,398.9909,302.0733,398.9658,299.945,399.6867,297.8672,400.5339,295.8245,401.4689,293.6608,402.1013,291.6667,403.1576,291.8026,403.2935,292.3453,402.1695,293.2848,401.4423,294.2727,400.7636,294.9789,399.8032,295.8333,398.9909,295.8501,399.0076,294.9922,398.1497,294.2105,397.3681,293.392,396.5496,292.6438,395.8014,291.6667,394.8242" style="stroke:#333333;stroke-width:1.0416666666666667;"/><path d="M136.4583,398.9909 L136.4583,399.2828 L146.5495,398.4154 L156.6406,399.2593 L166.7318,399.546 L176.8229,398.0001 L186.9141,398.883 L197.0052,398.3985 L207.0964,398.4582 L217.1875,398.8962 L227.2786,398.0307 L237.3698,399.7598 L247.4609,398.1155 L257.5521,398.7162 L267.6432,399.5908 L277.7344,398.8718 L287.8255,399.0857 L297.9167,398.9909 " fill="none" style="stroke:#333333;stroke-width:3.125;"/><text fill="#2E2E2E" font-family="&quot;Segoe Print&quot;" font-size="12.5" lengthAdjust="spacing" textLength="54.1667" x="148.9583" y="388.7512">Finished</text><polygon fill="#333333" points="147.9167,434.375,147.9438,434.4428,145.7799,435.0748,143.7749,436.104,141.7182,437.0039,139.4913,437.4783,137.5,438.5417,137.49,438.5166,139.5283,439.2375,141.6172,440.0847,143.7412,441.0197,145.7442,441.6521,147.9167,442.7083,148.0526,442.8443,146.9286,441.7203,146.2014,440.9931,145.5227,440.3144,144.5623,439.3539,143.75,438.5417,143.7668,438.5584,144.5755,437.7005,145.4605,436.9188,146.3087,436.1004,147.2271,435.3521,147.9167,434.375" style="stroke:#333333;stroke-width:1.0416666666666667;"/><path d="M141.6667,438.5417 L141.6667,438.8336 L151.7578,437.9662 L161.849,438.8101 L171.9401,439.0968 L182.0313,437.5508 L192.1224,438.4337 L202.2135,437.9493 L212.3047,438.009 L222.3958,438.447 L232.487,437.5814 L242.5781,439.3106 L252.6693,437.6663 L262.7604,438.267 L272.8516,439.1416 L282.9427,438.4225 L293.0339,438.6364 L303.125,438.5417 " fill="none" style="stroke:#333333;stroke-width:3.125;"/><text fill="#2E2E2E" font-family="&quot;Segoe Print&quot;" font-size="12.5" lengthAdjust="spacing" textLength="123.9583" x="159.375" y="428.302">ChangeCipherSpec</text><polygon fill="#333333" points="147.9167,473.9258,147.9438,473.9935,145.7799,474.6255,143.7749,475.6548,141.7182,476.5546,139.4913,477.0291,137.5,478.0924,137.49,478.0674,139.5283,478.7883,141.6172,479.6355,143.7412,480.5705,145.7442,481.2029,147.9167,482.2591,148.0526,482.395,146.9286,481.271,146.2014,480.5439,145.5227,479.8652,144.5623,478.9047,143.75,478.0924,143.7668,478.1092,144.5755,477.2513,145.4605,476.4696,146.3087,475.6512,147.2271,474.9029,147.9167,473.9258" style="stroke:#333333;stroke-width:1.0416666666666667;"/><path d="M141.6667,478.0924 L141.6667,478.3844 L151.7578,477.517 L161.849,478.3609 L171.9401,478.6476 L182.0313,477.1016 L192.1224,477.9845 L202.2135,477.5001 L212.3047,477.5598 L222.3958,477.9978 L232.487,477.1322 L242.5781,478.8614 L252.6693,477.2171 L262.7604,477.8178 L272.8516,478.6924 L282.9427,477.9733 L293.0339,478.1872 L303.125,478.0924 " fill="none" style="stroke:#333333;stroke-width:3.125;"/><text fill="#2E2E2E" font-family="&quot;Segoe Print&quot;" font-size="12.5" lengthAdjust="spacing" textLength="54.1667" x="159.375" y="467.8528">Finished</text><!--SRC=[ZOz13e8m44NtFSLu04nqoS8DQanqXnTeu6idbBOfWyhjHG8hXRZz_-NDdvKOrA2cWXIcItmhbXrKKx4BEkgQZ7RbCx8874bieOJ5WgwNd3RhBPtwkZ6w0kLS1yitBdJfbL94cMKu0IKxoX4VNFgOZk49rleUcV8FC-Bf428k8XcY3AS4VrZstc5vpndTuLNqhzxdmQ7DE1Z4FA2Ouuxik34ePwT_Utvoa-SD]--></g></svg>