<?xml version="1.0" encoding="UTF-8" standalone="no"?><svg xmlns="http://www.w3.org/2000/svg" xmlns:xlink="http://www.w3.org/1999/xlink" contentStyleType="text/css" height="709.375px" preserveAspectRatio="none" style="width:842px;height:709px;" version="1.1" viewBox="0 0 842 709" width="842.7083px" zoomAndPan="magnify"><defs/><g><polygon fill="none" points="333.3281,20.8333,333.3281,21.0523,343.8099,20.4017,354.2917,21.0347,364.7734,21.2497,375.2552,20.0902,385.737,20.7524,396.2188,20.3891,406.7005,20.4339,417.1823,20.7623,427.6641,20.1132,438.1458,21.41,448.6276,20.1768,459.1094,20.6273,469.5911,21.2833,480.0729,20.744,490.5547,20.9044,501.0365,20.8333,501.0322,20.8231,501.6494,21.1347,502.2467,21.3982,502.882,21.7535,503.4826,22.0249,503.9827,22.0537,504.2006,22.144,504.3085,22.6768,504.6196,23.2938,504.9402,23.9148,504.7277,24.3149,505.2031,25,505.4387,25,505.1002,32.7669,505.3885,40.5339,505.0312,48.3008,505.1793,56.0677,505.2031,63.8346,505.441,63.9332,504.9434,64.4174,504.7487,65.0271,504.5795,65.6474,504.3603,66.247,503.9827,66.7809,503.9822,66.7797,503.4316,67.1171,502.7282,67.0854,502.2528,67.6044,501.6986,67.9331,501.0365,68.0013,501.0365,68.4644,490.5547,68.6399,480.0729,67.4981,469.5911,67.3219,459.1094,67.354,448.6276,67.94,438.1458,67.7966,427.6641,68.7111,417.1823,67.8193,406.7005,67.644,396.2188,68.2391,385.737,67.3067,375.2552,67.4605,364.7734,68.6773,354.2917,68.4551,343.8099,68.7664,333.3281,68.0013,333.2854,67.8981,332.7813,67.8596,332.2281,67.7025,331.4976,67.1175,330.9584,66.9942,330.3818,66.7809,330.4223,66.7977,330.3468,66.2783,329.8923,65.6018,329.798,65.0746,329.2279,64.3503,329.1615,63.8346,328.9263,63.8346,329.3363,56.0677,328.9125,48.3008,329.3382,40.5339,329.2332,32.7669,329.1615,25,329.0755,24.9644,329.292,24.3637,329.7968,23.8824,329.7977,23.1925,330.3276,22.7216,330.3818,22.0537,330.3084,21.8764,331.0531,22.0077,331.6247,21.7209,332.1822,21.4001,332.7451,21.0926,333.3281,20.8333" style="stroke:#4D4D4D;stroke-width:1.0416666666666667;"/><text fill="#2E2E2E" font-family="&quot;Segoe Print&quot;" font-size="20.8333" font-weight="bold" lengthAdjust="spacing" textLength="153.125" x="340.6198" y="51.6296">Web of Trust</text><!--entity A--><g id="elem_A"><polygon fill="none" points="401.2648,96.07,400.0433,97.739,398.5985,100.1837,396.5321,101.8311,394.3607,102.7321,392.6294,102.8103,390.4041,101.6835,388.3045,100.9475,386.7108,99.453,385.8749,97.742,385.3791,96.3797,384.8934,94.6003,384.1051,93.0691,384.7109,91.574,385.2416,89.9363,387.2334,88.6411,388.6346,86.9605,390.369,86.4024,392.431,85.9218,395.0751,86.2073,396.5234,86.8903,398.2072,87.1999,400.2545,89.2975,400.9682,91.5119,401.2783,93.0228,400.927,95.5126" style="stroke:#333333;stroke-width:1.0416666666666667;"/><path d="M392.8854,102.3763 L393.08,102.3763 L392.5018,108.0013 L393.0644,113.6263 L393.2555,119.2513 L392.2249,124.8763 L392.8854,130.5013 M379.3438,110.7096 L379.3438,110.6377 L384.7604,110.3147 L390.1771,110.3545 L395.5938,110.6465 L401.0104,110.0695 L406.4271,110.7096 M392.8854,130.5013 L393.2728,130.837 L389.7361,133.2441 L387.3304,136.6314 L385.0627,140.1382 L381.9921,142.9493 L379.3438,146.1263 M392.8854,130.5013 L392.9332,130.5427 L395.5714,133.6069 L398.427,136.8596 L401.1777,140.0213 L404.1286,143.3565 L406.4271,146.1263 " fill="none" style="stroke:#333333;stroke-width:1.0416666666666667;"/><text fill="#2E2E2E" font-family="&quot;Segoe Print&quot;" font-size="12.5" lengthAdjust="spacing" textLength="30.2083" x="377.7813" y="165.0208">Alice</text></g><!--entity B--><g id="elem_B"><polygon fill="none" points="74.1815,273.122,72.9599,274.7911,71.5151,277.2357,69.4488,278.8832,67.2774,279.7842,65.546,279.8623,63.3208,278.7356,61.2211,277.9995,59.6275,276.505,58.7915,274.7941,58.2958,273.4318,57.8101,271.6524,57.0218,270.1212,57.6276,268.6261,58.1583,266.9884,60.15,265.6931,61.5513,264.0126,63.2857,263.4545,65.3476,262.9739,67.9918,263.2594,69.44,263.9424,71.1238,264.252,73.1712,266.3496,73.8849,268.564,74.1949,270.0749,73.8437,272.5647" style="stroke:#333333;stroke-width:1.0416666666666667;"/><path d="M65.8021,279.4284 L65.9967,279.4284 L65.4185,285.0534 L65.9811,290.6784 L66.1722,296.3034 L65.1415,301.9284 L65.8021,307.5534 M52.2604,287.7617 L52.2604,287.6898 L57.6771,287.3668 L63.0938,287.4066 L68.5104,287.6986 L73.9271,287.1216 L79.3438,287.7617 M65.8021,307.5534 L66.1895,307.8891 L62.6527,310.2962 L60.247,313.6835 L57.9793,317.1903 L54.9087,320.0014 L52.2604,323.1784 M65.8021,307.5534 L65.8498,307.5948 L68.4881,310.659 L71.3437,313.9116 L74.0944,317.0734 L77.0452,320.4086 L79.3438,323.1784 " fill="none" style="stroke:#333333;stroke-width:1.0416666666666667;"/><text fill="#2E2E2E" font-family="&quot;Segoe Print&quot;" font-size="12.5" lengthAdjust="spacing" textLength="25" x="53.3021" y="342.0728">Bob</text></g><!--entity C--><g id="elem_C"><polygon fill="none" points="247.0981,450.1741,245.8766,451.8432,244.4318,454.2878,242.3654,455.9353,240.194,456.8362,238.4627,456.9144,236.2375,455.7877,234.1378,455.0516,232.5442,453.5571,231.7082,451.8462,231.2124,450.4839,230.7268,448.7045,229.9384,447.1733,230.5442,445.6782,231.075,444.0405,233.0667,442.7452,234.468,441.0646,236.2024,440.5066,238.2643,440.026,240.9084,440.3115,242.3567,440.9945,244.0405,441.3041,246.0878,443.4017,246.8015,445.616,247.1116,447.1269,246.7604,449.6167" style="stroke:#333333;stroke-width:1.0416666666666667;"/><path d="M238.7188,456.4805 L238.9134,456.4805 L238.3351,462.1055 L238.8977,467.7305 L239.0888,473.3555 L238.0582,478.9805 L238.7188,484.6055 M225.1771,464.8138 L225.1771,464.7418 L230.5938,464.4189 L236.0104,464.4587 L241.4271,464.7507 L246.8438,464.1736 L252.2604,464.8138 M238.7188,484.6055 L239.1061,484.9412 L235.5694,487.3483 L233.1637,490.7355 L230.896,494.2424 L227.8254,497.0535 L225.1771,500.2305 M238.7188,484.6055 L238.7665,484.6468 L241.4047,487.7111 L244.2603,490.9637 L247.0111,494.1255 L249.9619,497.4606 L252.2604,500.2305 " fill="none" style="stroke:#333333;stroke-width:1.0416666666666667;"/><text fill="#2E2E2E" font-family="&quot;Segoe Print&quot;" font-size="12.5" lengthAdjust="spacing" textLength="33.3333" x="222.0521" y="519.1249">Carol</text></g><!--entity D--><g id="elem_D"><polygon fill="none" points="301.2648,627.2262,300.0433,628.8953,298.5985,631.3399,296.5321,632.9874,294.3607,633.8883,292.6294,633.9665,290.4041,632.8398,288.3045,632.1037,286.7108,630.6092,285.8749,628.8983,285.3791,627.536,284.8934,625.7566,284.1051,624.2253,284.7109,622.7303,285.2416,621.0926,287.2334,619.7973,288.6346,618.1167,290.369,617.5586,292.431,617.078,295.0751,617.3636,296.5234,618.0466,298.2072,618.3562,300.2545,620.4537,300.9682,622.6681,301.2783,624.179,300.927,626.6688" style="stroke:#333333;stroke-width:1.0416666666666667;"/><path d="M292.8854,633.5326 L293.08,633.5326 L292.5018,639.1576 L293.0644,644.7826 L293.2555,650.4076 L292.2249,656.0326 L292.8854,661.6576 M279.3438,641.8659 L279.3438,641.7939 L284.7604,641.471 L290.1771,641.5108 L295.5938,641.8028 L301.0104,641.2257 L306.4271,641.8659 M292.8854,661.6576 L293.2728,661.9933 L289.7361,664.4003 L287.3304,667.7876 L285.0627,671.2945 L281.9921,674.1055 L279.3438,677.2826 M292.8854,661.6576 L292.9332,661.6989 L295.5714,664.7632 L298.427,668.0158 L301.1777,671.1776 L304.1286,674.5127 L306.4271,677.2826 " fill="none" style="stroke:#333333;stroke-width:1.0416666666666667;"/><text fill="#2E2E2E" font-family="&quot;Segoe Print&quot;" font-size="12.5" lengthAdjust="spacing" textLength="32.2917" x="276.7396" y="696.177">Dave</text></g><!--entity M--><g id="elem_M"><polygon fill="none" points="487.7231,450.1741,486.5016,451.8432,485.0568,454.2878,482.9904,455.9353,480.819,456.8362,479.0877,456.9144,476.8625,455.7877,474.7628,455.0516,473.1692,453.5571,472.3332,451.8462,471.8374,450.4839,471.3518,448.7045,470.5634,447.1733,471.1692,445.6782,471.7,444.0405,473.6917,442.7452,475.093,441.0646,476.8274,440.5066,478.8893,440.026,481.5334,440.3115,482.9817,440.9945,484.6655,441.3041,486.7128,443.4017,487.4265,445.616,487.7366,447.1269,487.3854,449.6167" style="stroke:#333333;stroke-width:1.0416666666666667;"/><path d="M479.3438,456.4805 L479.5384,456.4805 L478.9601,462.1055 L479.5227,467.7305 L479.7138,473.3555 L478.6832,478.9805 L479.3438,484.6055 M465.8021,464.8138 L465.8021,464.7418 L471.2188,464.4189 L476.6354,464.4587 L482.0521,464.7507 L487.4688,464.1736 L492.8854,464.8138 M479.3438,484.6055 L479.7311,484.9412 L476.1944,487.3483 L473.7887,490.7355 L471.521,494.2424 L468.4504,497.0535 L465.8021,500.2305 M479.3438,484.6055 L479.3915,484.6468 L482.0297,487.7111 L484.8853,490.9637 L487.6361,494.1255 L490.5869,497.4606 L492.8854,500.2305 " fill="none" style="stroke:#333333;stroke-width:1.0416666666666667;"/><text fill="#2E2E2E" font-family="&quot;Segoe Print&quot;" font-size="12.5" lengthAdjust="spacing" textLength="44.7917" x="456.9479" y="519.1249">Mallory</text></g><!--entity T--><g id="elem_T"><polygon fill="none" points="558.5565,273.122,557.3349,274.7911,555.8901,277.2357,553.8238,278.8832,551.6524,279.7842,549.921,279.8623,547.6958,278.7356,545.5961,277.9995,544.0025,276.505,543.1665,274.7941,542.6708,273.4318,542.1851,271.6524,541.3968,270.1212,542.0026,268.6261,542.5333,266.9884,544.525,265.6931,545.9263,264.0126,547.6607,263.4545,549.7226,262.9739,552.3668,263.2594,553.815,263.9424,555.4988,264.252,557.5462,266.3496,558.2599,268.564,558.5699,270.0749,558.2187,272.5647" style="stroke:#333333;stroke-width:1.0416666666666667;"/><path d="M550.1771,279.4284 L550.3717,279.4284 L549.7935,285.0534 L550.3561,290.6784 L550.5472,296.3034 L549.5165,301.9284 L550.1771,307.5534 M536.6354,287.7617 L536.6354,287.6898 L542.0521,287.3668 L547.4688,287.4066 L552.8854,287.6986 L558.3021,287.1216 L563.7188,287.7617 M550.1771,307.5534 L550.5645,307.8891 L547.0277,310.2962 L544.622,313.6835 L542.3543,317.1903 L539.2837,320.0014 L536.6354,323.1784 M550.1771,307.5534 L550.2248,307.5948 L552.8631,310.659 L555.7187,313.9116 L558.4694,317.0734 L561.4202,320.4086 L563.7188,323.1784 " fill="none" style="stroke:#333333;stroke-width:1.0416666666666667;"/><text fill="#2E2E2E" font-family="&quot;Segoe Print&quot;" font-size="12.5" lengthAdjust="spacing" textLength="34.375" x="532.9896" y="342.0728">Trent</text></g><!--entity P--><g id="elem_P"><polygon fill="none" points="604.3898,627.2262,603.1683,628.8953,601.7235,631.3399,599.6571,632.9874,597.4857,633.8883,595.7544,633.9665,593.5291,632.8398,591.4295,632.1037,589.8358,630.6092,588.9999,628.8983,588.5041,627.536,588.0184,625.7566,587.2301,624.2253,587.8359,622.7303,588.3666,621.0926,590.3584,619.7973,591.7596,618.1167,593.494,617.5586,595.556,617.078,598.2001,617.3636,599.6484,618.0466,601.3322,618.3562,603.3795,620.4537,604.0932,622.6681,604.4033,624.179,604.052,626.6688" style="stroke:#333333;stroke-width:1.0416666666666667;"/><path d="M596.0104,633.5326 L596.205,633.5326 L595.6268,639.1576 L596.1894,644.7826 L596.3805,650.4076 L595.3499,656.0326 L596.0104,661.6576 M582.4688,641.8659 L582.4688,641.7939 L587.8854,641.471 L593.3021,641.5108 L598.7188,641.8028 L604.1354,641.2257 L609.5521,641.8659 M596.0104,661.6576 L596.3978,661.9933 L592.8611,664.4003 L590.4554,667.7876 L588.1877,671.2945 L585.1171,674.1055 L582.4688,677.2826 M596.0104,661.6576 L596.0582,661.6989 L598.6964,664.7632 L601.552,668.0158 L604.3027,671.1776 L607.2536,674.5127 L609.5521,677.2826 " fill="none" style="stroke:#333333;stroke-width:1.0416666666666667;"/><text fill="#2E2E2E" font-family="&quot;Segoe Print&quot;" font-size="12.5" lengthAdjust="spacing" textLength="39.5833" x="576.2188" y="696.177">Peggy</text></g><!--link A to B--><g id="link_A_B"><path d="M365.6042,133.9492 L365.6214,134.045 L361.7122,134.455 L357.904,135.4264 L354.0629,136.215 L350.1136,136.4024 L346.3141,137.422 L346.3071,137.3867 L344.0628,137.6699 L341.854,138.131 L339.6698,138.7157 L337.4007,138.8743 L335.2506,139.6298 L335.3043,139.8804 L332.8168,139.853 L330.4861,140.5574 L328.1746,141.351 L325.7517,141.6251 L323.3874,142.1725 L323.3945,142.2033 L320.8734,142.7367 L318.3846,143.4103 L315.8802,144.0163 L313.4055,144.7512 L310.834,145.0656 L310.9088,145.3671 L308.2829,146.0226 L305.6087,146.4836 L303.0052,147.2292 L300.405,147.9882 L297.6999,148.3245 L297.6136,148.0019 L295.06,149.3559 L292.2223,149.6479 L289.6006,150.7473 L286.7564,151.0151 L284.0946,151.9645 L284.0858,151.9341 L281.3965,153.1017 L278.5015,153.5576 L275.7279,154.4334 L272.9645,155.3446 L270.1276,156.0013 L270.1851,156.1852 L267.2832,156.8893 L264.4796,157.9077 L261.517,158.4177 L258.7916,159.686 L255.9084,160.4502 L255.99,160.6905 L253.1022,161.6203 L250.2549,162.6695 L247.2194,163.1642 L244.3218,164.0654 L241.5465,165.3266 L241.4468,165.0567 L238.6581,166.3649 L235.757,167.369 L233.0188,168.8141 L230.0025,169.5062 L227.1515,170.646 L227.092,170.4987 L224.3273,171.8996 L221.3084,172.6708 L218.4703,173.8898 L215.8089,175.5469 L212.8327,176.4238 L212.9143,176.6083 L210.1436,177.9851 L207.1192,178.7883 L204.4127,180.31 L201.6369,181.6752 L198.6997,182.6755 L198.6039,182.4789 L195.9127,183.9839 L193.1901,185.4244 L190.5292,186.9914 L187.6287,188.0666 L184.862,189.4166 L184.9636,189.6051 L182.0537,190.6401 L179.34,192.0389 L176.9129,193.9693 L173.9581,194.9211 L171.4291,196.6624 L171.5505,196.8643 L168.8946,198.2976 L166.1977,199.6625 L163.5935,201.1816 L161.2036,203.0572 L158.5104,204.4284 L158.4317,204.3144 L156.5691,206.1021 L154.1709,207.1143 L152.3818,209.0084 L150.2497,210.4059 L148.0252,211.6697 L148.0958,211.7585 L146.0108,213.2964 L144.1782,215.1525 L142.1177,216.7211 L139.9617,218.1697 L137.8849,219.7179 L137.9674,219.8107 L135.8983,221.403 L134.2121,223.4261 L132.0928,224.9619 L130.1517,226.6981 L128.1521,228.3685 L127.9553,228.167 L126.1684,230.0439 L124.6187,232.1635 L122.7335,233.9397 L120.728,235.5928 L118.8893,237.4167 L118.7809,237.3142 L117.0696,239.1953 L115.1664,240.8949 L113.7909,243.0931 L112.1542,245.0446 L110.1593,246.6577 L110.3421,246.8188 L108.7737,248.7163 L106.8579,250.3075 L105.3088,252.2219 L103.5169,253.9224 L102.0246,255.8869 L102.1258,255.9708 L100.6172,257.7624 L99.2307,259.6552 L97.4567,261.2266 L95.9953,263.0573 L94.5478,264.8995 L94.7092,265.0264 L93.4031,266.7801 L91.6588,268.1894 L90.4236,269.9989 L89.1972,271.8153 L87.7917,273.4909 " fill="none" style="stroke:#333333;stroke-width:3.125;"/><polygon fill="#333333" points="370.7083,133.1263,370.7267,133.1969,368.6865,132.4696,366.7542,132.1563,364.7868,131.7082,362.7038,130.8167,360.7807,130.5389,360.765,130.517,361.6521,131.1054,362.6185,131.8043,363.6401,132.5801,364.4717,133.091,365.5693,133.9729,365.7255,134.0849,364.7046,134.8031,364.1399,135.8483,363.6308,136.9334,362.7979,137.7864,362.1353,138.7615,362.1483,138.7812,363.8438,137.6252,365.5986,136.5592,367.3247,135.4497,369.1054,134.4233,370.7083,133.1263" style="stroke:#333333;stroke-width:3.125;"/><polygon fill="#333333" points="84.8229,277.4284,84.8582,277.4923,86.549,276.3097,88.4467,275.5015,90.277,274.5714,91.8857,273.2403,93.8012,272.4643,93.7975,272.4376,92.6135,272.4796,91.4482,272.6564,90.296,272.9268,89.0989,272.8745,87.9646,273.2743,88.155,273.3007,87.5858,272.0769,87.5726,270.9302,87.6271,269.7929,87.2871,268.6009,87.1546,267.4376,87.1777,267.443,86.6775,269.4333,86.2823,271.448,85.8364,273.451,85.4873,275.4765,84.8229,277.4284" style="stroke:#333333;stroke-width:3.125;"/><text fill="#2E2E2E" font-family="&quot;Segoe Print&quot;" font-size="12.5" lengthAdjust="spacing" textLength="40.625" x="164.7604" y="222.2812">Confia</text></g><!--link A to C--><g id="link_A_C"><path d="M367.2083,148.3034 L367.2687,148.3797 L364.7037,150.0402 L362.4926,152.1481 L360.1662,154.1103 L357.4609,155.5935 L355.2801,157.7397 L355.2569,157.7123 L352.529,159.8061 L349.9181,162.0384 L347.3887,164.3671 L344.5787,166.3639 L342.1616,168.8255 L342.3343,169.0149 L339.2046,171.1275 L336.5792,173.793 L334.0153,176.5259 L331.0934,178.8664 L328.3598,181.4132 L328.3821,181.4356 L325.5537,184.1912 L322.8268,187.0487 L320.051,189.857 L317.3686,192.759 L314.3815,195.3555 L314.6123,195.5634 L311.8856,198.5958 L309.01,201.4941 L306.3524,204.5887 L303.7049,207.6925 L300.7338,210.5047 L300.4719,210.2977 L298.4182,213.9413 L295.5021,216.9031 L293.2416,220.3833 L290.3059,223.3297 L287.9237,226.7135 L287.8973,226.6959 L285.9158,230.3288 L283.3186,233.5494 L281.0848,237.0132 L278.8814,240.4975 L276.458,243.8345 L276.6277,243.9257 L274.5335,247.4107 L272.7294,251.0517 L270.456,254.4403 L268.8826,258.2053 L266.8438,261.7201 L267.0763,261.8217 L266.1283,263.8711 L265.2957,265.971 L263.9267,267.8364 L262.9509,269.8738 L262.3235,272.0633 L262.0547,271.9607 L261.4852,274.1825 L260.6129,276.2887 L260.1797,278.5626 L258.9967,280.5501 L258.2594,282.7078 L258.1087,282.6576 L257.6335,284.9192 L256.5143,286.966 L255.853,289.1655 L255.6399,291.5144 L254.6288,293.5972 L254.8224,293.6535 L254.3113,295.9077 L253.1978,297.9868 L252.8388,300.2852 L252.3154,302.5358 L251.409,304.6751 L251.197,304.6216 L250.7997,306.9063 L250.333,309.1734 L250.0027,311.475 L249.1419,313.6426 L248.5775,315.8851 L248.7867,315.9308 L247.8339,318.0875 L247.2848,320.3324 L247.3258,322.7062 L246.2805,324.8428 L246.1116,327.1707 L246.3432,327.2142 L245.7811,329.4494 L245.1406,331.6698 L244.6769,333.9235 L244.6221,336.2539 L243.9887,338.4757 L243.8519,338.4538 L243.8988,340.7725 L243.015,342.9424 L243.1895,345.2815 L242.7681,347.5253 L242.1862,349.7435 L242.2986,349.7586 L241.9069,351.9813 L241.9177,354.2581 L241.5648,356.486 L241.06,358.6934 L240.6814,360.9178 L240.8048,360.9316 L240.3755,363.116 L240.5192,365.3643 L240.0148,367.5404 L239.777,369.7462 L239.4517,371.9422 L239.1712,371.9169 L239.0694,374.089 L239.3055,376.2916 L239.0635,378.451 L238.6501,380.5949 L238.4744,382.7603 L238.3257,382.7498 L238.2239,384.8643 L237.8586,386.9601 L238.2175,389.1071 L238.2181,391.2289 L237.7271,393.3158 L237.9705,393.3266 L237.8693,397.3495 L237.3055,401.3518 L237.2299,405.3759 L236.8312,409.3855 L236.8313,413.4129 L236.9628,413.4147 L236.8959,417.0884 L236.9878,420.7642 L236.5762,424.4333 L236.5707,428.1078 L236.5833,431.7826 " fill="none" style="stroke:#333333;stroke-width:3.125;"/><polygon fill="#333333" points="371.2813,145.2096,371.2978,145.2807,369.2504,145.5359,367.3002,146.2077,365.3183,146.7438,363.2324,146.8337,361.2905,147.5413,361.2868,147.5146,362.4375,147.5566,363.6068,147.7334,364.7892,148.0039,365.9268,147.9515,367.1271,148.3513,367.3175,148.3777,366.7484,149.4885,366.7351,150.6765,366.7897,151.8739,366.4496,153.0165,366.3171,154.1879,366.3379,154.1994,367.3003,152.3869,368.357,150.6266,369.3683,148.8411,370.4664,147.1037,371.2813,145.2096" style="stroke:#333333;stroke-width:3.125;"/><polygon fill="#333333" points="236.6146,436.8659,236.6814,436.8951,237.3054,434.9285,238.3213,433.1333,239.2095,431.2823,239.6781,429.2477,240.7276,427.4672,240.7084,427.4483,239.7937,428.2012,238.9758,429.0498,238.2251,429.9648,237.2427,430.6508,236.5848,431.6576,236.72,431.7943,235.5929,430.6734,234.8604,429.9517,234.176,429.2786,233.2116,428.3222,232.3944,427.5148,232.416,427.5246,233.2283,429.3805,234.139,431.2808,235.0022,433.1596,235.9559,435.0793,236.6146,436.8659" style="stroke:#333333;stroke-width:3.125;"/><text fill="#2E2E2E" font-family="&quot;Segoe Print&quot;" font-size="12.5" lengthAdjust="spacing" textLength="40.625" x="273.0938" y="310.8124">Confia</text></g><!--link D to A--><g id="link_D_A"><path d="M315.7083,609.3971 L315.7997,609.4306 L316.4373,606.8489 L317.6106,604.4633 L318.6094,602.0139 L319.0347,599.3544 L320.2539,596.9857 L320.2196,596.9749 L320.8418,594.4445 L321.6371,591.9681 L322.5527,589.5294 L323.0536,586.961 L324.1354,584.5742 L324.3826,584.642 L324.5973,581.786 L325.5337,579.1278 L326.5581,576.4938 L327.0702,573.7193 L327.8518,571.0187 L327.8824,571.0267 L328.5551,568.2702 L329.367,565.5501 L330.1118,562.8124 L330.9846,560.1083 L331.4399,557.2949 L331.7417,557.3686 L333.1052,551.7973 L334.274,546.1784 L335.7278,540.6291 L337.1949,535.0831 L338.2389,529.4338 L337.9131,529.361 L339.8074,523.85 L340.6288,518.0994 L342.266,512.5309 L343.0631,506.7749 L344.5487,501.1726 L344.5176,501.1662 L346.0523,495.5456 L346.8612,489.7762 L348.0984,484.0946 L349.3715,478.4204 L350.3853,472.693 L350.5746,472.7288 L351.4594,466.9895 L352.6677,461.3113 L353.3525,455.5343 L354.8182,449.9046 L355.7647,444.177 L356.0148,444.2205 L356.9552,438.5382 L358.0197,432.8774 L358.5075,427.1162 L359.4181,421.4286 L360.7032,415.8063 L360.4192,415.7606 L361.579,410.1932 L362.4188,404.5744 L363.7228,399.0302 L364.2343,393.3585 L365.2168,387.7626 L365.0597,387.7392 L366.1423,382.2713 L366.5534,376.7032 L367.442,371.2063 L368.7978,365.7791 L369.3216,360.2279 L369.5214,360.2555 L370.4009,354.9056 L370.6589,349.4698 L371.6953,344.1417 L372.5621,338.79 L373.0337,333.3838 L372.8168,333.3559 L373.6568,328.1838 L374.4258,323.0026 L375.3343,317.8392 L375.7002,312.6062 L376.3692,307.4122 L376.5818,307.4375 L376.7096,302.3983 L377.2479,297.408 L378.3857,292.4894 L378.4196,287.4389 L379.3442,282.4948 L379.5784,282.5208 L379.9654,277.7691 L380.2731,273.0086 L380.7598,268.2679 L381.6597,263.5732 L381.9748,258.8135 L381.8369,258.7992 L382.7078,254.389 L382.6411,249.8818 L383.6405,245.4848 L384.0396,241.0258 L384.277,236.55 L384.3899,236.5609 L384.6968,232.4193 L385.4079,228.3167 L385.7538,224.179 L385.9471,220.0265 L386.2671,215.8862 L386.3908,215.8969 L386.8286,208.7207 L387.8407,201.5943 L388.2033,194.4115 L388.833,187.2519 L389.375,180.0846 " fill="none" style="stroke:#333333;stroke-width:3.125;"/><polygon fill="#333333" points="313.8229,614.1159,313.8738,614.1682,315.1926,612.5814,316.8099,611.3012,318.33,609.9211,319.5305,608.2128,321.1734,606.9589,321.1627,606.9341,320.0318,607.287,318.9545,607.765,317.9144,608.3298,316.7459,608.5952,315.7572,609.2801,315.9339,609.3558,315.0919,608.1106,314.7656,607.0866,314.5024,606.0895,313.8729,604.9354,313.4361,603.864,313.4597,603.8648,313.5023,605.9139,313.6527,607.9671,313.7511,610.0182,313.9488,612.0732,313.8229,614.1159" style="stroke:#333333;stroke-width:3.125;"/><polygon fill="#333333" points="389.7708,175.2305,389.8349,175.2653,388.6639,176.9641,387.8686,178.8672,386.9509,180.7038,385.6308,182.3215,384.8678,184.2422,384.8503,184.2217,385.6691,183.3655,386.5761,182.6128,387.5444,181.9321,388.3014,181.0034,389.3543,180.4221,389.5007,180.5467,389.9517,181.1776,390.8301,182.1722,391.7606,183.2113,392.3877,183.992,393.1744,184.9087,393.1968,184.9165,392.4832,182.9693,391.8715,181.0579,391.2106,179.1293,390.6434,177.2336,389.7708,175.2305" style="stroke:#333333;stroke-width:3.125;"/><text fill="#2E2E2E" font-family="&quot;Segoe Print&quot;" font-size="12.5" lengthAdjust="spacing" textLength="40.625" x="371.8125" y="399.3333">Confia</text></g><!--link T to M--><g id="link_T_M"><path d="M530.0208,356.8138 L530.2914,356.9233 L525.6671,366.0354 L522.629,375.7895 L519.0744,385.3346 L513.8212,394.192 L510.8192,403.9608 L506.5499,413.2165 L502.7849,422.6764 L499.4583,432.3138 " fill="none" style="stroke:#333333;stroke-width:3.125;"/><polygon fill="#333333" points="531.8958,352.1784,531.9466,352.2308,530.3219,353.5025,528.9948,355.0816,527.5708,356.5606,525.828,357.7105,524.5265,359.3159,524.5159,359.2911,525.5529,358.7183,526.6432,358.2706,527.7705,357.91,528.7703,357.2495,529.9487,357.0091,530.1256,357.0843,530.2087,358.0078,530.8082,359.1511,531.4708,360.3211,531.7668,361.3352,532.2555,362.4313,532.2792,362.4321,532.1725,360.3803,532.1736,358.3323,532.1227,356.2825,532.171,354.2361,531.8958,352.1784" style="stroke:#333333;stroke-width:3.125;"/><polygon fill="#333333" points="497.5313,437.0846,497.5819,437.1372,498.9091,435.5574,500.5331,434.2858,502.0605,432.9138,503.27,431.2119,504.9195,429.9666,504.909,429.9418,503.7762,430.2887,502.6963,430.761,501.6533,431.3203,500.4834,431.5795,499.4911,432.2591,499.6682,432.3339,498.831,431.0883,498.5109,430.0611,498.2538,429.0605,497.6297,427.9049,497.1987,426.8308,497.2223,426.8316,497.2541,428.8812,497.3937,430.9343,497.4812,432.9858,497.668,435.0405,497.5313,437.0846" style="stroke:#333333;stroke-width:3.125;"/><text fill="#2E2E2E" font-family="&quot;Segoe Print&quot;" font-size="12.5" lengthAdjust="spacing" textLength="40.625" x="525.2604" y="399.3333">Confia</text></g><!--link M to P--><g id="link_M_P"><path d="M510.9792,531.5013 L511.222,531.6633 L516.115,539.6018 L522.4317,548.4898 L528.2848,557.0686 L532.6131,564.6308 L538.9623,573.5404 L544.1738,581.6914 L549.8381,590.1443 L555.8171,598.8071 L560.7115,606.7467 L567.125,615.6992 " fill="none" style="stroke:#333333;stroke-width:3.125;"/><polygon fill="#333333" points="508.1667,527.293,508.2386,527.3053,508.3716,529.291,508.9262,531.349,509.3435,533.3835,509.3093,535.3405,509.9001,537.4047,509.8736,537.3994,509.986,536.22,510.2318,535.0673,510.5703,533.9332,510.5892,532.7351,511.0557,531.6266,511.0934,531.8151,512.1684,531.6431,513.3535,532.0215,514.552,532.467,515.6724,532.5219,516.8339,532.7822,516.8465,532.8022,515.0945,531.675,513.4001,530.6389,511.678,529.5588,510.0089,528.5626,508.1667,527.293" style="stroke:#333333;stroke-width:3.125;"/><polygon fill="#333333" points="569.8125,619.7409,569.8844,619.7532,569.324,617.6942,569.1853,615.7075,568.9092,613.6973,568.1816,611.6097,568.0791,609.6292,568.0526,609.6239,567.7027,610.7557,567.4862,611.9143,567.3625,613.0914,566.9192,614.2046,566.9234,615.4073,566.9611,615.5958,565.7249,614.9616,564.5987,614.8777,563.486,614.861,562.2951,614.4536,561.1453,614.2517,561.158,614.2717,562.8728,615.3401,564.6454,616.4997,566.3901,617.6153,568.1879,618.8148,569.8125,619.7409" style="stroke:#333333;stroke-width:3.125;"/><text fill="#2E2E2E" font-family="&quot;Segoe Print&quot;" font-size="12.5" lengthAdjust="spacing" textLength="40.625" x="550.9167" y="576.3853">Confia</text></g><!--link C to D--><g id="link_C_D"><path d="M252.0521,534.1159 L252.1457,534.1425 L253.2991,539.0975 L255.0012,544.2086 L256.5246,549.2688 L257.4604,554.162 L259.2096,559.2865 L259.1752,559.2761 L260.5474,564.2869 L262.0933,569.3503 L263.7599,574.45 L265.0105,579.4242 L266.8438,584.5742 L267.0877,584.653 L267.3588,586.9384 L268.342,589.4539 L269.4122,591.9974 L269.9768,594.3776 L270.8073,596.8438 L270.8372,596.8538 L271.6297,599.3226 L272.5585,601.8373 L273.4216,604.3299 L274.4101,606.8647 L274.9896,609.2617 " fill="none" style="stroke:#333333;stroke-width:3.125;"/><polygon fill="#333333" points="250.7292,529.3034,250.8014,529.314,250.2879,531.3124,250.1977,533.3731,249.9697,535.4135,249.2884,537.3871,249.2345,539.4532,249.211,539.4399,249.6843,538.3538,250.2761,537.3346,250.9503,536.3618,251.3406,535.2289,252.1285,534.3202,252.2229,534.4877,253.0476,534.7084,254.148,535.418,255.2819,536.1872,256.2202,536.6095,257.2615,537.2142,257.2797,537.2293,255.9464,535.625,254.6963,534.0893,253.4061,532.5206,252.1924,531.015,250.7292,529.3034" style="stroke:#333333;stroke-width:3.125;"/><polygon fill="#333333" points="276.625,614.0013,276.6977,614.0075,276.6571,611.9447,277.0427,609.9184,277.2896,607.8802,277.0799,605.8028,277.5022,603.7796,277.4779,603.7678,276.8534,604.7746,276.3513,605.8409,275.9342,606.9486,275.2241,607.9137,274.9244,609.0784,275.0085,609.2513,273.7689,608.3661,272.7748,607.9856,271.8107,607.6666,270.6723,606.9894,269.6256,606.5006,269.6429,606.5168,271.0174,607.9932,272.4707,609.5432,273.8859,611.0577,275.3738,612.6399,276.625,614.0013" style="stroke:#333333;stroke-width:3.125;"/><text fill="#2E2E2E" font-family="&quot;Segoe Print&quot;" font-size="12.5" lengthAdjust="spacing" textLength="40.625" x="273.0938" y="576.3853">Confia</text></g><!--link A to M--><g id="link_A_M"><path d="M405.1771,180.0013 L405.4606,180.0709 L407.0937,189.9432 L410.3886,200.2237 L413.1424,210.3712 L414.1165,220.0816 L417.4493,230.3714 L419.4543,240.335 L421.9877,250.4284 L424.8885,260.6121 L426.5233,270.4848 L430.678,280.9764 L431.5565,290.6633 L434.6153,300.8858 L437.9401,311.1736 L439.7172,321.0812 L442.4004,331.2114 L444.7407,341.2574 L447.5,351.4063 L450.0571,361.5055 L453,371.6995 L455.5905,381.8069 L458.077,391.8888 L459.9797,401.8273 L462.737,411.9757 L465.5343,422.1339 L467.0625,431.9805 " fill="none" style="stroke:#333333;stroke-width:3.125;"/><polygon fill="#333333" points="403.9583,175.0221,404.0302,175.0349,403.4574,177.0171,403.3058,179.0742,403.0171,181.1069,402.2773,183.0593,402.1619,185.1228,402.1388,185.1089,402.6442,184.0374,403.2661,183.0363,403.969,182.084,404.3929,180.9632,405.2075,180.0784,405.3069,180.243,406.1033,180.5002,407.1898,181.2379,408.3117,182.0342,409.2277,182.4895,410.2519,183.1241,410.2707,183.1387,408.9845,181.4969,407.7835,179.9214,406.5414,178.3139,405.3777,176.7673,403.9583,175.0221" style="stroke:#333333;stroke-width:3.125;"/><polygon fill="#333333" points="468.2396,436.7617,468.3114,436.7747,468.4629,434.717,469.0354,432.7354,469.4708,430.729,469.4554,428.6411,470.0641,426.666,470.041,426.652,469.3256,427.5963,468.7264,428.6113,468.208,429.6753,467.4112,430.5701,467.0044,431.702,467.1042,431.8663,465.8836,430.903,464.9544,430.4194,464.0607,429.9943,462.9602,429.2288,461.9685,428.6423,461.9872,428.6568,463.2139,430.2594,464.526,431.928,465.7969,433.5647,467.1463,435.2621,468.2396,436.7617" style="stroke:#333333;stroke-width:3.125;"/><text fill="#2E2E2E" font-family="&quot;Segoe Print&quot;" font-size="12.5" lengthAdjust="spacing" textLength="40.625" x="452.375" y="310.8124">Confia</text></g><!--link M to D--><g id="link_M_D"><path d="M446.5313,515.7617 L446.7331,515.9726 L439.1751,522.0046 L432.8002,529.2729 L426.04,536.1386 L418.0129,541.6802 L411.7396,549.0547 L411.6655,548.9762 L403.812,555.728 L396.3322,562.8753 L389.1121,570.2976 L380.9969,576.7723 L374.1354,584.5742 L374.3097,584.7622 L368.3113,589.5753 L362.8216,594.9373 L357.394,600.3662 L351.6053,605.4055 L346.0065,610.6497 L346.0278,610.673 L340.6973,615.4883 L335.4639,620.4097 L330.1836,625.2798 L324.9927,630.2477 L319.5104,634.8971 " fill="none" style="stroke:#333333;stroke-width:3.125;"/><polygon fill="#333333" points="450.2292,512.1992,450.254,512.2678,448.2507,512.7618,446.3929,513.658,444.4877,514.4232,442.4268,514.7575,440.5815,515.6883,440.5809,515.6613,441.7568,515.564,442.9353,515.6027,444.1158,515.7359,445.2897,515.5433,446.4728,515.8071,446.665,515.811,446.2303,516.9809,446.3567,518.1622,446.5515,519.3449,446.348,520.5196,446.3541,521.6984,446.376,521.7074,447.1188,519.7944,447.9615,517.9222,448.756,516.0303,449.6424,514.1759,450.2292,512.1992" style="stroke:#333333;stroke-width:3.125;"/><polygon fill="#333333" points="315.8958,638.1888,315.9187,638.2581,317.7993,637.4094,319.814,636.967,321.785,636.3923,323.6125,635.3825,325.6387,634.9749,325.6374,634.948,324.4544,634.7698,323.278,634.7276,322.1062,634.7797,320.9185,634.5064,319.7531,634.689,319.9451,634.6983,319.5917,633.5013,319.7988,632.3314,320.0744,631.1649,319.9521,629.9791,320.039,628.8034,320.0607,628.813,319.2002,630.676,318.4384,632.5826,317.6291,634.4682,316.9105,636.3938,315.8958,638.1888" style="stroke:#333333;stroke-width:3.125;"/><text fill="#2E2E2E" font-family="&quot;Segoe Print&quot;" font-size="12.5" lengthAdjust="spacing" textLength="40.625" x="406.5313" y="576.3853">Confia</text></g><!--link A to T--><g id="link_A_T"><path d="M417.7396,157.6159 L417.9567,157.8111 L424.3346,165.043 L431.9851,173.419 L439.2211,181.4224 L445.0944,188.2007 L452.7739,196.6028 L459.4366,204.0907 L466.5039,211.9424 L473.8525,220.047 L480.2317,227.2802 L488.5406,236.248 L494.3407,242.9605 L501.8103,251.1739 L509.4836,259.5704 L515.9718,266.9015 L523.0833,274.793 " fill="none" style="stroke:#0000FF;stroke-width:3.125;stroke-dasharray:7.0,7.0;"/><polygon fill="#0000FF" points="414.5104,154.0117,414.5798,154.0343,415.0085,155.9184,415.844,157.9348,416.5471,159.9081,416.8145,161.7397,417.6849,163.7675,417.658,163.766,417.599,162.5828,417.6758,161.4067,417.8471,160.2356,417.6929,159.0473,417.9946,157.883,418.0047,158.075,419.16,157.7264,420.3448,157.9384,421.5331,158.2186,422.7006,158.1011,423.879,158.1927,423.8887,158.2144,422.0008,157.3464,420.1568,156.5769,418.2917,155.76,416.467,155.0336,414.5104,154.0117" style="stroke:#0000FF;stroke-width:3.125;"/><polygon fill="#0000FF" points="526.2604,278.3346,526.3298,278.3572,525.4887,276.339,525.0544,274.4531,524.4877,272.5241,523.4853,270.4534,523.0859,268.5789,523.059,268.5775,522.8761,269.748,522.8291,270.9257,522.8765,272.1083,522.5984,273.2738,522.7762,274.4633,522.7863,274.6553,521.5878,274.1828,520.4189,274.2709,519.2535,274.4273,518.0671,274.1858,516.8918,274.1536,516.9015,274.1752,518.761,274.9797,520.6645,275.8826,522.5468,276.738,524.4696,277.6841,526.2604,278.3346" style="stroke:#0000FF;stroke-width:3.125;"/><text fill="#2E2E2E" font-family="&quot;Segoe Print&quot;" font-size="12.5" lengthAdjust="spacing" textLength="136.4583" x="487.2083" y="222.2812">Indiretamente Confia</text></g><!--link A to P--><g id="link_A_P"><path d="M413.4375,133.0326 L413.4534,133.1285 L418.2191,133.6421 L423.0782,134.7185 L427.9068,135.6115 L432.6354,135.902 L437.5025,137.0266 L437.4962,136.9912 L440.3542,137.3488 L443.2442,137.885 L446.1564,138.5452 L448.992,138.7778 L451.9349,139.6094 L451.9826,139.8613 L455.0066,139.915 L458.1699,140.7041 L461.3502,141.5828 L464.4315,141.9396 L467.5649,142.571 L467.5712,142.6019 L470.8672,143.2227 L474.1917,143.9845 L477.5024,144.6783 L480.8393,145.5019 L484.0909,145.9024 L484.1564,146.2061 L487.5813,146.9483 L490.9639,147.4946 L494.4083,148.3276 L497.8556,149.1741 L501.2111,149.5948 L501.1356,149.2696 L504.7647,150.7097 L508.1451,151.0789 L511.7147,152.2623 L515.0894,152.6073 L518.6238,153.6394 L518.6161,153.6087 L522.1885,154.8499 L525.5797,155.3727 L529.0779,156.3194 L532.585,157.3018 L536.0273,158.0273 L536.0787,158.2131 L539.4454,158.9701 L542.8998,160.0445 L546.2123,160.6053 L549.7365,161.9322 L553.1199,162.7497 L553.1943,162.9924 L556.4762,163.9561 L559.7951,165.0403 L562.9424,165.5647 L566.2155,166.4995 L569.5999,167.7978 L569.5062,167.5258 L572.7042,168.845 L575.7965,169.8577 L579.0421,171.3149 L582.0261,172.0132 L585.1656,173.1626 L585.1072,173.0149 L588.0743,174.3954 L590.7919,175.1446 L593.6869,176.3427 L596.7557,177.9801 L599.5151,178.8353 L599.6002,179.0182 L602.225,180.3379 L604.585,181.0889 L607.2766,182.5523 L609.8959,183.8605 L612.347,184.8071 L612.2389,184.617 L614.5275,186.0209 L616.7807,187.3626 L619.1035,188.8266 L621.1559,189.815 L623.3593,191.0691 L623.4999,191.2307 L626.2629,193.5475 L629.2973,196.1762 L632.728,199.2606 L635.429,201.5061 L638.7188,204.4284 L638.9127,204.5621 L640.3964,206.8018 L641.8144,208.9963 L643.3806,211.2929 L645.2892,213.8256 L646.7132,216.0242 L646.594,215.9535 L648.3692,218.5605 L649.3337,220.6869 L651.2201,223.3597 L652.5874,225.7248 L653.8149,228.0071 L653.9161,228.0583 L655.083,230.4846 L656.6122,233.0942 L657.8141,235.5382 L658.8792,237.913 L660.0578,240.3452 L660.172,240.3941 L661.086,242.8538 L662.53,245.5403 L663.3747,247.9703 L664.4658,250.5058 L665.476,253.0067 L665.2108,252.9119 L666.2249,255.5341 L667.5584,258.2705 L668.4399,260.8454 L669.1593,263.3623 L670.1035,265.9596 L669.9604,265.9176 L670.7804,268.5736 L671.347,271.1552 L672.6102,273.941 L673.5287,276.6258 L673.9743,279.172 L674.2116,279.2276 L674.9172,281.9334 L675.1719,284.5336 L675.9024,287.2453 L676.318,289.8832 L677.1223,292.6122 L677.2518,292.6355 L677.7266,295.3596 L678.3578,298.1119 L678.4933,300.7748 L679.0286,303.5098 L679.5817,306.248 L679.7853,306.2747 L680.2031,309.0421 L680.0683,311.7372 L680.5755,314.5163 L681.094,317.2968 L681.3864,320.0478 L681.1046,320.0239 L681.7862,322.848 L681.979,325.6306 L682.0503,328.4029 L682.3992,331.1988 L682.5703,333.9796 L682.9074,333.9939 L682.5451,336.7798 L682.955,339.5985 L683.0609,342.4043 L683.1017,345.2073 L683.1676,348.0114 L683.2329,348.0116 L683.2291,350.8316 L682.8965,353.6505 L683.0089,356.4709 L682.9897,359.2908 L683.2123,362.1115 L683.2418,362.1125 L683.1583,364.9401 L683.0975,367.7686 L682.7932,370.5888 L682.8018,373.4195 L682.7383,376.2479 L682.6827,376.2441 L682.813,379.0941 L682.5518,381.9175 L681.9388,384.7171 L681.9376,387.5582 L681.7796,390.3887 L681.5137,390.3621 L681.6306,393.2246 L681.4961,396.062 L681.1848,398.8817 L680.4515,401.6593 L680.3702,404.502 L680.5832,404.5297 L679.664,407.2685 L679.7317,410.1355 L679.1372,412.9165 L678.9539,415.751 L678.5443,418.556 L678.6542,418.5734 L678.3184,421.3827 L677.3316,424.089 L677.4365,426.968 L676.8589,429.7391 L676.3357,432.5187 L676.4974,432.5486 L676.1647,435.3495 L675.3153,438.055 L674.8811,440.8372 L674.3871,443.6084 L673.7785,446.3583 L673.8678,446.3771 L673.2037,449.0952 L672.9517,451.8997 L671.7791,454.5111 L671.7371,457.3597 L670.9066,460.0429 L670.6253,459.9772 L670.0325,462.6855 L669.6637,465.4462 L669.0279,468.1444 L668.1625,470.7891 L667.7542,473.5405 L667.9397,473.588 L667.1232,476.2088 L666.7205,478.9355 L666.014,481.5844 L664.8339,484.1121 L664.3552,486.8194 L664.1776,486.7701 L663.5752,489.409 L663.0691,492.0746 L662.368,494.6861 L661.6002,497.2791 L660.7435,499.8475 L660.5918,499.8024 L660.2679,502.4806 L659.5087,505.0293 L658.4484,507.4886 L657.6053,510.0124 L656.9533,512.593 L656.7762,512.537 L656.0717,515.0493 L655.4401,517.5847 L654.5623,520.0421 L653.6211,522.4795 L653.0186,525.0241 L653.2325,525.0957 L652.008,527.3736 L651.621,529.9318 L650.7789,532.3377 L649.9455,534.7465 L648.9732,537.1088 L649.2756,537.2152 L648.0415,539.4122 L647.1932,541.7451 L646.7267,544.2124 L645.415,546.3821 L644.8513,548.8152 L644.7497,548.7777 L644.0686,551.0929 L643.2154,553.3447 L642.1969,555.5355 L641.5011,557.8453 L640.6869,560.1114 L641.0086,560.2351 L640.1325,562.39 L638.76,564.3541 L638.217,566.637 L637.1264,568.7094 L636.5139,570.9657 L636.5026,570.9611 L634.9924,575.0677 L633.3997,579.1408 L631.2875,583.0026 L630.0972,587.2393 L628.2783,591.2204 L628.2819,591.2219 L626.4701,594.7387 L624.9336,598.375 L623.7,602.1429 L622.0951,605.7495 L620.4167,609.3242 " fill="none" style="stroke:#0000FF;stroke-width:3.125;stroke-dasharray:7.0,7.0;"/><polygon fill="#0000FF" points="618.3229,613.9492,618.3714,614.0038,619.7619,612.4795,621.4365,611.2752,623.0186,609.9667,624.2966,608.3156,625.9955,607.1387,625.986,607.1134,624.84,607.4139,623.7418,607.8416,622.6768,608.358,621.4973,608.5691,620.4781,609.2077,620.6581,609.2752,619.8594,608.0274,619.5862,606.9767,619.3772,605.95,618.795,604.7834,618.4091,603.6904,618.4328,603.6906,618.3808,605.742,618.4366,607.7944,618.4404,609.8464,618.5435,611.8992,618.3229,613.9492" style="stroke:#0000FF;stroke-width:3.125;"/><text fill="#2E2E2E" font-family="&quot;Segoe Print&quot;" font-size="12.5" lengthAdjust="spacing" textLength="136.4583" x="688.5313" y="399.3333">Indiretamente Confia</text></g><!--link B to D--><g id="link_B_D"><path d="M48.5833,350.3971 L48.6764,350.4257 L47.235,354.134 L46.3389,358.0099 L45.2652,361.8311 L43.6077,365.4731 L42.7584,369.3633 L42.7236,369.354 L42.0187,371.3738 L41.4891,373.4401 L41.0813,375.539 L40.2536,377.526 L40.0141,379.6697 L40.2636,379.7284 L39.2232,381.7538 L38.9113,383.9508 L38.6882,386.1688 L37.948,388.2649 L37.4798,390.4251 L37.5108,390.4314 L37.0152,392.6481 L36.6605,394.8934 L36.2378,397.1249 L35.9449,399.3827 L35.229,401.5549 L35.5355,401.6057 L35.1604,403.8921 L34.5877,406.1458 L34.3044,408.4475 L34.0346,410.7514 L33.335,412.984 L33.0038,412.9424 L33.354,415.354 L32.6134,417.6285 L32.7021,420.0071 L31.9367,422.2785 L31.8714,424.6378 L31.8398,424.6353 L32.0216,427.0264 L31.4649,429.3574 L31.344,431.7239 L31.2597,434.0934 L30.9115,436.4414 L31.1041,436.4476 L30.8331,438.8171 L30.8912,441.1971 L30.4169,443.56 L30.7368,445.9485 L30.5287,448.3199 L30.7824,448.3256 L30.788,450.7003 L30.9195,453.0778 L30.4658,455.4421 L30.441,457.816 L30.7965,460.1986 L30.5098,460.1745 L30.9677,462.5571 L31.1025,464.9125 L31.7059,467.3073 L31.5093,469.6349 L31.7883,472.0025 L31.6313,471.9784 L32.2506,474.3494 L32.1988,476.6174 L32.6242,478.9587 L33.5166,481.3716 L33.5775,483.6569 L33.7739,483.7026 L34.4407,486.02 L34.4964,488.1951 L35.3174,490.5484 L35.9718,492.8629 L36.2375,495.0869 L36.0295,495.0196 L36.9162,497.2994 L37.7348,499.5572 L38.6872,501.8584 L39.1192,503.991 L39.8419,506.2178 L40.0386,506.3023 L40.5307,508.2679 L41.4026,510.3967 L42.8293,512.7639 L43.2346,514.6922 L44.4639,516.9746 L44.67,517.0888 L45.6902,519.0826 L46.6407,521.0376 L47.7486,523.08 L49.2202,525.3239 L50.1771,527.2826 L50.0634,527.2033 L52.3821,530.2779 L53.9278,532.8132 L56.3524,535.9617 L58.2822,538.765 L60.0786,541.4753 L60.165,541.5487 L62.3385,544.131 L64.8215,546.9761 L67.0249,549.5838 L69.1114,552.0922 L71.2949,554.683 L71.3824,554.7712 L73.7224,557.0909 L76.4684,559.8198 L78.7552,562.086 L81.231,564.5424 L83.6446,566.9364 L83.462,566.722 L86.1833,569.0595 L89.1245,571.6552 L91.7545,573.8855 L94.2729,575.9848 L96.9461,578.2658 L96.8573,578.146 L99.7001,580.2716 L102.3856,582.185 L105.5036,584.6815 L108.4075,586.8895 L111.018,588.7017 L111.1512,588.9057 L114.126,590.8856 L116.8476,592.4778 L119.8364,594.4792 L122.6484,596.2097 L125.6786,598.2746 L125.7446,598.3883 L128.7495,600.1214 L131.8341,601.9919 L134.666,603.4268 L137.7018,605.213 L140.7466,607.0149 L140.8412,607.1971 L143.9263,608.8357 L146.7548,609.9796 L149.8815,611.6982 L153.0134,613.4268 L156.0404,614.9531 L155.9207,614.6969 L159.1772,616.5347 L162.2262,617.928 L165.2235,619.2108 L168.3387,620.7461 L171.3785,622.1198 L171.5098,622.4305 L174.3622,623.2714 L177.5156,624.8243 L180.5505,626.0969 L183.5601,627.3095 L186.5794,628.5453 L186.6028,628.6062 L189.5746,629.7373 L192.4287,630.5614 L195.4422,631.8009 L198.4085,632.9177 L201.4616,634.2601 L201.4713,634.288 L204.3515,635.3055 L207.2391,636.3446 L210.0463,637.1538 L212.9569,638.2583 L215.8436,639.2948 L215.8266,639.2418 L218.6651,640.4261 L221.3839,641.2368 L223.9953,641.7116 L226.7935,642.7705 L229.5439,643.6797 L229.4687,643.4233 L232.1489,644.5609 L234.758,645.4563 L237.3171,646.181 L239.7568,646.4987 L242.381,647.4454 L242.4369,647.6528 L244.65,647.7487 L247.1221,648.8056 L249.4204,649.2177 L251.8266,650.0301 L254.1734,650.6223 L254.2002,650.7303 L256.3392,651.3582 L258.3197,651.3462 L260.5661,652.4071 L262.6462,652.7972 L264.7396,653.2409 " fill="none" style="stroke:#0000FF;stroke-width:3.125;stroke-dasharray:7.0,7.0;"/><polygon fill="#0000FF" points="269.6354,654.3659,269.6793,654.4242,267.9103,653.016,266.3987,651.9495,264.8033,650.7717,262.9321,649.228,261.4427,648.1908,261.4198,648.1766,261.9408,649.1124,262.5772,650.1202,263.2939,651.178,263.734,652.0634,264.5615,653.1904,264.6632,653.3535,263.4457,653.6285,262.5253,654.3796,261.6411,655.1889,260.5461,655.6601,259.5619,656.3092,259.5664,656.3324,261.5745,655.9096,263.6031,655.5927,265.6217,655.2247,267.6592,654.9542,269.6354,654.3659" style="stroke:#0000FF;stroke-width:3.125;"/><text fill="#2E2E2E" font-family="&quot;Segoe Print&quot;" font-size="12.5" lengthAdjust="spacing" textLength="136.4583" x="56.4271" y="487.8645">Indiretamente Confia</text></g><!--link B to C--><g id="link_B_C"><path d="M53.1042,350.6888 L53.2011,350.6979 L52.6384,353.6089 L52.6437,356.573 L52.4641,359.5199 L51.6762,362.4099 L51.7303,365.3786 L51.6944,365.377 L51.6659,368.3464 L51.8186,371.3239 L52.0973,374.3071 L51.9419,377.2708 L52.3945,380.2617 L52.6439,380.3212 L52.7932,383.055 L53.6704,385.9625 L54.6364,388.8911 L55.0857,391.6965 L55.8068,394.5667 L55.8347,394.5815 L57.1678,397.1509 L58.6279,399.7876 L60.0268,402.3918 L61.5426,405.0581 L62.6771,407.5221 L62.9055,407.7327 L65.0013,410.0061 L66.9498,412.1438 L69.1139,414.4802 L71.2882,416.826 L73.1421,418.8766 L72.9651,418.5935 L75.4671,420.4926 L77.3862,421.4596 L79.7485,423.1353 L81.6544,424.0811 L83.9344,425.6252 L83.9253,425.5948 L86.2826,426.6303 L88.4266,426.9562 L90.6964,427.7008 L92.9769,428.4806 L95.1811,429.0068 L95.2014,429.1984 L97.5465,429.2557 L99.9263,429.6405 L102.25,429.4954 L104.6574,430.1406 L107.0091,430.2604 L107.0165,430.5141 L109.5224,430.539 L112.032,430.6899 L114.5246,430.2555 L117.0296,430.2502 L119.5457,430.6249 L119.5303,430.3376 L122.2186,430.7405 L124.8897,430.8197 L127.5858,431.3684 L130.2391,431.1154 L132.9178,431.339 L132.8926,431.1822 L135.8015,431.9039 L138.6028,431.9553 L141.4806,432.4834 L144.4333,433.4779 L147.2526,433.6418 L147.3162,433.8332 L150.4448,434.9905 L153.3754,435.5526 L156.5539,436.8602 L159.6785,438.0054 L162.6771,438.7721 L162.585,438.5738 L165.1508,439.8895 L167.6865,441.1402 L170.2814,442.5186 L172.6459,443.4007 L175.1392,444.5601 L175.2372,444.7504 L177.5062,445.6118 L179.9644,446.8406 L182.6991,448.6063 L184.9248,449.3836 L187.5612,450.9583 L187.6755,451.1644 L190.001,452.3697 L192.2878,453.5053 L194.6619,454.7982 L197.2378,456.4549 L199.5282,457.5968 L199.458,457.4773 L201.8862,459.1349 L203.8374,459.9796 L206.3309,461.7486 L208.5191,462.9971 L210.625,464.1055 " fill="none" style="stroke:#0000FF;stroke-width:3.125;stroke-dasharray:7.0,7.0;"/><polygon fill="#0000FF" points="215.0729,466.8034,215.1329,466.8449,213.7863,465.0347,212.7914,463.4681,211.682,461.8222,210.196,459.9154,209.2313,458.3697,209.205,458.3633,209.3659,459.4798,209.659,460.6285,210.0439,461.7995,210.1122,462.8935,210.624,464.0953,210.6694,464.2821,209.4271,464.1612,208.3175,464.5857,207.2241,465.0767,206.0364,465.1806,204.8984,465.488,204.9014,465.5115,206.9318,465.7401,208.9761,466.0757,211.0137,466.3596,213.0641,466.742,215.0729,466.8034" style="stroke:#0000FF;stroke-width:3.125;"/><text fill="#2E2E2E" font-family="&quot;Segoe Print&quot;" font-size="12.5" lengthAdjust="spacing" textLength="136.4583" x="68.9271" y="399.3333">Indiretamente Confia</text></g><!--SRC=[bS-nQiCm483XNKzn9Ki2zGk4Kf3bfOF1Ww13wN2sBx68B1Nft9AtRnHa4DGPEjx7Vnp7XYt1E_NWJw334bayyKGpGRmG3zEryWjRuqZ4Yt5V67262Ttu4mmpEU2ma903-m3Ice408yWCjU_JMETHOV0sWShGuFUzRqI65gtruPgipQG3EKwWCtHqFj-BJkpb0LwgwXNszU48ohkJmG9LWSsAia2zObjWks9Ne5gnsJgqkVwd_DZrTg7d4UD4usTAz2rvSwC9n3ZVtgHoOQFl7lRrPj_yirSF-by0]--></g></svg>