<?xml version="1.0" encoding="UTF-8" standalone="no"?><svg xmlns="http://www.w3.org/2000/svg" xmlns:xlink="http://www.w3.org/1999/xlink" contentStyleType="text/css" height="568.75px" preserveAspectRatio="none" style="width:680px;height:568px;" version="1.1" viewBox="0 0 680 568" width="680.2083px" zoomAndPan="magnify"><defs/><g><polygon fill="none" points="48.9583,20.8333,48.9583,21.0523,59.357,20.4017,69.7557,21.0347,80.1545,21.2497,90.5532,20.0902,100.9519,20.7524,111.3506,20.3891,121.7493,20.4339,132.148,20.7623,142.5467,20.1132,152.9454,21.41,163.3441,20.1768,173.7428,20.6273,184.1415,21.2833,194.5402,20.744,204.9389,20.9044,215.3376,20.8001,225.7364,21.0193,236.1351,21.0824,246.5338,21.4434,256.9325,21.5323,267.3312,21.5409,277.7299,21.0986,288.1286,21.3162,298.5273,21.5648,308.926,20.0821,319.3247,21.5401,329.7234,20.5245,340.1221,21.3894,350.5208,20.3177,360.9195,20.762,371.3182,21.6058,381.717,20.7826,392.1157,20.943,402.5144,21.1861,412.9131,21.2669,423.3118,20.8293,433.7105,21.1325,444.1092,20.2371,454.5079,21.1296,464.9066,21.4044,475.3053,21.2964,485.704,21.4719,496.1027,20.3301,506.5014,20.154,516.9001,20.186,527.2989,20.772,537.6976,20.6286,548.0963,21.5431,558.495,20.6514,568.8937,20.476,579.2924,21.0711,589.6911,20.1387,600.0898,20.2926,610.4885,21.5093,620.8872,21.2872,631.2859,21.5984,641.6846,20.4981,652.0833,20.8333,652.1257,20.9357,652.751,21.2668,653.1991,21.1699,653.8384,21.5348,654.4571,21.8501,655.0296,22.0537,655.2387,22.1403,655.2723,22.6424,655.6662,23.2937,655.5842,23.7479,655.7887,24.3208,656.25,25,656.4249,25,656.0011,32.7669,656.4267,40.5339,656.3217,48.3008,656.157,56.0677,656.25,63.8346,656.1365,63.7876,656.1531,64.4848,655.6658,64.9734,655.7076,65.681,655.0964,66.1182,655.0296,66.7809,655.1117,66.979,654.5047,67.1804,653.8837,67.3477,653.2681,67.5283,652.7691,67.9903,652.0833,68.0013,652.0833,68.6404,641.6846,68.1776,631.2859,68.2807,620.8872,67.8656,610.4885,68.7476,600.0898,68.1626,589.6911,68.1811,579.2924,67.3676,568.8937,67.5792,558.495,68.5542,548.0963,68.449,537.6976,67.9566,527.2989,67.6657,516.9001,67.7733,506.5014,67.2865,496.1027,68.4333,485.704,68.7717,475.3053,68.5496,464.9066,68.7252,454.5079,67.8589,444.1092,68.0922,433.7105,67.5976,423.3118,68.2972,412.9131,68.2583,402.5144,68.5767,392.1157,67.7621,381.717,67.8613,371.3182,68.4632,360.9195,68.5923,350.5208,67.4674,340.1221,67.7993,329.7234,68.1568,319.3247,67.365,308.926,68.3694,298.5273,68.27,288.1286,67.8963,277.7299,68.1495,267.3312,68.7603,256.9325,67.6754,246.5338,68.3294,236.1351,68.2989,225.7364,68.1219,215.3376,68.1481,204.9389,68.1195,194.5402,67.3511,184.1415,67.5838,173.7428,67.5205,163.3441,68.0678,152.9454,68.0931,142.5467,68.1698,132.148,67.6982,121.7493,67.931,111.3506,67.8761,100.9519,68.6022,90.5532,68.4456,80.1545,67.4955,69.7557,67.9253,59.357,67.4,48.9583,68.0013,48.9967,68.0938,48.4499,67.9524,47.8522,67.6878,47.1327,67.1293,46.663,67.1738,46.0121,66.7809,45.7738,66.6822,45.8322,66.2183,45.4279,65.5626,45.3108,65.026,45.1128,64.4558,44.7917,63.8346,44.9556,63.8346,44.5417,56.0677,44.9568,48.3008,44.8535,40.5339,44.915,32.7669,44.7917,25,45.0316,25.0994,45.0375,24.4115,45.336,23.8448,45.5924,23.2606,45.8312,22.6692,46.0121,22.0537,46.0119,22.0535,46.6957,22.0376,47.1095,21.37,47.8549,21.5028,48.2862,20.8772,48.9583,20.8333" style="stroke:#4D4D4D;stroke-width:1.0416666666666667;"/><text fill="#2E2E2E" font-family="&quot;Segoe Print&quot;" font-size="20.8333" font-weight="bold" lengthAdjust="spacing" textLength="588.5417" x="56.25" y="51.6296">TLS 1.3 Handshake (sem autenticação do cliente)</text><path d="M91.6667,120.0521 L91.9586,120.0521 L91.0912,130.5664 L91.9351,141.0807 L92.2218,151.5951 L90.6758,162.1094 L91.5587,172.6237 L91.0743,183.138 L91.134,193.6523 L91.572,204.1667 L90.7064,214.681 L92.4356,225.1953 L90.7913,235.7096 L91.392,246.224 L92.2666,256.7383 L91.5475,267.2526 L91.7614,277.7669 L91.6223,288.2813 L91.9146,298.7956 L91.9988,309.3099 L92.4801,319.8242 L92.5987,330.3385 L92.6101,340.8529 L92.0203,351.3672 L92.3105,361.8815 L92.642,372.3958 L90.665,382.9102 L92.609,393.4245 L91.2549,403.9388 L92.4081,414.4531 L90.9791,424.9674 L91.5715,435.4818 L92.6967,445.9961 L91.599,456.5104 L91.8129,467.0247 L92.137,477.5391 L92.2448,488.0534 L91.6612,498.5677 L92.0656,509.082 L91.6667,519.5964 " fill="none" style="stroke:#555555;stroke-width:1.0416666666666667;stroke-dasharray:5.0,5.0;"/><path d="M605.2083,120.0521 L605.5003,120.0521 L604.6329,130.5664 L605.4768,141.0807 L605.7634,151.5951 L604.2175,162.1094 L605.1004,172.6237 L604.616,183.138 L604.6757,193.6523 L605.1137,204.1667 L604.2481,214.681 L605.9773,225.1953 L604.3329,235.7096 L604.9337,246.224 L605.8083,256.7383 L605.0892,267.2526 L605.3031,277.7669 L605.164,288.2813 L605.4563,298.7956 L605.5405,309.3099 L606.0218,319.8242 L606.1404,330.3385 L606.1517,340.8529 L605.562,351.3672 L605.8522,361.8815 L606.1837,372.3958 L604.2067,382.9102 L606.1507,393.4245 L604.7965,403.9388 L605.9497,414.4531 L604.5208,424.9674 L605.1132,435.4818 L606.2383,445.9961 L605.1406,456.5104 L605.3546,467.0247 L605.6786,477.5391 L605.7864,488.0534 L605.2029,498.5677 L605.6072,509.082 L605.2083,519.5964 " fill="none" style="stroke:#555555;stroke-width:1.0416666666666667;stroke-dasharray:5.0,5.0;"/><polygon fill="none" points="61.4583,79.4596,61.4583,79.6786,71.7014,79.0281,81.9444,79.661,92.1875,79.876,102.4306,78.7165,112.6736,79.3787,122.9167,79.4596,122.86,79.3228,123.455,79.5807,124.0861,79.9259,124.5926,79.9701,125.3473,80.6135,125.8629,80.68,125.6608,80.5963,126.0436,81.243,126.4897,81.9159,126.5677,82.4364,126.8611,83.0461,127.0833,83.6263,127.0722,83.6263,127.1453,89.8698,127.1664,96.1133,127.2867,102.3568,127.3163,108.6003,127.0833,114.8438,127.3012,114.934,126.9209,115.4668,126.7439,116.0839,126.5764,116.7048,125.8757,117.1049,125.8629,117.79,125.9531,118.0077,125.2343,117.939,124.7554,118.4494,124.0294,118.3635,123.4968,118.7444,122.9167,119.0104,122.9167,119.7829,112.6736,118.9597,102.4306,119.1201,92.1875,119.3632,81.9444,119.444,71.7014,119.0063,61.4583,119.0104,61.4965,119.1026,60.793,118.5827,60.3176,118.6135,59.7634,118.454,59.1604,118.1767,58.5121,117.79,58.7087,117.8715,58.113,117.1366,57.8147,116.5249,57.5805,115.9397,57.5169,115.4252,57.2917,114.8438,57.2234,114.8438,57.5283,108.6003,57.231,102.3568,57.1726,96.1133,57.3709,89.8698,57.2917,83.6263,57.0778,83.5377,57.3692,82.9681,57.988,82.534,58.1637,81.9164,58.5036,81.3669,58.5121,80.68,58.4693,80.5768,59.1437,80.5383,59.769,80.3813,60.2171,79.7962,60.8563,79.673,61.4583,79.4596" style="stroke:#333333;stroke-width:1.0416666666666667;"/><text fill="#2E2E2E" font-family="&quot;Segoe Print&quot;" font-size="12.5" lengthAdjust="spacing" textLength="44.7917" x="69.7917" y="103.5624">Cliente</text><polygon fill="none" points="61.4583,518.5547,61.4583,518.7736,71.7014,518.1231,81.9444,518.756,92.1875,518.971,102.4306,517.8116,112.6736,518.4737,122.9167,518.5547,122.86,518.4179,123.455,518.6757,124.0861,519.021,124.5926,519.0651,125.3473,519.7086,125.8629,519.7751,125.6608,519.6913,126.0436,520.3381,126.4897,521.011,126.5677,521.5314,126.8611,522.1412,127.0833,522.7214,127.0722,522.7214,127.1453,528.9648,127.1664,535.2083,127.2867,541.4518,127.3163,547.6953,127.0833,553.9388,127.3012,554.0291,126.9209,554.5619,126.7439,555.1789,126.5764,555.7999,125.8757,556.2,125.8629,556.8851,125.9531,557.1027,125.2343,557.034,124.7554,557.5445,124.0294,557.4585,123.4968,557.8394,122.9167,558.1055,122.9167,558.878,112.6736,558.0547,102.4306,558.2152,92.1875,558.4582,81.9444,558.539,71.7014,558.1014,61.4583,558.1055,61.4965,558.1976,60.793,557.6778,60.3176,557.7085,59.7634,557.5491,59.1604,557.2718,58.5121,556.8851,58.7087,556.9665,58.113,556.2316,57.8147,555.6199,57.5805,555.0347,57.5169,554.5202,57.2917,553.9388,57.2234,553.9388,57.5283,547.6953,57.231,541.4518,57.1726,535.2083,57.3709,528.9648,57.2917,522.7214,57.0778,522.6327,57.3692,522.0631,57.988,521.6291,58.1637,521.0115,58.5036,520.4619,58.5121,519.7751,58.4693,519.6718,59.1437,519.6334,59.769,519.4763,60.2171,518.8913,60.8563,518.768,61.4583,518.5547" style="stroke:#333333;stroke-width:1.0416666666666667;"/><text fill="#2E2E2E" font-family="&quot;Segoe Print&quot;" font-size="12.5" lengthAdjust="spacing" textLength="44.7917" x="69.7917" y="542.6575">Cliente</text><polygon fill="none" points="570.8333,79.4596,570.8333,79.6786,580.8036,79.0281,590.7738,79.661,600.744,79.876,610.7143,78.7165,620.6845,79.3787,630.6548,79.0154,640.625,79.4596,640.574,79.3366,641.2052,79.6818,641.7116,79.726,642.4663,80.3695,642.8983,80.2338,643.5713,80.68,643.5078,80.6537,643.9539,81.3267,644.0319,81.8471,644.3254,82.4569,644.5373,83.0328,644.7917,83.6263,644.8537,83.6263,644.8747,89.8698,644.995,96.1133,645.0247,102.3568,645.0275,108.6003,644.7917,114.8438,644.8733,114.8776,644.6963,115.4946,644.5288,116.1156,643.8281,116.5157,644.033,117.2909,643.5713,117.79,643.5319,117.6949,643.053,118.2053,642.327,118.1194,641.7944,118.5003,641.3128,119.0042,640.625,119.0104,640.625,118.9597,630.6548,119.1201,620.6845,119.3632,610.7143,119.444,600.744,119.0063,590.7738,119.3096,580.8036,118.4141,570.8333,119.0104,570.8711,119.1016,570.3169,118.9422,569.7139,118.6649,569.147,118.4748,568.4121,117.8791,567.8871,117.79,567.6778,117.7034,567.4436,117.1182,567.38,116.6037,567.0918,115.9961,567.1293,115.5235,566.6667,114.8438,566.606,114.8438,566.5476,108.6003,566.7459,102.3568,566.4351,96.1133,566.4864,89.8698,566.6667,83.6263,566.8748,83.7125,567.0505,83.0949,567.3904,82.5454,567.2957,81.8158,567.7454,81.3117,567.8871,80.68,567.9655,80.8694,568.4135,80.2844,569.0528,80.1611,569.6716,79.9882,570.3307,79.9128,570.8333,79.4596" style="stroke:#333333;stroke-width:1.0416666666666667;"/><text fill="#2E2E2E" font-family="&quot;Segoe Print&quot;" font-size="12.5" lengthAdjust="spacing" textLength="53.125" x="579.1667" y="103.5624">Servidor</text><polygon fill="none" points="570.8333,518.5547,570.8333,518.7736,580.8036,518.1231,590.7738,518.756,600.744,518.971,610.7143,517.8116,620.6845,518.4737,630.6548,518.1104,640.625,518.5547,640.574,518.4317,641.2052,518.7769,641.7116,518.8211,642.4663,519.4645,642.8983,519.3288,643.5713,519.7751,643.5078,519.7488,643.9539,520.4217,644.0319,520.9422,644.3254,521.5519,644.5373,522.1279,644.7917,522.7214,644.8537,522.7214,644.8747,528.9648,644.995,535.2083,645.0247,541.4518,645.0275,547.6953,644.7917,553.9388,644.8733,553.9726,644.6963,554.5897,644.5288,555.2106,643.8281,555.6107,644.033,556.386,643.5713,556.8851,643.5319,556.79,643.053,557.3004,642.327,557.2144,641.7944,557.5953,641.3128,558.0993,640.625,558.1055,640.625,558.0547,630.6548,558.2152,620.6845,558.4582,610.7143,558.539,600.744,558.1014,590.7738,558.4046,580.8036,557.5092,570.8333,558.1055,570.8711,558.1967,570.3169,558.0372,569.7139,557.7599,569.147,557.5699,568.4121,556.9742,567.8871,556.8851,567.6778,556.7984,567.4436,556.2133,567.38,555.6987,567.0918,555.0912,567.1293,554.6186,566.6667,553.9388,566.606,553.9388,566.5476,547.6953,566.7459,541.4518,566.4351,535.2083,566.4864,528.9648,566.6667,522.7214,566.8748,522.8076,567.0505,522.19,567.3904,521.6404,567.2957,520.9108,567.7454,520.4067,567.8871,519.7751,567.9655,519.9645,568.4135,519.3795,569.0528,519.2562,569.6716,519.0833,570.3307,519.0078,570.8333,518.5547" style="stroke:#333333;stroke-width:1.0416666666666667;"/><text fill="#2E2E2E" font-family="&quot;Segoe Print&quot;" font-size="12.5" lengthAdjust="spacing" textLength="53.125" x="579.1667" y="542.6575">Servidor</text><polygon fill="#333333" points="593.2292,172.0703,593.2563,172.1381,595.2591,172.7701,597.4208,173.7993,599.5307,174.6992,601.4705,175.1737,603.6458,176.237,603.6358,176.2119,601.5075,176.9328,599.4297,177.78,597.387,178.715,595.2233,179.3474,593.2292,180.4036,593.3651,180.5396,593.9078,179.4156,594.8473,178.6884,595.8352,178.0097,596.5414,177.0493,597.3958,176.237,597.4126,176.2537,596.5547,175.3958,595.773,174.6141,594.9545,173.7957,594.2063,173.0474,593.2292,172.0703" style="stroke:#333333;stroke-width:1.0416666666666667;"/><path d="M92.1875,176.237 L92.1875,176.5289 L102.5404,175.6615 L112.8933,176.5054 L123.2462,176.7921 L133.5991,175.2462 L143.952,176.129 L154.3048,175.6446 L164.6577,175.7043 L175.0106,176.1423 L185.3635,175.2767 L195.7164,177.0059 L206.0693,175.3616 L216.4222,175.9623 L226.7751,176.8369 L237.128,176.1178 L247.4809,176.3318 L257.8338,176.1926 L268.1866,176.4849 L278.5395,176.5691 L288.8924,177.0504 L299.2453,177.169 L309.5982,177.1804 L319.9511,176.5906 L330.304,176.8808 L340.6569,177.2123 L351.0098,175.2353 L361.3627,177.1794 L371.7156,175.8252 L382.0685,176.9784 L392.4213,175.5494 L402.7742,176.1418 L413.1271,177.267 L423.48,176.1693 L433.8329,176.3832 L444.1858,176.7073 L454.5387,176.8151 L464.8916,176.2316 L475.2445,176.6359 L485.5974,175.442 L495.9503,176.632 L506.3031,176.9984 L516.656,176.8544 L527.0089,177.0884 L537.3618,175.566 L547.7147,175.3312 L558.0676,175.3739 L568.4205,176.1552 L578.7734,175.964 L589.1263,177.1834 L599.4792,176.237 " fill="none" style="stroke:#333333;stroke-width:3.125;"/><text fill="#2E2E2E" font-family="&quot;Segoe Print&quot;" font-size="12.5" lengthAdjust="spacing" textLength="68.75" x="104.6875" y="151.4465">ClientHello</text><text fill="#2E2E2E" font-family="&quot;Segoe Print&quot;" font-size="12.5" lengthAdjust="spacing" textLength="444.7917" x="138.0208" y="165.9973">(supported_versions, random, cipher_suites, key_share, extensions)</text><polygon fill="#333333" points="103.6458,226.1719,103.6729,226.2396,101.5091,226.8716,99.5041,227.9009,97.4474,228.8007,95.2205,229.2752,93.2292,230.3385,93.2191,230.3135,95.2575,231.0344,97.3464,231.8816,99.4704,232.8166,101.4733,233.449,103.6458,234.5052,103.7818,234.6411,102.6578,233.5171,101.9306,232.79,101.2519,232.1113,100.2914,231.1508,99.4792,230.3385,99.4959,230.3553,100.3047,229.4974,101.1897,228.7157,102.0379,227.8973,102.9563,227.149,103.6458,226.1719" style="stroke:#333333;stroke-width:1.0416666666666667;"/><path d="M97.3958,230.3385 L97.3958,230.6305 L107.7487,229.7631 L118.1016,230.607 L128.4545,230.8937 L138.8074,229.3477 L149.1603,230.2306 L159.5132,229.7462 L169.8661,229.8059 L180.219,230.2439 L190.5719,229.3783 L200.9247,231.1075 L211.2776,229.4632 L221.6305,230.0639 L231.9834,230.9385 L242.3363,230.2194 L252.6892,230.4333 L263.0421,230.2942 L273.395,230.5865 L283.7479,230.6707 L294.1008,231.152 L304.4537,231.2706 L314.8065,231.282 L325.1594,230.6922 L335.5123,230.9824 L345.8652,231.3139 L356.2181,229.3369 L366.571,231.2809 L376.9239,229.9267 L387.2768,231.0799 L397.6297,229.651 L407.9826,230.2434 L418.3355,231.3685 L428.6884,230.2709 L439.0412,230.4848 L449.3941,230.8089 L459.747,230.9166 L470.0999,230.3331 L480.4528,230.7374 L490.8057,229.5435 L501.1586,230.7335 L511.5115,231.0999 L521.8644,230.9559 L532.2173,231.19 L542.5702,229.6676 L552.923,229.4327 L563.2759,229.4755 L573.6288,230.2568 L583.9817,230.0656 L594.3346,231.2849 L604.6875,230.3385 " fill="none" style="stroke:#333333;stroke-width:3.125;"/><text fill="#2E2E2E" font-family="&quot;Segoe Print&quot;" font-size="12.5" lengthAdjust="spacing" textLength="73.9583" x="115.1042" y="205.5481">ServerHello</text><text fill="#2E2E2E" font-family="&quot;Segoe Print&quot;" font-size="12.5" lengthAdjust="spacing" textLength="418.75" x="148.4375" y="220.0989">(selected_version, random, cipher_suite, key_share, extensions)</text><polygon fill="#333333" points="103.6458,280.2734,103.6729,280.3412,101.5091,280.9732,99.5041,282.0024,97.4474,282.9023,95.2205,283.3768,93.2292,284.4401,93.2191,284.4151,95.2575,285.1359,97.3464,285.9831,99.4704,286.9181,101.4733,287.5505,103.6458,288.6068,103.7818,288.7427,102.6578,287.6187,101.9306,286.8915,101.2519,286.2128,100.2914,285.2524,99.4792,284.4401,99.4959,284.4569,100.3047,283.5989,101.1897,282.8173,102.0379,281.9988,102.9563,281.2506,103.6458,280.2734" style="stroke:#333333;stroke-width:1.0416666666666667;"/><path d="M97.3958,284.4401 L97.3958,284.732 L107.7487,283.8647 L118.1016,284.7086 L128.4545,284.9952 L138.8074,283.4493 L149.1603,284.3322 L159.5132,283.8478 L169.8661,283.9075 L180.219,284.3454 L190.5719,283.4799 L200.9247,285.2091 L211.2776,283.5647 L221.6305,284.1654 L231.9834,285.04 L242.3363,284.321 L252.6892,284.5349 L263.0421,284.3957 L273.395,284.6881 L283.7479,284.7722 L294.1008,285.2536 L304.4537,285.3721 L314.8065,285.3835 L325.1594,284.7938 L335.5123,285.084 L345.8652,285.4154 L356.2181,283.4385 L366.571,285.3825 L376.9239,284.0283 L387.2768,285.1815 L397.6297,283.7526 L407.9826,284.345 L418.3355,285.4701 L428.6884,284.3724 L439.0412,284.5864 L449.3941,284.9104 L459.747,285.0182 L470.0999,284.4347 L480.4528,284.839 L490.8057,283.6451 L501.1586,284.8351 L511.5115,285.2015 L521.8644,285.0575 L532.2173,285.2915 L542.5702,283.7692 L552.923,283.5343 L563.2759,283.577 L573.6288,284.3583 L583.9817,284.1671 L594.3346,285.3865 L604.6875,284.4401 " fill="none" style="stroke:#333333;stroke-width:3.125;"/><text fill="#2E2E2E" font-family="&quot;Segoe Print&quot;" font-size="12.5" lengthAdjust="spacing" textLength="136.4583" x="115.1042" y="259.6497">EncryptedExtensions</text><text fill="#2E2E2E" font-family="&quot;Segoe Print&quot;" font-size="12.5" lengthAdjust="spacing" textLength="228.125" x="148.4375" y="274.2004">(extensões adicionais negociadas)</text><polygon fill="#333333" points="103.6458,334.375,103.6729,334.4428,101.5091,335.0748,99.5041,336.104,97.4474,337.0039,95.2205,337.4783,93.2292,338.5417,93.2191,338.5166,95.2575,339.2375,97.3464,340.0847,99.4704,341.0197,101.4733,341.6521,103.6458,342.7083,103.7818,342.8443,102.6578,341.7203,101.9306,340.9931,101.2519,340.3144,100.2914,339.3539,99.4792,338.5417,99.4959,338.5584,100.3047,337.7005,101.1897,336.9188,102.0379,336.1004,102.9563,335.3521,103.6458,334.375" style="stroke:#333333;stroke-width:1.0416666666666667;"/><path d="M97.3958,338.5417 L97.3958,338.8336 L107.7487,337.9662 L118.1016,338.8101 L128.4545,339.0968 L138.8074,337.5508 L149.1603,338.4337 L159.5132,337.9493 L169.8661,338.009 L180.219,338.447 L190.5719,337.5814 L200.9247,339.3106 L211.2776,337.6663 L221.6305,338.267 L231.9834,339.1416 L242.3363,338.4225 L252.6892,338.6364 L263.0421,338.4973 L273.395,338.7896 L283.7479,338.8738 L294.1008,339.3551 L304.4537,339.4737 L314.8065,339.4851 L325.1594,338.8953 L335.5123,339.1855 L345.8652,339.517 L356.2181,337.54 L366.571,339.484 L376.9239,338.1299 L387.2768,339.2831 L397.6297,337.8541 L407.9826,338.4465 L418.3355,339.5717 L428.6884,338.474 L439.0412,338.6879 L449.3941,339.012 L459.747,339.1198 L470.0999,338.5362 L480.4528,338.9406 L490.8057,337.7466 L501.1586,338.9366 L511.5115,339.303 L521.8644,339.1591 L532.2173,339.3931 L542.5702,337.8707 L552.923,337.6359 L563.2759,337.6786 L573.6288,338.4599 L583.9817,338.2687 L594.3346,339.4881 L604.6875,338.5417 " fill="none" style="stroke:#333333;stroke-width:3.125;"/><text fill="#2E2E2E" font-family="&quot;Segoe Print&quot;" font-size="12.5" lengthAdjust="spacing" textLength="66.6667" x="115.1042" y="313.7512">Certificate</text><text fill="#2E2E2E" font-family="&quot;Segoe Print&quot;" font-size="12.5" lengthAdjust="spacing" textLength="196.875" x="148.4375" y="328.302">(certificado X.509 do servidor)</text><polygon fill="#333333" points="103.6458,388.4766,103.6729,388.5443,101.5091,389.1763,99.5041,390.2055,97.4474,391.1054,95.2205,391.5799,93.2292,392.6432,93.2191,392.6182,95.2575,393.3391,97.3464,394.1863,99.4704,395.1213,101.4733,395.7537,103.6458,396.8099,103.7818,396.9458,102.6578,395.8218,101.9306,395.0947,101.2519,394.4159,100.2914,393.4555,99.4792,392.6432,99.4959,392.66,100.3047,391.8021,101.1897,391.0204,102.0379,390.2019,102.9563,389.4537,103.6458,388.4766" style="stroke:#333333;stroke-width:1.0416666666666667;"/><path d="M97.3958,392.6432 L97.3958,392.9351 L107.7487,392.0678 L118.1016,392.9117 L128.4545,393.1983 L138.8074,391.6524 L149.1603,392.5353 L159.5132,392.0509 L169.8661,392.1106 L180.219,392.5486 L190.5719,391.683 L200.9247,393.4122 L211.2776,391.7678 L221.6305,392.3686 L231.9834,393.2432 L242.3363,392.5241 L252.6892,392.738 L263.0421,392.5989 L273.395,392.8912 L283.7479,392.9754 L294.1008,393.4567 L304.4537,393.5752 L314.8065,393.5866 L325.1594,392.9969 L335.5123,393.2871 L345.8652,393.6186 L356.2181,391.6416 L366.571,393.5856 L376.9239,392.2314 L387.2768,393.3846 L397.6297,391.9557 L407.9826,392.5481 L418.3355,393.6732 L428.6884,392.5755 L439.0412,392.7895 L449.3941,393.1135 L459.747,393.2213 L470.0999,392.6378 L480.4528,393.0421 L490.8057,391.8482 L501.1586,393.0382 L511.5115,393.4046 L521.8644,393.2606 L532.2173,393.4947 L542.5702,391.9723 L552.923,391.7374 L563.2759,391.7802 L573.6288,392.5615 L583.9817,392.3703 L594.3346,393.5896 L604.6875,392.6432 " fill="none" style="stroke:#333333;stroke-width:3.125;"/><text fill="#2E2E2E" font-family="&quot;Segoe Print&quot;" font-size="12.5" lengthAdjust="spacing" textLength="102.0833" x="115.1042" y="367.8528">CertificateVerify</text><text fill="#2E2E2E" font-family="&quot;Segoe Print&quot;" font-size="12.5" lengthAdjust="spacing" textLength="355.2083" x="148.4375" y="382.4036">(assinatura do transcript do handshake pelo servidor)</text><polygon fill="#333333" points="103.6458,442.5781,103.6729,442.6459,101.5091,443.2779,99.5041,444.3071,97.4474,445.207,95.2205,445.6815,93.2292,446.7448,93.2191,446.7197,95.2575,447.4406,97.3464,448.2878,99.4704,449.2228,101.4733,449.8552,103.6458,450.9115,103.7818,451.0474,102.6578,449.9234,101.9306,449.1962,101.2519,448.5175,100.2914,447.5571,99.4792,446.7448,99.4959,446.7615,100.3047,445.9036,101.1897,445.122,102.0379,444.3035,102.9563,443.5553,103.6458,442.5781" style="stroke:#333333;stroke-width:1.0416666666666667;"/><path d="M97.3958,446.7448 L97.3958,447.0367 L107.7487,446.1693 L118.1016,447.0132 L128.4545,447.2999 L138.8074,445.754 L149.1603,446.6369 L159.5132,446.1524 L169.8661,446.2122 L180.219,446.6501 L190.5719,445.7846 L200.9247,447.5137 L211.2776,445.8694 L221.6305,446.4701 L231.9834,447.3447 L242.3363,446.6257 L252.6892,446.8396 L263.0421,446.7004 L273.395,446.9927 L283.7479,447.0769 L294.1008,447.5582 L304.4537,447.6768 L314.8065,447.6882 L325.1594,447.0984 L335.5123,447.3887 L345.8652,447.7201 L356.2181,445.7431 L366.571,447.6872 L376.9239,446.333 L387.2768,447.4862 L397.6297,446.0573 L407.9826,446.6497 L418.3355,447.7748 L428.6884,446.6771 L439.0412,446.891 L449.3941,447.2151 L459.747,447.3229 L470.0999,446.7394 L480.4528,447.1437 L490.8057,445.9498 L501.1586,447.1398 L511.5115,447.5062 L521.8644,447.3622 L532.2173,447.5962 L542.5702,446.0738 L552.923,445.839 L563.2759,445.8817 L573.6288,446.663 L583.9817,446.4718 L594.3346,447.6912 L604.6875,446.7448 " fill="none" style="stroke:#333333;stroke-width:3.125;"/><text fill="#2E2E2E" font-family="&quot;Segoe Print&quot;" font-size="12.5" lengthAdjust="spacing" textLength="54.1667" x="115.1042" y="421.9543">Finished</text><text fill="#2E2E2E" font-family="&quot;Segoe Print&quot;" font-size="12.5" lengthAdjust="spacing" textLength="212.5" x="148.4375" y="436.5051">(HMAC/transcript do handshake)</text><polygon fill="#333333" points="593.2292,496.6797,593.2563,496.7474,595.2591,497.3794,597.4208,498.4087,599.5307,499.3085,601.4705,499.783,603.6458,500.8464,603.6358,500.8213,601.5075,501.5422,599.4297,502.3894,597.387,503.3244,595.2233,503.9568,593.2292,505.013,593.3651,505.149,593.9078,504.0249,594.8473,503.2978,595.8352,502.6191,596.5414,501.6586,597.3958,500.8464,597.4126,500.8631,596.5547,500.0052,595.773,499.2235,594.9545,498.4051,594.2063,497.6568,593.2292,496.6797" style="stroke:#333333;stroke-width:1.0416666666666667;"/><path d="M92.1875,500.8464 L92.1875,501.1383 L102.5404,500.2709 L112.8933,501.1148 L123.2462,501.4015 L133.5991,499.8555 L143.952,500.7384 L154.3048,500.254 L164.6577,500.3137 L175.0106,500.7517 L185.3635,499.8861 L195.7164,501.6153 L206.0693,499.971 L216.4222,500.5717 L226.7751,501.4463 L237.128,500.7272 L247.4809,500.9411 L257.8338,500.802 L268.1866,501.0943 L278.5395,501.1785 L288.8924,501.6598 L299.2453,501.7784 L309.5982,501.7898 L319.9511,501.2 L330.304,501.4902 L340.6569,501.8217 L351.0098,499.8447 L361.3627,501.7887 L371.7156,500.4345 L382.0685,501.5878 L392.4213,500.1588 L402.7742,500.7512 L413.1271,501.8764 L423.48,500.7787 L433.8329,500.9926 L444.1858,501.3167 L454.5387,501.4245 L464.8916,500.8409 L475.2445,501.2453 L485.5974,500.0513 L495.9503,501.2413 L506.3031,501.6077 L516.656,501.4638 L527.0089,501.6978 L537.3618,500.1754 L547.7147,499.9405 L558.0676,499.9833 L568.4205,500.7646 L578.7734,500.5734 L589.1263,501.7928 L599.4792,500.8464 " fill="none" style="stroke:#333333;stroke-width:3.125;"/><text fill="#2E2E2E" font-family="&quot;Segoe Print&quot;" font-size="12.5" lengthAdjust="spacing" textLength="54.1667" x="104.6875" y="476.0559">Finished</text><text fill="#2E2E2E" font-family="&quot;Segoe Print&quot;" font-size="12.5" lengthAdjust="spacing" textLength="212.5" x="138.0208" y="490.6067">(HMAC/transcript do handshake)</text><!--SRC=[bP71Ji9048RlVOhn1WcWndYGWuaX60vwmXWF96Ip7Tn9szrcPehsUJpu13u1B-Qs1S81Wjvs_ftvlkpiXJei42H3jQuUXafpyfX8HhuqR0fmngSVJAheGRd2H4bpX9UdELoFRc0MhyMP3A4dM82fOf-IDPllpLU0D83DAIROJv99TuBXFSoHrvG67aCNpZ3Fmy8lj2TLMGPMJ9ThPA7WPG0S7Q4OWANI8I-b8iKOPrWlevfn0FWPjMrtFzcn6yzMEMw5o0SQpD4UM8vB_kUOUijr6Q7JVMVhwWOtFoXWKh8nDoJWyJrOCgavXPiWAwtYAXLRZDtLSQblezkhksQxifqyptX5fbNTaem8UQCLcmQXyULYcKfjAhV_pnBpi_n7yYGEqnOxUtwON9wWzO___j_dVm40]--></g></svg>