<?xml version="1.0" encoding="UTF-8" standalone="no"?><svg xmlns="http://www.w3.org/2000/svg" xmlns:xlink="http://www.w3.org/1999/xlink" contentStyleType="text/css" height="727.0833px" preserveAspectRatio="none" style="width:593px;height:727px;" version="1.1" viewBox="0 0 593 727" width="593.75px" zoomAndPan="magnify"><defs/><g><path d="M91.6667,51.0091 L91.9586,51.0091 L91.0912,61.4491 L91.9351,71.8891 L92.2218,82.3291 L90.6758,92.7691 L91.5587,103.2091 L91.0743,113.6491 L91.134,124.0891 L91.572,134.5291 L90.7064,144.9691 L92.4356,155.4091 L90.7913,165.8491 L91.392,176.2891 L92.2666,186.7291 L91.5475,197.1691 L91.7614,207.609 L91.6223,218.049 L91.9146,228.489 L91.9988,238.929 L92.4801,249.369 L92.5987,259.809 L92.6101,270.249 L92.0203,280.689 L92.3105,291.129 L92.642,301.569 L90.665,312.009 L92.609,322.449 L91.2549,332.889 L92.4081,343.329 L90.9791,353.769 L91.5715,364.209 L92.6967,374.649 L91.599,385.089 L91.8129,395.529 L92.137,405.969 L92.2448,416.409 L91.6612,426.849 L92.0656,437.289 L90.8716,447.7289 L92.0616,458.1689 L92.428,468.6089 L92.2841,479.0489 L92.5181,489.4889 L90.9957,499.9289 L90.7609,510.3689 L90.8036,520.8089 L91.5849,531.2489 L91.3937,541.6889 L92.6131,552.1289 L91.4241,562.5689 L91.1902,573.0089 L91.9837,583.4489 L90.7405,593.8889 L90.9457,604.3289 L92.568,614.7689 L92.2718,625.2089 L92.6868,635.6489 L91.2197,646.0889 L92.11,656.5289 L92.4867,666.9689 L91.6667,677.4089 " fill="none" style="stroke:#555555;stroke-width:1.0416666666666667;stroke-dasharray:5.0,5.0;"/><path d="M542.7083,51.0091 L543.0003,51.0091 L542.1329,61.4491 L542.9768,71.8891 L543.2634,82.3291 L541.7175,92.7691 L542.6004,103.2091 L542.116,113.6491 L542.1757,124.0891 L542.6137,134.5291 L541.7481,144.9691 L543.4773,155.4091 L541.8329,165.8491 L542.4337,176.2891 L543.3083,186.7291 L542.5892,197.1691 L542.8031,207.609 L542.664,218.049 L542.9563,228.489 L543.0405,238.929 L543.5218,249.369 L543.6404,259.809 L543.6517,270.249 L543.062,280.689 L543.3522,291.129 L543.6837,301.569 L541.7067,312.009 L543.6507,322.449 L542.2965,332.889 L543.4497,343.329 L542.0208,353.769 L542.6132,364.209 L543.7383,374.649 L542.6406,385.089 L542.8546,395.529 L543.1786,405.969 L543.2864,416.409 L542.7029,426.849 L543.1072,437.289 L541.9133,447.7289 L543.1033,458.1689 L543.4697,468.6089 L543.3257,479.0489 L543.5598,489.4889 L542.0374,499.9289 L541.8025,510.3689 L541.8453,520.8089 L542.6266,531.2489 L542.4354,541.6889 L543.6547,552.1289 L542.4657,562.5689 L542.2319,573.0089 L543.0254,583.4489 L541.7822,593.8889 L541.9873,604.3289 L543.6097,614.7689 L543.3134,625.2089 L543.7285,635.6489 L542.2614,646.0889 L543.1517,656.5289 L543.5284,666.9689 L542.7083,677.4089 " fill="none" style="stroke:#555555;stroke-width:1.0416666666666667;stroke-dasharray:5.0,5.0;"/><polygon fill="none" points="61.4583,10.4167,61.4583,10.6356,71.7014,9.9851,81.9444,10.618,92.1875,10.833,102.4306,9.6735,112.6736,10.3357,122.9167,10.4167,122.86,10.2799,123.455,10.5377,124.0861,10.883,124.5926,10.9271,125.3473,11.5706,125.8629,11.6371,125.6608,11.5533,126.0436,12.2,126.4897,12.873,126.5677,13.3934,126.8611,14.0031,127.0833,14.5833,127.0722,14.5833,127.1453,20.8268,127.1664,27.0703,127.2867,33.3138,127.3163,39.5573,127.0833,45.8008,127.3012,45.891,126.9209,46.4239,126.7439,47.0409,126.5764,47.6619,125.8757,48.062,125.8629,48.7471,125.9531,48.9647,125.2343,48.896,124.7554,49.4065,124.0294,49.3205,123.4968,49.7014,122.9167,49.9674,122.9167,50.74,112.6736,49.9167,102.4306,50.0771,92.1875,50.3202,81.9444,50.401,71.7014,49.9634,61.4583,49.9674,61.4965,50.0596,60.793,49.5397,60.3176,49.5705,59.7634,49.4111,59.1604,49.1337,58.5121,48.7471,58.7087,48.8285,58.113,48.0936,57.8147,47.4819,57.5805,46.8967,57.5169,46.3822,57.2917,45.8008,57.2234,45.8008,57.5283,39.5573,57.231,33.3138,57.1726,27.0703,57.3709,20.8268,57.2917,14.5833,57.0778,14.4947,57.3692,13.9251,57.988,13.4911,58.1637,12.8735,58.5036,12.3239,58.5121,11.6371,58.4693,11.5338,59.1437,11.4954,59.769,11.3383,60.2171,10.7533,60.8563,10.63,61.4583,10.4167" style="stroke:#333333;stroke-width:1.0416666666666667;"/><text fill="#2E2E2E" font-family="&quot;Segoe Print&quot;" font-size="12.5" lengthAdjust="spacing" textLength="44.7917" x="69.7917" y="34.5194">Cliente</text><polygon fill="none" points="61.4583,676.3672,61.4583,676.5861,71.7014,675.9356,81.9444,676.5685,92.1875,676.7835,102.4306,675.6241,112.6736,676.2862,122.9167,676.3672,122.86,676.2304,123.455,676.4882,124.0861,676.8335,124.5926,676.8776,125.3473,677.5211,125.8629,677.5876,125.6608,677.5038,126.0436,678.1506,126.4897,678.8235,126.5677,679.3439,126.8611,679.9537,127.0833,680.5339,127.0722,680.5339,127.1453,686.7773,127.1664,693.0208,127.2867,699.2643,127.3163,705.5078,127.0833,711.7513,127.3012,711.8416,126.9209,712.3744,126.7439,712.9914,126.5764,713.6124,125.8757,714.0125,125.8629,714.6976,125.9531,714.9152,125.2343,714.8465,124.7554,715.357,124.0294,715.271,123.4968,715.6519,122.9167,715.918,122.9167,716.6905,112.6736,715.8672,102.4306,716.0277,92.1875,716.2707,81.9444,716.3515,71.7014,715.9139,61.4583,715.918,61.4965,716.0101,60.793,715.4903,60.3176,715.521,59.7634,715.3616,59.1604,715.0843,58.5121,714.6976,58.7087,714.779,58.113,714.0441,57.8147,713.4324,57.5805,712.8472,57.5169,712.3327,57.2917,711.7513,57.2234,711.7513,57.5283,705.5078,57.231,699.2643,57.1726,693.0208,57.3709,686.7773,57.2917,680.5339,57.0778,680.4452,57.3692,679.8756,57.988,679.4416,58.1637,678.824,58.5036,678.2744,58.5121,677.5876,58.4693,677.4843,59.1437,677.4459,59.769,677.2888,60.2171,676.7038,60.8563,676.5805,61.4583,676.3672" style="stroke:#333333;stroke-width:1.0416666666666667;"/><text fill="#2E2E2E" font-family="&quot;Segoe Print&quot;" font-size="12.5" lengthAdjust="spacing" textLength="44.7917" x="69.7917" y="700.47">Cliente</text><polygon fill="none" points="508.3333,10.4167,508.3333,10.6356,518.3036,9.9851,528.2738,10.618,538.244,10.833,548.2143,9.6735,558.1845,10.3357,568.1548,9.9724,578.125,10.4167,578.074,10.2936,578.7052,10.6389,579.2116,10.683,579.9663,11.3265,580.3983,11.1908,581.0713,11.6371,581.0078,11.6108,581.4539,12.2837,581.5319,12.8042,581.8254,13.4139,582.0373,13.9898,582.2917,14.5833,582.3537,14.5833,582.3747,20.8268,582.495,27.0703,582.5247,33.3138,582.5275,39.5573,582.2917,45.8008,582.3733,45.8346,582.1963,46.4516,582.0288,47.0726,581.3281,47.4727,581.533,48.248,581.0713,48.7471,581.0319,48.6519,580.553,49.1624,579.827,49.0764,579.2944,49.4573,578.8128,49.9613,578.125,49.9674,578.125,49.9167,568.1548,50.0771,558.1845,50.3202,548.2143,50.401,538.244,49.9634,528.2738,50.2666,518.3036,49.3712,508.3333,49.9674,508.3711,50.0587,507.8169,49.8992,507.2139,49.6219,506.647,49.4319,505.9121,48.8362,505.3871,48.7471,505.1778,48.6604,504.9436,48.0752,504.88,47.5607,504.5918,46.9532,504.6293,46.4806,504.1667,45.8008,504.106,45.8008,504.0476,39.5573,504.2459,33.3138,503.9351,27.0703,503.9864,20.8268,504.1667,14.5833,504.3748,14.6696,504.5505,14.052,504.8904,13.5024,504.7957,12.7728,505.2454,12.2687,505.3871,11.6371,505.4655,11.8265,505.9135,11.2414,506.5528,11.1181,507.1716,10.9452,507.8307,10.8698,508.3333,10.4167" style="stroke:#333333;stroke-width:1.0416666666666667;"/><text fill="#2E2E2E" font-family="&quot;Segoe Print&quot;" font-size="12.5" lengthAdjust="spacing" textLength="53.125" x="516.6667" y="34.5194">Servidor</text><polygon fill="none" points="508.3333,676.3672,508.3333,676.5861,518.3036,675.9356,528.2738,676.5685,538.244,676.7835,548.2143,675.6241,558.1845,676.2862,568.1548,675.9229,578.125,676.3672,578.074,676.2442,578.7052,676.5894,579.2116,676.6336,579.9663,677.277,580.3983,677.1413,581.0713,677.5876,581.0078,677.5613,581.4539,678.2342,581.5319,678.7547,581.8254,679.3644,582.0373,679.9404,582.2917,680.5339,582.3537,680.5339,582.3747,686.7773,582.495,693.0208,582.5247,699.2643,582.5275,705.5078,582.2917,711.7513,582.3733,711.7851,582.1963,712.4022,582.0288,713.0231,581.3281,713.4232,581.533,714.1985,581.0713,714.6976,581.0319,714.6025,580.553,715.1129,579.827,715.0269,579.2944,715.4078,578.8128,715.9118,578.125,715.918,578.125,715.8672,568.1548,716.0277,558.1845,716.2707,548.2143,716.3515,538.244,715.9139,528.2738,716.2171,518.3036,715.3217,508.3333,715.918,508.3711,716.0092,507.8169,715.8497,507.2139,715.5724,506.647,715.3824,505.9121,714.7867,505.3871,714.6976,505.1778,714.6109,504.9436,714.0258,504.88,713.5112,504.5918,712.9037,504.6293,712.4311,504.1667,711.7513,504.106,711.7513,504.0476,705.5078,504.2459,699.2643,503.9351,693.0208,503.9864,686.7773,504.1667,680.5339,504.3748,680.6201,504.5505,680.0025,504.8904,679.4529,504.7957,678.7233,505.2454,678.2192,505.3871,677.5876,505.4655,677.777,505.9135,677.192,506.5528,677.0687,507.1716,676.8958,507.8307,676.8203,508.3333,676.3672" style="stroke:#333333;stroke-width:1.0416666666666667;"/><text fill="#2E2E2E" font-family="&quot;Segoe Print&quot;" font-size="12.5" lengthAdjust="spacing" textLength="53.125" x="516.6667" y="700.47">Servidor</text><polygon fill="#333333" points="530.7292,103.0273,530.7563,103.0951,532.7591,103.7271,534.9208,104.7563,537.0307,105.6562,538.9705,106.1307,541.1458,107.194,541.1358,107.169,539.0075,107.8898,536.9297,108.737,534.887,109.672,532.7233,110.3045,530.7292,111.3607,530.8651,111.4966,531.4078,110.3726,532.3473,109.6455,533.3352,108.9667,534.0414,108.0063,534.8958,107.194,534.9126,107.2108,534.0547,106.3528,533.273,105.5712,532.4545,104.7527,531.7063,104.0045,530.7292,103.0273" style="stroke:#333333;stroke-width:1.0416666666666667;"/><path d="M92.1875,107.194 L92.1875,107.4859 L102.5315,106.6186 L112.8755,107.4625 L123.2195,107.7491 L133.5635,106.2032 L143.9075,107.0861 L154.2515,106.6017 L164.5954,106.6614 L174.9394,107.0993 L185.2834,106.2338 L195.6274,107.963 L205.9714,106.3186 L216.3154,106.9193 L226.6594,107.7939 L237.0034,107.0749 L247.3474,107.2888 L257.6914,107.1496 L268.0354,107.442 L278.3794,107.5261 L288.7234,108.0075 L299.0673,108.126 L309.4113,108.1374 L319.7553,107.5477 L330.0993,107.8379 L340.4433,108.1693 L350.7873,106.1924 L361.1313,108.1364 L371.4753,106.7822 L381.8193,107.9354 L392.1633,106.5065 L402.5073,107.0989 L412.8513,108.224 L423.1953,107.1263 L433.5392,107.3403 L443.8832,107.6643 L454.2272,107.7721 L464.5712,107.1886 L474.9152,107.5929 L485.2592,106.399 L495.6032,107.589 L505.9472,107.9554 L516.2912,107.8114 L526.6352,108.0454 L536.9792,107.194 " fill="none" style="stroke:#333333;stroke-width:3.125;"/><text fill="#2E2E2E" font-family="&quot;Segoe Print&quot;" font-size="12.5" lengthAdjust="spacing" textLength="68.75" x="104.6875" y="82.4036">ClientHello</text><text fill="#2E2E2E" font-family="&quot;Segoe Print&quot;" font-size="12.5" lengthAdjust="spacing" textLength="365.625" x="138.0208" y="96.9543">(version, random, session_id, cipher_suites, extensions)</text><polygon fill="#333333" points="103.6458,157.1289,103.6729,157.1967,101.5091,157.8287,99.5041,158.8579,97.4474,159.7578,95.2205,160.2322,93.2292,161.2956,93.2191,161.2705,95.2575,161.9914,97.3464,162.8386,99.4704,163.7736,101.4733,164.406,103.6458,165.4622,103.7818,165.5982,102.6578,164.4742,101.9306,163.747,101.2519,163.0683,100.2914,162.1078,99.4792,161.2956,99.4959,161.3123,100.3047,160.4544,101.1897,159.6727,102.0379,158.8543,102.9563,158.106,103.6458,157.1289" style="stroke:#333333;stroke-width:1.0416666666666667;"/><path d="M97.3958,161.2956 L97.3958,161.5875 L107.7398,160.7201 L118.0838,161.564 L128.4278,161.8507 L138.7718,160.3047 L149.1158,161.1876 L159.4598,160.7032 L169.8038,160.7629 L180.1478,161.2009 L190.4918,160.3353 L200.8358,162.0645 L211.1797,160.4202 L221.5237,161.0209 L231.8677,161.8955 L242.2117,161.1764 L252.5557,161.3903 L262.8997,161.2512 L273.2437,161.5435 L283.5877,161.6277 L293.9317,162.109 L304.2757,162.2276 L314.6197,162.239 L324.9637,161.6492 L335.3077,161.9394 L345.6516,162.2709 L355.9956,160.2939 L366.3396,162.2379 L376.6836,160.8838 L387.0276,162.037 L397.3716,160.608 L407.7156,161.2004 L418.0596,162.3256 L428.4036,161.2279 L438.7476,161.4418 L449.0916,161.7659 L459.4356,161.8737 L469.7796,161.2901 L480.1235,161.6945 L490.4675,160.5005 L500.8115,161.6906 L511.1555,162.057 L521.4995,161.913 L531.8435,162.147 L542.1875,161.2956 " fill="none" style="stroke:#333333;stroke-width:3.125;"/><text fill="#2E2E2E" font-family="&quot;Segoe Print&quot;" font-size="12.5" lengthAdjust="spacing" textLength="73.9583" x="115.1042" y="136.5051">ServerHello</text><text fill="#2E2E2E" font-family="&quot;Segoe Print&quot;" font-size="12.5" lengthAdjust="spacing" textLength="358.3333" x="148.4375" y="151.0559">(version, random, session_id, cipher_suite, extensions)</text><polygon fill="#333333" points="103.6458,211.2305,103.6729,211.2982,101.5091,211.9302,99.5041,212.9594,97.4474,213.8593,95.2205,214.3338,93.2292,215.3971,93.2191,215.3721,95.2575,216.093,97.3464,216.9402,99.4704,217.8752,101.4733,218.5076,103.6458,219.5638,103.7818,219.6997,102.6578,218.5757,101.9306,217.8486,101.2519,217.1699,100.2914,216.2094,99.4792,215.3971,99.4959,215.4139,100.3047,214.556,101.1897,213.7743,102.0379,212.9558,102.9563,212.2076,103.6458,211.2305" style="stroke:#333333;stroke-width:1.0416666666666667;"/><path d="M97.3958,215.3971 L97.3958,215.6891 L107.7398,214.8217 L118.0838,215.6656 L128.4278,215.9522 L138.7718,214.4063 L149.1158,215.2892 L159.4598,214.8048 L169.8038,214.8645 L180.1478,215.3025 L190.4918,214.4369 L200.8358,216.1661 L211.1797,214.5217 L221.5237,215.1225 L231.8677,215.9971 L242.2117,215.278 L252.5557,215.4919 L262.8997,215.3528 L273.2437,215.6451 L283.5877,215.7293 L293.9317,216.2106 L304.2757,216.3292 L314.6197,216.3405 L324.9637,215.7508 L335.3077,216.041 L345.6516,216.3725 L355.9956,214.3955 L366.3396,216.3395 L376.6836,214.9853 L387.0276,216.1385 L397.3716,214.7096 L407.7156,215.302 L418.0596,216.4271 L428.4036,215.3294 L438.7476,215.5434 L449.0916,215.8675 L459.4356,215.9752 L469.7796,215.3917 L480.1235,215.796 L490.4675,214.6021 L500.8115,215.7921 L511.1555,216.1585 L521.4995,216.0145 L531.8435,216.2486 L542.1875,215.3971 " fill="none" style="stroke:#333333;stroke-width:3.125;"/><text fill="#2E2E2E" font-family="&quot;Segoe Print&quot;" font-size="12.5" lengthAdjust="spacing" textLength="66.6667" x="115.1042" y="190.6067">Certificate</text><text fill="#2E2E2E" font-family="&quot;Segoe Print&quot;" font-size="12.5" lengthAdjust="spacing" textLength="196.875" x="148.4375" y="205.1575">(certificado X.509 do servidor)</text><polygon fill="#333333" points="103.6458,265.332,103.6729,265.3998,101.5091,266.0318,99.5041,267.061,97.4474,267.9609,95.2205,268.4354,93.2292,269.4987,93.2191,269.4736,95.2575,270.1945,97.3464,271.0417,99.4704,271.9767,101.4733,272.6091,103.6458,273.6654,103.7818,273.8013,102.6578,272.6773,101.9306,271.9501,101.2519,271.2714,100.2914,270.311,99.4792,269.4987,99.4959,269.5155,100.3047,268.6575,101.1897,267.8759,102.0379,267.0574,102.9563,266.3092,103.6458,265.332" style="stroke:#333333;stroke-width:1.0416666666666667;"/><path d="M97.3958,269.4987 L97.3958,269.7906 L107.7398,268.9233 L118.0838,269.7672 L128.4278,270.0538 L138.7718,268.5079 L149.1158,269.3908 L159.4598,268.9063 L169.8038,268.9661 L180.1478,269.404 L190.4918,268.5385 L200.8358,270.2676 L211.1797,268.6233 L221.5237,269.224 L231.8677,270.0986 L242.2117,269.3796 L252.5557,269.5935 L262.8997,269.4543 L273.2437,269.7467 L283.5877,269.8308 L293.9317,270.3122 L304.2757,270.4307 L314.6197,270.4421 L324.9637,269.8523 L335.3077,270.1426 L345.6516,270.474 L355.9956,268.4971 L366.3396,270.4411 L376.6836,269.0869 L387.0276,270.2401 L397.3716,268.8112 L407.7156,269.4036 L418.0596,270.5287 L428.4036,269.431 L438.7476,269.645 L449.0916,269.969 L459.4356,270.0768 L469.7796,269.4933 L480.1235,269.8976 L490.4675,268.7037 L500.8115,269.8937 L511.1555,270.2601 L521.4995,270.1161 L531.8435,270.3501 L542.1875,269.4987 " fill="none" style="stroke:#333333;stroke-width:3.125;"/><text fill="#2E2E2E" font-family="&quot;Segoe Print&quot;" font-size="12.5" lengthAdjust="spacing" textLength="120.8333" x="115.1042" y="244.7083">CertificateRequest</text><text fill="#2E2E2E" font-family="&quot;Segoe Print&quot;" font-size="12.5" lengthAdjust="spacing" textLength="171.875" x="148.4375" y="259.259">(tipos aceitos, CA aceitas)</text><polygon fill="#333333" points="103.6458,304.8828,103.6729,304.9506,101.5091,305.5826,99.5041,306.6118,97.4474,307.5117,95.2205,307.9862,93.2292,309.0495,93.2191,309.0244,95.2575,309.7453,97.3464,310.5925,99.4704,311.5275,101.4733,312.1599,103.6458,313.2161,103.7818,313.3521,102.6578,312.2281,101.9306,311.5009,101.2519,310.8222,100.2914,309.8618,99.4792,309.0495,99.4959,309.0662,100.3047,308.2083,101.1897,307.4266,102.0379,306.6082,102.9563,305.8599,103.6458,304.8828" style="stroke:#333333;stroke-width:1.0416666666666667;"/><path d="M97.3958,309.0495 L97.3958,309.3414 L107.7398,308.474 L118.0838,309.3179 L128.4278,309.6046 L138.7718,308.0587 L149.1158,308.9415 L159.4598,308.4571 L169.8038,308.5168 L180.1478,308.9548 L190.4918,308.0892 L200.8358,309.8184 L211.1797,308.1741 L221.5237,308.7748 L231.8677,309.6494 L242.2117,308.9303 L252.5557,309.1443 L262.8997,309.0051 L273.2437,309.2974 L283.5877,309.3816 L293.9317,309.8629 L304.2757,309.9815 L314.6197,309.9929 L324.9637,309.4031 L335.3077,309.6933 L345.6516,310.0248 L355.9956,308.0478 L366.3396,309.9919 L376.6836,308.6377 L387.0276,309.7909 L397.3716,308.3619 L407.7156,308.9543 L418.0596,310.0795 L428.4036,308.9818 L438.7476,309.1957 L449.0916,309.5198 L459.4356,309.6276 L469.7796,309.0441 L480.1235,309.4484 L490.4675,308.2545 L500.8115,309.4445 L511.1555,309.8109 L521.4995,309.6669 L531.8435,309.9009 L542.1875,309.0495 " fill="none" style="stroke:#333333;stroke-width:3.125;"/><text fill="#2E2E2E" font-family="&quot;Segoe Print&quot;" font-size="12.5" lengthAdjust="spacing" textLength="108.3333" x="115.1042" y="298.8098">ServerHelloDone</text><polygon fill="#333333" points="530.7292,358.9844,530.7563,359.0521,532.7591,359.6841,534.9208,360.7134,537.0307,361.6132,538.9705,362.0877,541.1458,363.151,541.1358,363.126,539.0075,363.8469,536.9297,364.6941,534.887,365.6291,532.7233,366.2615,530.7292,367.3177,530.8651,367.4536,531.4078,366.3296,532.3473,365.6025,533.3352,364.9238,534.0414,363.9633,534.8958,363.151,534.9126,363.1678,534.0547,362.3099,533.273,361.5282,532.4545,360.7098,531.7063,359.9615,530.7292,358.9844" style="stroke:#333333;stroke-width:1.0416666666666667;"/><path d="M92.1875,363.151 L92.1875,363.443 L102.5315,362.5756 L112.8755,363.4195 L123.2195,363.7062 L133.5635,362.1602 L143.9075,363.0431 L154.2515,362.5587 L164.5954,362.6184 L174.9394,363.0564 L185.2834,362.1908 L195.6274,363.92 L205.9714,362.2757 L216.3154,362.8764 L226.6594,363.751 L237.0034,363.0319 L247.3474,363.2458 L257.6914,363.1067 L268.0354,363.399 L278.3794,363.4832 L288.7234,363.9645 L299.0673,364.0831 L309.4113,364.0945 L319.7553,363.5047 L330.0993,363.7949 L340.4433,364.1264 L350.7873,362.1494 L361.1313,364.0934 L371.4753,362.7392 L381.8193,363.8924 L392.1633,362.4635 L402.5073,363.0559 L412.8513,364.181 L423.1953,363.0834 L433.5392,363.2973 L443.8832,363.6214 L454.2272,363.7291 L464.5712,363.1456 L474.9152,363.5499 L485.2592,362.356 L495.6032,363.546 L505.9472,363.9124 L516.2912,363.7684 L526.6352,364.0025 L536.9792,363.151 " fill="none" style="stroke:#333333;stroke-width:3.125;"/><text fill="#2E2E2E" font-family="&quot;Segoe Print&quot;" font-size="12.5" lengthAdjust="spacing" textLength="66.6667" x="104.6875" y="338.3606">Certificate</text><text fill="#2E2E2E" font-family="&quot;Segoe Print&quot;" font-size="12.5" lengthAdjust="spacing" textLength="188.5417" x="138.0208" y="352.9114">(certificado X.509 do cliente)</text><polygon fill="#333333" points="530.7292,413.0859,530.7563,413.1537,532.7591,413.7857,534.9208,414.8149,537.0307,415.7148,538.9705,416.1893,541.1458,417.2526,541.1358,417.2276,539.0075,417.9484,536.9297,418.7956,534.887,419.7306,532.7233,420.363,530.7292,421.4193,530.8651,421.5552,531.4078,420.4312,532.3473,419.704,533.3352,419.0253,534.0414,418.0649,534.8958,417.2526,534.9126,417.2694,534.0547,416.4114,533.273,415.6298,532.4545,414.8113,531.7063,414.0631,530.7292,413.0859" style="stroke:#333333;stroke-width:1.0416666666666667;"/><path d="M92.1875,417.2526 L92.1875,417.5445 L102.5315,416.6772 L112.8755,417.5211 L123.2195,417.8077 L133.5635,416.2618 L143.9075,417.1447 L154.2515,416.6603 L164.5954,416.72 L174.9394,417.1579 L185.2834,416.2924 L195.6274,418.0216 L205.9714,416.3772 L216.3154,416.9779 L226.6594,417.8525 L237.0034,417.1335 L247.3474,417.3474 L257.6914,417.2082 L268.0354,417.5006 L278.3794,417.5847 L288.7234,418.0661 L299.0673,418.1846 L309.4113,418.196 L319.7553,417.6063 L330.0993,417.8965 L340.4433,418.2279 L350.7873,416.251 L361.1313,418.195 L371.4753,416.8408 L381.8193,417.994 L392.1633,416.5651 L402.5073,417.1575 L412.8513,418.2826 L423.1953,417.1849 L433.5392,417.3989 L443.8832,417.7229 L454.2272,417.8307 L464.5712,417.2472 L474.9152,417.6515 L485.2592,416.4576 L495.6032,417.6476 L505.9472,418.014 L516.2912,417.87 L526.6352,418.104 L536.9792,417.2526 " fill="none" style="stroke:#333333;stroke-width:3.125;"/><text fill="#2E2E2E" font-family="&quot;Segoe Print&quot;" font-size="12.5" lengthAdjust="spacing" textLength="121.875" x="104.6875" y="392.4622">ClientKeyExchange</text><text fill="#2E2E2E" font-family="&quot;Segoe Print&quot;" font-size="12.5" lengthAdjust="spacing" textLength="382.2917" x="138.0208" y="407.0129">(público DH/ECDHE, ou premaster_secret cifrado com RSA)</text><polygon fill="#333333" points="530.7292,467.1875,530.7563,467.2553,532.7591,467.8873,534.9208,468.9165,537.0307,469.8164,538.9705,470.2908,541.1458,471.3542,541.1358,471.3291,539.0075,472.05,536.9297,472.8972,534.887,473.8322,532.7233,474.4646,530.7292,475.5208,530.8651,475.6568,531.4078,474.5328,532.3473,473.8056,533.3352,473.1269,534.0414,472.1664,534.8958,471.3542,534.9126,471.3709,534.0547,470.513,533.273,469.7313,532.4545,468.9129,531.7063,468.1646,530.7292,467.1875" style="stroke:#333333;stroke-width:1.0416666666666667;"/><path d="M92.1875,471.3542 L92.1875,471.6461 L102.5315,470.7787 L112.8755,471.6226 L123.2195,471.9093 L133.5635,470.3633 L143.9075,471.2462 L154.2515,470.7618 L164.5954,470.8215 L174.9394,471.2595 L185.2834,470.3939 L195.6274,472.1231 L205.9714,470.4788 L216.3154,471.0795 L226.6594,471.9541 L237.0034,471.235 L247.3474,471.4489 L257.6914,471.3098 L268.0354,471.6021 L278.3794,471.6863 L288.7234,472.1676 L299.0673,472.2862 L309.4113,472.2976 L319.7553,471.7078 L330.0993,471.998 L340.4433,472.3295 L350.7873,470.3525 L361.1313,472.2965 L371.4753,470.9424 L381.8193,472.0956 L392.1633,470.6666 L402.5073,471.259 L412.8513,472.3842 L423.1953,471.2865 L433.5392,471.5004 L443.8832,471.8245 L454.2272,471.9323 L464.5712,471.3487 L474.9152,471.7531 L485.2592,470.5591 L495.6032,471.7491 L505.9472,472.1155 L516.2912,471.9716 L526.6352,472.2056 L536.9792,471.3542 " fill="none" style="stroke:#333333;stroke-width:3.125;"/><text fill="#2E2E2E" font-family="&quot;Segoe Print&quot;" font-size="12.5" lengthAdjust="spacing" textLength="102.0833" x="104.6875" y="446.5637">CertificateVerify</text><text fill="#2E2E2E" font-family="&quot;Segoe Print&quot;" font-size="12.5" lengthAdjust="spacing" textLength="346.875" x="138.0208" y="461.1145">(assinatura do transcript do handshake pelo cliente)</text><polygon fill="#333333" points="530.7292,506.7383,530.7563,506.806,532.7591,507.438,534.9208,508.4673,537.0307,509.3671,538.9705,509.8416,541.1458,510.9049,541.1358,510.8799,539.0075,511.6008,536.9297,512.448,534.887,513.383,532.7233,514.0154,530.7292,515.0716,530.8651,515.2075,531.4078,514.0835,532.3473,513.3564,533.3352,512.6777,534.0414,511.7172,534.8958,510.9049,534.9126,510.9217,534.0547,510.0638,533.273,509.2821,532.4545,508.4637,531.7063,507.7154,530.7292,506.7383" style="stroke:#333333;stroke-width:1.0416666666666667;"/><path d="M92.1875,510.9049 L92.1875,511.1969 L102.5315,510.3295 L112.8755,511.1734 L123.2195,511.4601 L133.5635,509.9141 L143.9075,510.797 L154.2515,510.3126 L164.5954,510.3723 L174.9394,510.8103 L185.2834,509.9447 L195.6274,511.6739 L205.9714,510.0296 L216.3154,510.6303 L226.6594,511.5049 L237.0034,510.7858 L247.3474,510.9997 L257.6914,510.8606 L268.0354,511.1529 L278.3794,511.2371 L288.7234,511.7184 L299.0673,511.837 L309.4113,511.8484 L319.7553,511.2586 L330.0993,511.5488 L340.4433,511.8803 L350.7873,509.9033 L361.1313,511.8473 L371.4753,510.4931 L381.8193,511.6464 L392.1633,510.2174 L402.5073,510.8098 L412.8513,511.935 L423.1953,510.8373 L433.5392,511.0512 L443.8832,511.3753 L454.2272,511.483 L464.5712,510.8995 L474.9152,511.3039 L485.2592,510.1099 L495.6032,511.2999 L505.9472,511.6663 L516.2912,511.5224 L526.6352,511.7564 L536.9792,510.9049 " fill="none" style="stroke:#333333;stroke-width:3.125;"/><text fill="#2E2E2E" font-family="&quot;Segoe Print&quot;" font-size="12.5" lengthAdjust="spacing" textLength="123.9583" x="104.6875" y="500.6653">ChangeCipherSpec</text><polygon fill="#333333" points="530.7292,560.8398,530.7563,560.9076,532.7591,561.5396,534.9208,562.5688,537.0307,563.4687,538.9705,563.9432,541.1458,565.0065,541.1358,564.9815,539.0075,565.7023,536.9297,566.5495,534.887,567.4845,532.7233,568.117,530.7292,569.1732,530.8651,569.3091,531.4078,568.1851,532.3473,567.458,533.3352,566.7792,534.0414,565.8188,534.8958,565.0065,534.9126,565.0233,534.0547,564.1653,533.273,563.3837,532.4545,562.5652,531.7063,561.817,530.7292,560.8398" style="stroke:#333333;stroke-width:1.0416666666666667;"/><path d="M92.1875,565.0065 L92.1875,565.2984 L102.5315,564.4311 L112.8755,565.275 L123.2195,565.5616 L133.5635,564.0157 L143.9075,564.8986 L154.2515,564.4142 L164.5954,564.4739 L174.9394,564.9118 L185.2834,564.0463 L195.6274,565.7755 L205.9714,564.1311 L216.3154,564.7318 L226.6594,565.6064 L237.0034,564.8874 L247.3474,565.1013 L257.6914,564.9621 L268.0354,565.2545 L278.3794,565.3386 L288.7234,565.82 L299.0673,565.9385 L309.4113,565.9499 L319.7553,565.3602 L330.0993,565.6504 L340.4433,565.9818 L350.7873,564.0049 L361.1313,565.9489 L371.4753,564.5947 L381.8193,565.7479 L392.1633,564.319 L402.5073,564.9114 L412.8513,566.0365 L423.1953,564.9388 L433.5392,565.1528 L443.8832,565.4768 L454.2272,565.5846 L464.5712,565.0011 L474.9152,565.4054 L485.2592,564.2115 L495.6032,565.4015 L505.9472,565.7679 L516.2912,565.6239 L526.6352,565.8579 L536.9792,565.0065 " fill="none" style="stroke:#333333;stroke-width:3.125;"/><text fill="#2E2E2E" font-family="&quot;Segoe Print&quot;" font-size="12.5" lengthAdjust="spacing" textLength="54.1667" x="104.6875" y="540.2161">Finished</text><text fill="#2E2E2E" font-family="&quot;Segoe Print&quot;" font-size="12.5" lengthAdjust="spacing" textLength="203.125" x="138.0208" y="554.7668">(MAC/transcript do handshake)</text><polygon fill="#333333" points="103.6458,600.3906,103.6729,600.4584,101.5091,601.0904,99.5041,602.1196,97.4474,603.0195,95.2205,603.494,93.2292,604.5573,93.2191,604.5322,95.2575,605.2531,97.3464,606.1003,99.4704,607.0353,101.4733,607.6677,103.6458,608.724,103.7818,608.8599,102.6578,607.7359,101.9306,607.0087,101.2519,606.33,100.2914,605.3696,99.4792,604.5573,99.4959,604.574,100.3047,603.7161,101.1897,602.9345,102.0379,602.116,102.9563,601.3678,103.6458,600.3906" style="stroke:#333333;stroke-width:1.0416666666666667;"/><path d="M97.3958,604.5573 L97.3958,604.8492 L107.7398,603.9818 L118.0838,604.8257 L128.4278,605.1124 L138.7718,603.5665 L149.1158,604.4494 L159.4598,603.9649 L169.8038,604.0247 L180.1478,604.4626 L190.4918,603.5971 L200.8358,605.3262 L211.1797,603.6819 L221.5237,604.2826 L231.8677,605.1572 L242.2117,604.4382 L252.5557,604.6521 L262.8997,604.5129 L273.2437,604.8052 L283.5877,604.8894 L293.9317,605.3707 L304.2757,605.4893 L314.6197,605.5007 L324.9637,604.9109 L335.3077,605.2012 L345.6516,605.5326 L355.9956,603.5556 L366.3396,605.4997 L376.6836,604.1455 L387.0276,605.2987 L397.3716,603.8698 L407.7156,604.4622 L418.0596,605.5873 L428.4036,604.4896 L438.7476,604.7035 L449.0916,605.0276 L459.4356,605.1354 L469.7796,604.5519 L480.1235,604.9562 L490.4675,603.7623 L500.8115,604.9523 L511.1555,605.3187 L521.4995,605.1747 L531.8435,605.4087 L542.1875,604.5573 " fill="none" style="stroke:#333333;stroke-width:3.125;"/><text fill="#2E2E2E" font-family="&quot;Segoe Print&quot;" font-size="12.5" lengthAdjust="spacing" textLength="123.9583" x="115.1042" y="594.3176">ChangeCipherSpec</text><polygon fill="#333333" points="103.6458,654.4922,103.6729,654.5599,101.5091,655.1919,99.5041,656.2212,97.4474,657.121,95.2205,657.5955,93.2292,658.6589,93.2191,658.6338,95.2575,659.3547,97.3464,660.2019,99.4704,661.1369,101.4733,661.7693,103.6458,662.8255,103.7818,662.9615,102.6578,661.8374,101.9306,661.1103,101.2519,660.4316,100.2914,659.4711,99.4792,658.6589,99.4959,658.6756,100.3047,657.8177,101.1897,657.036,102.0379,656.2176,102.9563,655.4693,103.6458,654.4922" style="stroke:#333333;stroke-width:1.0416666666666667;"/><path d="M97.3958,658.6589 L97.3958,658.9508 L107.7398,658.0834 L118.0838,658.9273 L128.4278,659.214 L138.7718,657.668 L149.1158,658.5509 L159.4598,658.0665 L169.8038,658.1262 L180.1478,658.5642 L190.4918,657.6986 L200.8358,659.4278 L211.1797,657.7835 L221.5237,658.3842 L231.8677,659.2588 L242.2117,658.5397 L252.5557,658.7536 L262.8997,658.6145 L273.2437,658.9068 L283.5877,658.991 L293.9317,659.4723 L304.2757,659.5909 L314.6197,659.6023 L324.9637,659.0125 L335.3077,659.3027 L345.6516,659.6342 L355.9956,657.6572 L366.3396,659.6012 L376.6836,658.247 L387.0276,659.4003 L397.3716,657.9713 L407.7156,658.5637 L418.0596,659.6889 L428.4036,658.5912 L438.7476,658.8051 L449.0916,659.1292 L459.4356,659.237 L469.7796,658.6534 L480.1235,659.0578 L490.4675,657.8638 L500.8115,659.0538 L511.1555,659.4202 L521.4995,659.2763 L531.8435,659.5103 L542.1875,658.6589 " fill="none" style="stroke:#333333;stroke-width:3.125;"/><text fill="#2E2E2E" font-family="&quot;Segoe Print&quot;" font-size="12.5" lengthAdjust="spacing" textLength="54.1667" x="115.1042" y="633.8684">Finished</text><text fill="#2E2E2E" font-family="&quot;Segoe Print&quot;" font-size="12.5" lengthAdjust="spacing" textLength="203.125" x="148.4375" y="648.4192">(MAC/transcript do handshake)</text><!--SRC=[dPB1JiCm38RlVGfpOrB7k71W1wIf6vg4k6mIuZ1f2gb7hRL9SDonlHfNNeoatIveenKtnuc_t_QVAocmGl1R55qSXhQMaWmcVal6ALOL5ChadqmYQ42unYJ9Ia8Z2CC7M2BlABSyXZOvnxAqAxEIwnso9sjIu51lgnGy-fXOKvw29bSWhtrDWZu5t0TulFI3v4ICzAFGk951_WUy1pj35jgGLe8DMv_EkONNcxlRUmY1FrPsCnRuKQEN1YNah0UbaSI6CRD96wiUOqvjCE7yellqgzlAmLzUFU5XjjV1tlSMvBw_tahI5gRpqIoRpcSfs1eSOwMyn8MYPfImtWr7BMqhM2mdWyukNv1fSsWaL739AAbPnIObkESravDuYl_C5sgBuB3idA1fEskSNZhKvryzaY5VODveFq-oqGN5Iwx-5ZdxghV83m00]--></g></svg>